<svg width="53" height="64" viewBox="0 0 53 64" fill="none" xmlns="http://www.w3.org/2000/svg">
<path d="M4.49414 22.6289C4.46822 22.9294 4.35264 23.2164 4.16016 23.4512C3.94008 23.7194 3.63328 23.9029 3.29297 23.9707C2.95262 24.0385 2.59906 23.9868 2.29297 23.8232C1.9869 23.6597 1.74711 23.3948 1.61426 23.0742C1.48142 22.7536 1.46378 22.3965 1.56445 22.0645C1.66514 21.7326 1.87774 21.4457 2.16602 21.2529C2.45444 21.0601 2.80123 20.973 3.14648 21.0068C3.44866 21.0365 3.73391 21.1575 3.96484 21.3516L4.06055 21.4395L4.06152 21.4404C4.341 21.7217 4.49861 22.1016 4.5 22.498V22.5L4.49414 22.6289Z" fill="white" stroke="white"/>
<path d="M48.4623 1.5H24.6026C24.2898 1.5 23.9899 1.62552 23.7687 1.84895C23.5476 2.07239 23.4233 2.37543 23.4233 2.69141C23.4233 3.00739 23.5476 3.31043 23.7687 3.53386C23.9899 3.75729 24.2898 3.88281 24.6026 3.88281H48.4623C48.775 3.88281 49.075 4.00834 49.2961 4.23177C49.5173 4.4552 49.6415 4.75824 49.6415 5.07422V58.9258C49.6415 59.2418 49.5173 59.5448 49.2961 59.7682C49.075 59.9917 48.775 60.1172 48.4623 60.1172H5.53774C5.22498 60.1172 4.92503 59.9917 4.70388 59.7682C4.48273 59.5448 4.35849 59.2418 4.35849 58.9258V27.0354C4.35849 26.7194 4.23425 26.4164 4.0131 26.193C3.79195 25.9695 3.492 25.844 3.17925 25.844C2.86649 25.844 2.56654 25.9695 2.34539 26.193C2.12424 26.4164 2 26.7194 2 27.0354V58.9258C2 59.8737 2.37272 60.7828 3.03618 61.4531C3.69963 62.1234 4.59947 62.5 5.53774 62.5H48.4623C49.4005 62.5 50.3004 62.1234 50.9638 61.4531C51.6273 60.7828 52 59.8737 52 58.9258V5.07422C52 4.12628 51.6273 3.21716 50.9638 2.54686C50.3004 1.87657 49.4005 1.5 48.4623 1.5V1.5Z" fill="white" stroke="white" stroke-linejoin="round"/>
<path d="M27.4008 8.5C26.6029 8.50012 25.8062 8.56011 25.0175 8.67947C24.7147 8.73104 24.4444 8.89857 24.2646 9.14605C24.0849 9.39353 24.01 9.70121 24.0561 10.003C24.1021 10.3047 24.2655 10.5765 24.5111 10.7598C24.7567 10.9432 25.0648 11.0235 25.3694 10.9835C26.0416 10.8816 26.7207 10.8306 27.4008 10.8308C29.9251 10.8295 32.3973 11.545 34.5262 12.8929C36.6551 14.2409 38.352 16.1652 39.4172 18.4393C40.4823 20.7134 40.8713 23.2426 40.5384 25.729C40.2055 28.2154 39.1644 30.5555 37.5379 32.4737C36.157 30.1181 33.9909 28.3162 31.4143 27.3797C31.9629 26.8494 32.3989 26.2152 32.6966 25.5146C32.9944 24.814 33.1478 24.0612 33.1479 23.3008V22.1645C33.1479 20.6499 32.5424 19.1975 31.4646 18.1265C30.3868 17.0556 28.925 16.4539 27.4008 16.4539C25.8765 16.4539 24.4148 17.0556 23.337 18.1265C22.2592 19.1975 21.6537 20.6499 21.6537 22.1645V23.3008C21.6537 24.0612 21.8072 24.814 22.1049 25.5146C22.4027 26.2152 22.8387 26.8494 23.3872 27.3797C20.8032 28.3184 18.6322 30.1275 17.2519 32.4924C15.728 30.6927 14.719 28.5191 14.3303 26.1991C14.2788 25.8942 14.1075 25.6221 13.8541 25.4427C13.6007 25.2632 13.286 25.1912 12.9791 25.2423C12.6722 25.2935 12.3984 25.4637 12.2178 25.7154C12.0372 25.9672 11.9647 26.28 12.0162 26.5849C12.631 30.1969 14.5135 33.4759 17.3298 35.8401C20.146 38.2042 23.714 39.5009 27.4008 39.5C36.0026 39.5 43 32.5471 43 24C43 15.4529 36.0026 8.5 27.4008 8.5ZM23.9994 22.1645C23.9994 21.2681 24.3578 20.4085 24.9957 19.7747C25.6335 19.1408 26.4987 18.7848 27.4008 18.7848C28.3029 18.7848 29.168 19.1408 29.8059 19.7747C30.4438 20.4085 30.8021 21.2681 30.8021 22.1645V23.3008C30.8021 24.1971 30.4438 25.0567 29.8059 25.6906C29.168 26.3244 28.3029 26.6805 27.4008 26.6805C26.4987 26.6805 25.6335 26.3244 24.9957 25.6906C24.3578 25.0567 23.9994 24.1971 23.9994 23.3008V22.1645ZM27.4008 37.1692C24.3366 37.1763 21.3648 36.1268 18.9924 34.1997C19.7676 32.6442 20.9643 31.3347 22.4479 30.4184C23.9315 29.5022 25.6431 29.0156 27.3899 29.0136C29.1367 29.0115 30.8494 29.494 32.3352 30.4068C33.821 31.3195 35.0209 32.6263 35.7997 34.1799C33.4343 36.1151 30.4648 37.1719 27.4008 37.1692Z" fill="white"/>
<path d="M37.8271 50.25C38.1927 50.25 38.5496 50.3735 38.8184 50.6025C39.0884 50.8327 39.25 51.1544 39.25 51.5C39.25 51.8456 39.0884 52.1673 38.8184 52.3975C38.5496 52.6265 38.1927 52.75 37.8271 52.75H21.1729C20.8073 52.75 20.4504 52.6265 20.1816 52.3975C19.9116 52.1673 19.75 51.8456 19.75 51.5C19.75 51.1544 19.9116 50.8327 20.1816 50.6025C20.4504 50.3735 20.8073 50.25 21.1729 50.25H37.8271Z" fill="white" stroke="white" stroke-width="0.5" stroke-linejoin="round"/>
<path d="M37.8271 44.25C38.1927 44.25 38.5496 44.3735 38.8184 44.6025C39.0884 44.8327 39.25 45.1544 39.25 45.5C39.25 45.8456 39.0884 46.1673 38.8184 46.3975C38.5496 46.6265 38.1927 46.75 37.8271 46.75H21.1729C20.8073 46.75 20.4504 46.6265 20.1816 46.3975C19.9116 46.1673 19.75 45.8456 19.75 45.5C19.75 45.1544 19.9116 44.8327 20.1816 44.6025C20.4504 44.3735 20.8073 44.25 21.1729 44.25H37.8271Z" fill="white" stroke="white" stroke-width="0.5" stroke-linejoin="round"/>
<path d="M16.1221 44.2751C16.3738 44.2999 16.6113 44.4007 16.8037 44.5623L16.8838 44.6355C17.1172 44.87 17.2491 45.1874 17.25 45.5183V45.5193L17.2451 45.6267C17.2235 45.8772 17.1273 46.1166 16.9668 46.3123C16.7834 46.5358 16.5277 46.6884 16.2441 46.7449C15.9606 46.8013 15.6662 46.758 15.4111 46.6218C15.1561 46.4856 14.9564 46.2649 14.8457 45.9978C14.735 45.7308 14.7199 45.4336 14.8037 45.157C14.8876 44.8802 15.0652 44.6409 15.3057 44.4802C15.546 44.3196 15.8344 44.2469 16.1221 44.2751ZM17.2451 51.6082C17.2234 51.8583 17.1271 52.0972 16.9668 52.2927C16.7834 52.5163 16.5278 52.6698 16.2441 52.7263C15.9605 52.7828 15.6662 52.7386 15.4111 52.6023C15.1561 52.466 14.9564 52.2454 14.8457 51.9783C14.735 51.7112 14.7198 51.4142 14.8037 51.1375C14.8876 50.8607 15.0652 50.6214 15.3057 50.4607C15.546 50.3002 15.8345 50.2274 16.1221 50.2556C16.4099 50.2839 16.6793 50.4115 16.8838 50.616L16.9668 50.7078C17.1484 50.9301 17.2491 51.2092 17.25 51.4988V51.4998L17.2451 51.6082Z" fill="white" stroke="white" stroke-width="0.5"/>
<path d="M15.662 8.84423C15.5548 8.7351 15.4275 8.64853 15.2873 8.58947C15.1472 8.5304 14.997 8.5 14.8452 8.5C14.6935 8.5 14.5433 8.5304 14.4032 8.58947C14.263 8.64853 14.1357 8.7351 14.0285 8.84423L10.2697 12.667L8.98479 11.3606C8.8783 11.2485 8.75092 11.1591 8.61007 11.0976C8.46923 11.0361 8.31774 11.0037 8.16446 11.0024C8.01117 11.001 7.85916 11.0307 7.71729 11.0897C7.57541 11.1487 7.44652 11.2359 7.33812 11.3461C7.22973 11.4563 7.14401 11.5873 7.08597 11.7316C7.02792 11.8758 6.99871 12.0304 7.00004 12.1862C7.00138 12.3421 7.03322 12.4961 7.09372 12.6393C7.15423 12.7825 7.24217 12.912 7.35243 13.0202L9.45349 15.1564C9.66998 15.3764 9.96356 15.5 10.2697 15.5C10.5758 15.5 10.8694 15.3764 11.0859 15.1564L15.662 10.5038C15.8784 10.2837 16 9.98525 16 9.67403C16 9.36281 15.8784 9.06433 15.662 8.84423Z" fill="white"/>
<path d="M11.499 2C13.8852 2.0029 16.173 2.95234 17.8604 4.63965C19.4423 6.22155 20.3755 8.33092 20.4883 10.5547L20.5 11.001C20.4998 12.7806 19.9721 14.5203 18.9834 16C17.9945 17.4799 16.5887 18.6332 14.9443 19.3145C13.2998 19.9956 11.49 20.1744 9.74414 19.8271C7.99832 19.4799 6.39441 18.6229 5.13574 17.3643C3.87708 16.1056 3.02012 14.5017 2.67285 12.7559C2.32558 11.01 2.50436 9.2002 3.18555 7.55566C3.86675 5.91127 5.02005 4.50547 6.5 3.5166C7.97973 2.52792 9.7194 2.00019 11.499 2ZM14.4404 3.90234C13.0366 3.32084 11.4913 3.1684 10.001 3.46484C8.51071 3.76131 7.14182 4.49295 6.06738 5.56738C4.99295 6.64182 4.26131 8.01071 3.96484 9.50098C3.6684 10.9913 3.82084 12.5366 4.40234 13.9404C4.98382 15.344 5.96826 16.5436 7.23145 17.3877C8.49489 18.2319 9.98046 18.6826 11.5 18.6826H11.501C13.5376 18.6802 15.4905 17.8708 16.9307 16.4307C18.3708 14.9905 19.1802 13.0376 19.1826 11.001V11C19.1826 9.48046 18.7319 7.9949 17.8877 6.73145C17.0436 5.46826 15.844 4.48382 14.4404 3.90234Z" fill="white" stroke="white"/>
</svg>
