<svg width="67" height="53" viewBox="0 0 67 53" fill="none" xmlns="http://www.w3.org/2000/svg">
<path d="M1 45.2106C1 48.4694 3.41387 51.1117 6.39133 51.1117H60.6087C63.5861 51.1117 66 48.4684 66 45.2106" stroke="white" stroke-width="2" stroke-miterlimit="10"/>
<path d="M11.5438 43.4679C10.8651 41.0597 8.81465 39.3094 6.39133 39.3094C3.41387 39.3094 1 41.9527 1 45.2105V6.90289" stroke="white" stroke-width="2" stroke-miterlimit="10"/>
<path d="M11.5438 45.003V6.86429C11.7175 2.86068 8.81465 1 6.39133 1C3.41387 1 1 3.64327 1 6.90017" stroke="white" stroke-width="2" stroke-miterlimit="10" stroke-linecap="round"/>
<path d="M11.5514 7.3949H55.4486" stroke="white" stroke-width="2" stroke-miterlimit="10"/>
<path d="M55.4561 43.4679C56.1348 41.0597 58.1852 39.3094 60.6085 39.3094C63.586 39.3094 65.9999 41.9527 65.9999 45.2105V6.90289" stroke="white" stroke-width="2" stroke-miterlimit="10"/>
<path d="M55.456 45.003V6.86429C55.2823 2.86068 58.1852 1 60.6085 1C63.586 1 65.9999 3.64327 65.9999 6.90017" stroke="white" stroke-width="2" stroke-miterlimit="10" stroke-linecap="round"/>
<path d="M18.488 27.2561L21.1247 31.3579L33.4999 21.2285L45.9045 31.3579L48.5411 27.3817L44.6904 24.1588V17.3778H40.3375V20.4336L33.5151 14.8242L18.488 27.2561Z" stroke="white" stroke-width="2" stroke-miterlimit="10"/>
<path d="M22.9664 29.8514V41.1108H44.0211V29.8514" stroke="white" stroke-width="2" stroke-miterlimit="10"/>
</svg>
