<svg width="52" height="58" viewBox="0 0 52 58" fill="none" xmlns="http://www.w3.org/2000/svg">
<path d="M47.4258 0.25L47.6904 0.263672C48.3038 0.325829 48.8802 0.600406 49.3193 1.04492C49.821 1.5528 50.1022 2.24089 50.1035 2.95801V4.44434C50.5618 4.63882 50.959 4.95769 51.249 5.36816C51.5739 5.82795 51.749 6.3786 51.75 6.94336V8.58496L51.7412 8.7998C51.7013 9.2981 51.5259 9.77752 51.2324 10.1836C50.9307 10.6009 50.5173 10.9198 50.043 11.1074L46.8633 55.1172C46.7567 56.602 45.6166 57.7499 44.1875 57.75H41.5088V57.7441H14.9131C13.2135 57.7288 11.5824 57.0625 10.3486 55.8799C9.1152 54.6974 8.36994 53.0866 8.26074 51.3711C8.15157 49.6554 8.68648 47.9609 9.75977 46.6279C10.7829 45.3574 12.2231 44.5054 13.8135 44.2236L10.834 11.2949H8.74805L8.67969 11.1562L7.93945 9.65527H2.92871C2.21724 9.65527 1.53527 9.36809 1.0332 8.85938C0.531455 8.35084 0.250047 7.66201 0.25 6.94434C0.25 6.22647 0.531244 5.53692 1.0332 5.02832C1.53527 4.51963 2.21726 4.2334 2.92871 4.2334H10.7471V2.96094C10.7477 2.24332 11.0295 1.55432 11.5312 1.0459C12.033 0.537539 12.7138 0.250738 13.4248 0.25H47.4258ZM15.9385 44.1943C17.1554 44.376 18.3013 44.8922 19.25 45.6885C20.2506 46.5284 20.9891 47.6439 21.377 48.8994C21.7648 50.1549 21.7857 51.4976 21.4365 52.7646C21.1428 53.8303 20.597 54.8036 19.8516 55.6045H42.75V55.6094H44.1855C44.4874 55.6091 44.7215 55.3197 44.7471 54.9619V54.9609L47.9043 11.2949H12.9668L15.9385 44.1943ZM16.7285 46.6172C15.8876 46.2639 14.9621 46.1713 14.0693 46.3506C13.1765 46.53 12.3557 46.9737 11.7109 47.626C11.0661 48.2783 10.6261 49.1103 10.4473 50.0166C10.2685 50.9228 10.3581 51.8628 10.7061 52.7168C11.0541 53.5708 11.6448 54.3007 12.4014 54.8145C13.1578 55.328 14.0472 55.603 14.957 55.6045H14.9727C16.1919 55.6023 17.3612 55.1096 18.2236 54.2344C19.0862 53.3588 19.5713 52.1712 19.5713 50.9326C19.5713 50.0083 19.3012 49.105 18.7949 48.3369C18.2887 47.5689 17.5695 46.9706 16.7285 46.6172ZM2.92871 6.37402C2.78138 6.37402 2.63937 6.43346 2.53418 6.54004C2.42893 6.64673 2.36914 6.79209 2.36914 6.94434C2.36919 7.09656 2.42892 7.24198 2.53418 7.34863C2.63936 7.45516 2.78143 7.51465 2.92871 7.51465H9.25195L9.32031 7.65332L10.0615 9.15527H49.0713L49.1797 9.14355C49.2868 9.12182 49.3868 9.06832 49.4658 8.98828C49.5708 8.88175 49.6305 8.73688 49.6309 8.58496V6.94434C49.6309 6.79209 49.5711 6.64673 49.4658 6.54004C49.3606 6.43346 49.2186 6.37402 49.0713 6.37402H2.92871ZM13.4258 2.39062C13.2785 2.39062 13.1364 2.45006 13.0312 2.55664C12.9259 2.66333 12.8662 2.80865 12.8662 2.96094V4.2334H47.9854V2.96094C47.9854 2.80883 47.9254 2.6633 47.8203 2.55664C47.7152 2.45015 47.573 2.39073 47.4258 2.39062H13.4258Z" fill="white" stroke="white" stroke-width="0.5"/>
</svg>
