<svg width="6" height="10" viewBox="0 0 6 10" fill="none" xmlns="http://www.w3.org/2000/svg">
<path d="M4.94088 4.80191L0.625751 9.01134C0.592561 9.04601 0.552573 9.07379 0.508171 9.09302C0.463769 9.11225 0.415861 9.12254 0.367305 9.12328C0.318749 9.12401 0.270539 9.11518 0.225549 9.0973C0.180559 9.07942 0.139711 9.05287 0.10544 9.01922C0.071169 8.98557 0.0441771 8.94552 0.0260736 8.90145C0.00797016 8.85738 -0.000874155 8.8102 6.81773e-05 8.76272C0.00101051 8.71523 0.0117201 8.66842 0.0315584 8.62507C0.0513967 8.58172 0.0799575 8.54272 0.115538 8.5104L4.17337 4.55242L0.11481 0.594251C0.0512849 0.527227 0.0167476 0.438761 0.0184349 0.347386C0.0201221 0.256013 0.057903 0.168824 0.123861 0.104087C0.18982 0.0393505 0.278836 0.0020905 0.37226 0.000114501C0.465685 -0.0018615 0.556265 0.0316001 0.625024 0.0934878L4.94088 4.30203C4.97461 4.33486 5.00137 4.37387 5.01964 4.41684C5.0379 4.45981 5.0473 4.50588 5.0473 4.55242C5.0473 4.59895 5.0379 4.64502 5.01964 4.68799C5.00137 4.73096 4.97461 4.76998 4.94088 4.8028L4.94088 4.80191Z" fill="#AE9D71"/>
</svg>
