<svg width="15" height="25" viewBox="0 0 15 25" fill="none" xmlns="http://www.w3.org/2000/svg">
<path d="M13.7616 12.8963L1.7925 23.9437C1.70044 24.0347 1.58952 24.1076 1.46636 24.158C1.3432 24.2085 1.21032 24.2355 1.07564 24.2374C0.940954 24.2394 0.80723 24.2162 0.68244 24.1693C0.557649 24.1223 0.444347 24.0527 0.349288 23.9643C0.254229 23.876 0.17936 23.7709 0.129145 23.6553C0.0789309 23.5396 0.054399 23.4158 0.0570128 23.2912C0.0596266 23.1665 0.0893322 23.0437 0.144359 22.9299C0.199385 22.8162 0.278606 22.7138 0.377296 22.629L11.6327 12.2416L0.375278 1.85367C0.199075 1.67777 0.103277 1.4456 0.107957 1.2058C0.112637 0.965994 0.217432 0.737173 0.400383 0.567276C0.583335 0.397381 0.830245 0.299595 1.08938 0.294409C1.34851 0.289223 1.59976 0.377041 1.79048 0.539461L13.7616 11.5845C13.8551 11.6706 13.9294 11.773 13.98 11.8858C14.0307 11.9985 14.0568 12.1194 14.0568 12.2416C14.0568 12.3637 14.0307 12.4846 13.98 12.5974C13.9294 12.7101 13.8551 12.8125 13.7616 12.8987L13.7616 12.8963Z" fill="#334750"/>
</svg>
