<svg width="31" height="31" viewBox="0 0 31 31" fill="none" xmlns="http://www.w3.org/2000/svg">
<path d="M7.91146 25.5104H23.0885C23.295 25.5111 23.4934 25.5908 23.6429 25.7333C23.7924 25.8758 23.8816 26.0701 23.8922 26.2763C23.9028 26.4825 23.8339 26.685 23.6998 26.842C23.5657 26.999 23.3765 27.0987 23.1712 27.1205L23.0885 27.125H7.91146C7.70498 27.1243 7.50659 27.0446 7.35712 26.9021C7.20764 26.7596 7.11843 26.5653 7.10784 26.3591C7.09726 26.1529 7.16609 25.9505 7.30019 25.7934C7.43429 25.6364 7.62346 25.5367 7.8288 25.5149L7.91146 25.5104H23.0885H7.91146ZM15.2559 3.87888L15.3385 3.875C15.7564 3.875 16.1006 4.19275 16.142 4.59963L16.1458 4.68229V20.3696L19.7929 16.7232C19.8674 16.6461 19.9564 16.5846 20.055 16.5424C20.1535 16.5001 20.2594 16.4778 20.3666 16.4769C20.4738 16.476 20.5801 16.4965 20.6793 16.5371C20.7785 16.5777 20.8686 16.6377 20.9444 16.7135C21.0202 16.7893 21.0801 16.8795 21.1206 16.9787C21.1612 17.078 21.1816 17.1843 21.1806 17.2915C21.1797 17.3986 21.1574 17.5046 21.115 17.603C21.0727 17.7015 21.0112 17.7906 20.934 17.865L15.9108 22.8883C15.7594 23.0396 15.5541 23.1245 15.3402 23.1245C15.1262 23.1245 14.9209 23.0396 14.7696 22.8883L9.74563 17.865C9.59421 17.7136 9.50915 17.5083 9.50915 17.2941C9.50915 17.08 9.59421 16.8746 9.74563 16.7232C9.89705 16.5718 10.1024 16.4867 10.3165 16.4867C10.5307 16.4867 10.736 16.5718 10.8875 16.7232L14.5313 20.367V4.68229C14.5313 4.26444 14.849 3.92021 15.2559 3.87888L15.3385 3.875L15.2559 3.87888Z" fill="white"/>
</svg>
