<svg width="5" height="10" viewBox="0 0 5 10" fill="none" xmlns="http://www.w3.org/2000/svg">
<path d="M4.89458 5.26331L0.619887 9.87726C0.587008 9.91526 0.547395 9.94571 0.503409 9.96679C0.459423 9.98787 0.411964 9.99915 0.363863 9.99995C0.315762 10.0008 0.268004 9.99108 0.223435 9.97148C0.178867 9.95189 0.138402 9.92278 0.104452 9.8859C0.070502 9.84902 0.043763 9.80511 0.0258292 9.75681C0.00789542 9.70851 -0.000866019 9.65679 6.74733e-05 9.60474C0.00100097 9.55269 0.0116101 9.50138 0.0312625 9.45387C0.0509149 9.40635 0.0792081 9.36361 0.114455 9.32818L4.13426 4.98985L0.113733 0.65132C0.0508028 0.577857 0.0165891 0.480888 0.0182605 0.380734C0.0199319 0.28058 0.0573587 0.185012 0.122699 0.114055C0.188039 0.0430965 0.276222 0.00225639 0.36877 9.05991e-05C0.461319 -0.0020752 0.551051 0.0346022 0.619165 0.102437L4.89458 4.71541C4.92799 4.75138 4.9545 4.79415 4.97259 4.84124C4.99069 4.88834 5 4.93884 5 4.98985C5 5.04085 4.99069 5.09135 4.97259 5.13845C4.9545 5.18555 4.92799 5.22832 4.89458 5.26429L4.89458 5.26331Z" fill="#334750"/>
</svg>
