<svg width="14" height="24" viewBox="0 0 14 24" fill="none" xmlns="http://www.w3.org/2000/svg">
<path d="M13.6219 12.461L2.38339 22.7497C2.29695 22.8344 2.19281 22.9023 2.07716 22.9493C1.96152 22.9963 1.83675 23.0215 1.71029 23.0233C1.58383 23.0251 1.45827 23.0035 1.34109 22.9598C1.22392 22.9161 1.11753 22.8512 1.02827 22.7689C0.939017 22.6867 0.868719 22.5888 0.821569 22.4811C0.77442 22.3734 0.751385 22.258 0.753839 22.142C0.756294 22.0259 0.784186 21.9115 0.835854 21.8055C0.887522 21.6996 0.961907 21.6043 1.05457 21.5253L11.623 11.8512L1.05268 2.17663C0.88723 2.01281 0.79728 1.79658 0.801674 1.57325C0.806068 1.34991 0.904467 1.1368 1.07625 0.978573C1.24804 0.820345 1.47988 0.729273 1.72319 0.724445C1.96651 0.719616 2.20242 0.801403 2.3815 0.952667L13.6219 11.2392C13.7097 11.3194 13.7794 11.4148 13.827 11.5198C13.8746 11.6248 13.8991 11.7374 13.8991 11.8512C13.8991 11.9649 13.8746 12.0775 13.827 12.1825C13.7794 12.2876 13.7097 12.3829 13.6219 12.4631V12.461Z" fill="#D59815"/>
</svg>
