<svg width="8" height="13" viewBox="0 0 8 13" fill="none" xmlns="http://www.w3.org/2000/svg">
<path d="M2.22738 7.33792C2.17169 7.33792 0.946636 7.33792 0.389791 7.33792C0.0928075 7.33792 0 7.2403 0 6.99624C0 6.34543 0 5.67835 0 5.02753C0 4.76721 0.111369 4.68586 0.389791 4.68586H2.22738C2.22738 4.63705 2.22738 3.69337 2.22738 3.25407C2.22738 2.60325 2.35731 1.98498 2.72854 1.41552C3.11833 0.829787 3.67517 0.439299 4.38051 0.211514C4.84455 0.0650812 5.30859 0 5.80975 0H7.62877C7.88863 0 8 0.097622 8 0.325407V2.18023C8 2.40801 7.88863 2.50563 7.62877 2.50563C7.12761 2.50563 6.62645 2.50563 6.12529 2.5219C5.62413 2.5219 5.36427 2.73342 5.36427 3.18899C5.34571 3.6771 5.36427 4.14894 5.36427 4.65332H7.5174C7.81439 4.65332 7.92575 4.75094 7.92575 5.01126V6.97998C7.92575 7.2403 7.83295 7.32165 7.5174 7.32165C6.84919 7.32165 5.41995 7.32165 5.36427 7.32165V12.6258C5.36427 12.9024 5.27146 13 4.93736 13C4.15777 13 3.39675 13 2.61717 13C2.33875 13 2.22738 12.9024 2.22738 12.6583C2.22738 10.9499 2.22738 7.38673 2.22738 7.33792Z" fill="#DAC590"/>
</svg>
