<svg width="5" height="8" viewBox="0 0 5 8" fill="none" xmlns="http://www.w3.org/2000/svg">
<path d="M4.3014 4.14486L1.00345 7.77834C0.978088 7.80827 0.947526 7.83225 0.913591 7.84885C0.879655 7.86545 0.843041 7.87433 0.80593 7.87496C0.76882 7.8756 0.731974 7.86797 0.697589 7.85254C0.663205 7.83711 0.631985 7.81419 0.605793 7.78514C0.5796 7.7561 0.558971 7.72153 0.545135 7.68349C0.531299 7.64545 0.524539 7.60472 0.52526 7.56373C0.52598 7.52275 0.534165 7.48234 0.549327 7.44492C0.564489 7.4075 0.586317 7.37384 0.61351 7.34594L3.71482 3.92951L0.612954 0.512916C0.564403 0.455063 0.538007 0.3787 0.539297 0.299829C0.540586 0.220957 0.569461 0.145698 0.619872 0.0898185C0.670282 0.0339394 0.738316 0.00177769 0.809717 7.20532e-05C0.881119 -0.0016331 0.950348 0.0272499 1.0029 0.08067L4.3014 3.71338C4.32718 3.74171 4.34764 3.77539 4.3616 3.81248C4.37556 3.84957 4.38274 3.88934 4.38274 3.92951C4.38274 3.96967 4.37556 4.00944 4.3616 4.04653C4.34764 4.08362 4.32718 4.1173 4.3014 4.14563L4.3014 4.14486Z" fill="#DAC590"/>
</svg>
