<svg width="13" height="12" viewBox="0 0 13 12" fill="none" xmlns="http://www.w3.org/2000/svg">
<path d="M13 12V7.605C13 5.445 12.4962 3.795 9.76625 3.795C8.45 3.795 7.5725 4.455 7.215 5.085H7.1825V3.99H4.59875V12H7.29625V8.025C7.29625 6.975 7.5075 5.97 8.905 5.97C10.2863 5.97 10.3025 7.155 10.3025 8.085V11.985H13V12Z" fill="#DAC590"/>
<path d="M0.21125 3.99H2.90875V12H0.21125V3.99Z" fill="#DAC590"/>
<path d="M1.56 0C0.69875 0 0 0.645 0 1.44C0 2.235 0.69875 2.895 1.56 2.895C2.42125 2.895 3.12 2.235 3.12 1.44C3.12 0.645 2.42125 0 1.56 0Z" fill="#DAC590"/>
</svg>
