<svg width="27" height="24" viewBox="0 0 27 24" fill="none" xmlns="http://www.w3.org/2000/svg">
<path d="M17.8621 6.13014H11.4062C11.133 6.13014 10.8709 6.2332 10.6777 6.41665C10.4844 6.60011 10.3759 6.84892 10.3759 7.10836C10.3759 7.3678 10.4844 7.61662 10.6777 7.80007C10.8709 7.98352 11.133 8.08658 11.4062 8.08658H17.8621C18.1353 8.08658 18.3974 7.98352 18.5906 7.80007C18.7839 7.61662 18.8924 7.3678 18.8924 7.10836C18.8924 6.84892 18.7839 6.60011 18.5906 6.41665C18.3974 6.2332 18.1353 6.13014 17.8621 6.13014Z" fill="#334750"/>
<path d="M20.3366 10.8583H11.4062C11.1369 10.864 10.8805 10.9696 10.6921 11.1525C10.5038 11.3353 10.3983 11.581 10.3983 11.8368C10.3983 12.0926 10.5038 12.3382 10.6921 12.5211C10.8805 12.704 11.1369 12.8096 11.4062 12.8153H20.3366C20.606 12.8096 20.8623 12.704 21.0507 12.5211C21.2391 12.3382 21.3446 12.0926 21.3446 11.8368C21.3446 11.581 21.2391 11.3353 21.0507 11.1525C20.8623 10.9696 20.606 10.864 20.3366 10.8583Z" fill="#334750"/>
<path d="M25.0075 1.18936e-07H6.76991C6.63456 -6.32141e-05 6.50052 0.0251925 6.37546 0.0743245C6.25039 0.123456 6.13675 0.195502 6.04102 0.286344C5.94528 0.377187 5.86934 0.485047 5.81753 0.603762C5.76572 0.722477 5.73905 0.849721 5.73905 0.978223V10.2089H3.91905C2.89055 10.2099 1.90443 10.5981 1.17688 11.2883C0.449336 11.9785 0.0397232 12.9144 0.0378418 13.8909V19.3388C0.0389172 20.3158 0.448175 21.2525 1.17581 21.9433C1.90345 22.6341 2.89002 23.0227 3.91905 23.0237C4.09159 23.0237 4.26395 23.0129 4.43499 22.9914H21.4355C22.6561 22.99 23.8263 22.5288 24.6891 21.7092C25.552 20.8895 26.037 19.7783 26.0378 18.6195V0.978223C26.0379 0.849743 26.0113 0.722511 25.9595 0.603798C25.9078 0.485086 25.8319 0.377223 25.7362 0.286374C25.6405 0.195525 25.5269 0.123472 25.4019 0.0743338C25.2768 0.025196 25.1428 -6.32497e-05 25.0075 1.18936e-07ZM5.73956 19.3369C5.73886 19.737 5.59224 20.1246 5.3246 20.4337C5.05697 20.7428 4.68484 20.9544 4.27147 21.0325H3.91905V21.0648C3.43639 21.0643 2.97365 20.882 2.63235 20.558C2.29106 20.234 2.09908 19.7947 2.09855 19.3364V13.8909C2.09922 13.4327 2.29125 12.9935 2.63253 12.6696C2.97381 12.3456 3.43648 12.1635 3.91905 12.1629H5.73956V19.3369ZM23.9771 18.6195C23.9771 19.927 22.8132 21.0325 21.4355 21.0325H7.36405C7.65137 20.509 7.80103 19.9272 7.80026 19.3369V1.95645H23.9771V18.6195Z" fill="#334750"/>
<path d="M17.8621 15.2934H11.4062C11.1369 15.299 10.8805 15.4046 10.6921 15.5875C10.5038 15.7704 10.3983 16.016 10.3983 16.2718C10.3983 16.5276 10.5038 16.7733 10.6921 16.9562C10.8805 17.139 11.1369 17.2446 11.4062 17.2503H17.8621C18.1314 17.2446 18.3878 17.139 18.5762 16.9562C18.7646 16.7733 18.87 16.5276 18.87 16.2718C18.87 16.016 18.7646 15.7704 18.5762 15.5875C18.3878 15.4046 18.1314 15.299 17.8621 15.2934Z" fill="#334750"/>
</svg>
