<svg width="12" height="11" viewBox="0 0 12 11" fill="none" xmlns="http://www.w3.org/2000/svg">
<path d="M10.3233 11C4.45826 11.0082 0.00669736 6.50374 0.0128849 0.689562C0.0128849 0.309375 0.320885 0 0.700384 0H2.51538C2.8557 0 3.14513 0.25025 3.19532 0.587124C3.31502 1.39497 3.55002 2.18147 3.89313 2.92256L3.96394 3.07518C4.01151 3.17789 4.02174 3.29398 3.99288 3.40342C3.96401 3.51286 3.89785 3.6088 3.80582 3.67468C3.24345 4.07618 3.02895 4.884 3.46688 5.51374C4.0162 6.30437 4.70851 6.99737 5.49913 7.54668C6.12957 7.98393 6.93738 7.76943 7.33819 7.20774C7.40401 7.11543 7.50003 7.04903 7.60963 7.02003C7.71923 6.99103 7.83552 7.00125 7.93838 7.04893L8.09032 7.11905C8.83144 7.4628 9.61794 7.69793 10.4258 7.81755C10.7626 7.86774 11.0129 8.15718 11.0129 8.49818V10.3125C11.0129 10.4028 10.9951 10.4923 10.9605 10.5757C10.9259 10.6592 10.8752 10.735 10.8113 10.7989C10.7474 10.8627 10.6715 10.9133 10.588 10.9479C10.5045 10.9824 10.415 11.0001 10.3247 11H10.3233Z" fill="#DAC590"/>
</svg>
