<svg width="108" height="61" viewBox="0 0 108 61" fill="none" xmlns="http://www.w3.org/2000/svg">
<path d="M7.4696 12.0728C7.4696 11.8062 7.44568 11.5635 7.39783 11.3447C7.34998 11.126 7.24744 10.9243 7.09021 10.7397C6.93982 10.5552 6.71765 10.3706 6.42371 10.186C6.1366 10.0015 5.76062 9.81006 5.29578 9.61182C4.74207 9.37939 4.20544 9.1333 3.68591 8.87354C3.16638 8.60693 2.69812 8.29932 2.28113 7.95068C1.86414 7.60205 1.53259 7.19189 1.2865 6.72021C1.04724 6.2417 0.927612 5.68115 0.927612 5.03857C0.927612 4.40967 1.04041 3.83887 1.26599 3.32617C1.49841 2.81348 1.82654 2.37598 2.25037 2.01367C2.67419 1.64453 3.1698 1.36084 3.73718 1.1626C4.3114 0.964355 4.95056 0.865234 5.65466 0.865234C6.61169 0.865234 7.43884 1.06348 8.13611 1.45996C8.84021 1.85645 9.38367 2.3999 9.76648 3.09033C10.1561 3.78076 10.351 4.57373 10.351 5.46924H7.35681C7.35681 5.04541 7.29529 4.67285 7.17224 4.35156C7.05603 4.02344 6.86804 3.76709 6.60828 3.58252C6.34851 3.39795 6.01355 3.30566 5.60339 3.30566C5.22058 3.30566 4.90271 3.38428 4.64978 3.5415C4.40369 3.69189 4.21912 3.90039 4.09607 4.16699C3.97986 4.42676 3.92175 4.7207 3.92175 5.04883C3.92175 5.29492 3.97986 5.51709 4.09607 5.71533C4.21912 5.90674 4.3866 6.08105 4.59851 6.23828C4.81042 6.38867 5.05994 6.53564 5.34705 6.6792C5.64099 6.82275 5.96228 6.96289 6.31091 7.09961C6.98767 7.36621 7.58582 7.66016 8.10535 7.98145C8.62488 8.2959 9.05896 8.65137 9.40759 9.04785C9.75623 9.4375 10.0194 9.87842 10.1971 10.3706C10.3749 10.8628 10.4637 11.4233 10.4637 12.0522C10.4637 12.6743 10.3544 13.2417 10.1356 13.7544C9.92371 14.2603 9.61267 14.6978 9.20251 15.0669C8.79236 15.4292 8.29675 15.7095 7.7157 15.9077C7.14148 16.106 6.4989 16.2051 5.78796 16.2051C5.09753 16.2051 4.4447 16.1094 3.82947 15.918C3.21423 15.7197 2.67078 15.4224 2.1991 15.0259C1.73425 14.6226 1.36853 14.1133 1.10193 13.498C0.835327 12.876 0.702026 12.1411 0.702026 11.2935H3.70642C3.70642 11.7446 3.75085 12.1309 3.83972 12.4521C3.92859 12.7666 4.06531 13.0195 4.24988 13.2109C4.43445 13.3955 4.66003 13.5356 4.92664 13.6313C5.20007 13.7202 5.51111 13.7646 5.85974 13.7646C6.25623 13.7646 6.57068 13.6895 6.8031 13.5391C7.04236 13.3887 7.21326 13.187 7.3158 12.9341C7.41833 12.6812 7.4696 12.394 7.4696 12.0728ZM20.52 10.7397H17.4643V8.24805H20.52C20.9506 8.24805 21.2993 8.15234 21.5659 7.96094C21.8325 7.76953 22.0273 7.50635 22.1503 7.17139C22.2734 6.82959 22.3349 6.44678 22.3349 6.02295C22.3349 5.59229 22.2734 5.18896 22.1503 4.81299C22.0273 4.43701 21.8325 4.13623 21.5659 3.91064C21.2993 3.67822 20.9506 3.56201 20.52 3.56201H18.4384V16H15.434V1.07031H20.52C21.5248 1.07031 22.3862 1.28223 23.1039 1.70605C23.8286 2.12988 24.3857 2.71436 24.7753 3.45947C25.165 4.19775 25.3598 5.04541 25.3598 6.00244C25.3598 6.96631 25.165 7.80371 24.7753 8.51465C24.3857 9.21875 23.8286 9.76562 23.1039 10.1553C22.3862 10.5449 21.5248 10.7397 20.52 10.7397ZM40.7993 7.37646V9.86816C40.7993 10.9209 40.6694 11.8438 40.4097 12.6367C40.1567 13.4229 39.7944 14.0825 39.3228 14.6157C38.8579 15.1421 38.2939 15.5386 37.6309 15.8052C36.9746 16.0718 36.2466 16.2051 35.4468 16.2051C34.647 16.2051 33.9155 16.0718 33.2524 15.8052C32.5962 15.5386 32.0288 15.1421 31.5503 14.6157C31.0786 14.0825 30.7129 13.4229 30.4531 12.6367C30.1934 11.8438 30.0635 10.9209 30.0635 9.86816V7.37646C30.0635 6.29639 30.1899 5.35303 30.4429 4.54639C30.6958 3.73291 31.0615 3.05615 31.54 2.51611C32.0186 1.96924 32.5859 1.55908 33.2422 1.28564C33.8984 1.00537 34.6265 0.865234 35.4263 0.865234C36.2261 0.865234 36.9541 1.00537 37.6103 1.28564C38.2666 1.55908 38.834 1.96924 39.3125 2.51611C39.791 3.05615 40.1567 3.73291 40.4097 4.54639C40.6694 5.35303 40.7993 6.29639 40.7993 7.37646ZM37.8154 9.86816V7.35596C37.8154 6.64502 37.7642 6.04004 37.6616 5.54102C37.5591 5.03516 37.4053 4.62158 37.2002 4.30029C36.9951 3.979 36.7456 3.74316 36.4517 3.59277C36.1577 3.44238 35.8159 3.36719 35.4263 3.36719C35.0366 3.36719 34.6914 3.44238 34.3906 3.59277C34.0967 3.74316 33.8472 3.979 33.6421 4.30029C33.4438 4.62158 33.2935 5.03516 33.1909 5.54102C33.0952 6.04004 33.0474 6.64502 33.0474 7.35596V9.86816C33.0474 10.5518 33.0986 11.1362 33.2012 11.6216C33.3037 12.1069 33.4575 12.5034 33.6626 12.811C33.8677 13.1187 34.1172 13.3477 34.4111 13.498C34.7119 13.6416 35.0571 13.7134 35.4468 13.7134C35.8296 13.7134 36.168 13.6416 36.4619 13.498C36.7627 13.3477 37.0122 13.1187 37.2104 12.811C37.4087 12.5034 37.5591 12.1069 37.6616 11.6216C37.7642 11.1362 37.8154 10.5518 37.8154 9.86816ZM45.9336 1.07031H50.7222C51.7203 1.07031 52.5713 1.24121 53.2754 1.58301C53.9795 1.9248 54.5196 2.43066 54.8956 3.10059C55.2715 3.77051 55.4595 4.59766 55.4595 5.58203C55.4595 6.38867 55.3502 7.0791 55.1314 7.65332C54.9127 8.2207 54.6016 8.6958 54.1983 9.07861C53.795 9.45459 53.313 9.75537 52.7525 9.98096L51.8399 10.5244H47.9537L47.9434 8.03271H50.6402C51.0503 8.03271 51.3887 7.94385 51.6553 7.76611C51.9288 7.58154 52.1304 7.3252 52.2603 6.99707C52.397 6.66211 52.4654 6.27246 52.4654 5.82812C52.4654 5.35645 52.4039 4.95313 52.2808 4.61816C52.1646 4.27637 51.9766 4.0166 51.7169 3.83887C51.4639 3.6543 51.1324 3.56201 50.7222 3.56201H48.938V16H45.9336V1.07031ZM52.7115 16L49.9737 9.34521L53.1216 9.33496L55.921 15.8564V16H52.7115ZM65.9259 1.07031V16H62.942V1.07031H65.9259ZM69.6378 1.07031V3.56201H59.3019V1.07031H69.6378ZM8.26941 33.0269H11.2533C11.2123 34.1479 10.9867 35.0947 10.5765 35.8672C10.1664 36.6328 9.58191 37.2139 8.82312 37.6104C8.07117 38.0068 7.16199 38.2051 6.09558 38.2051C5.26843 38.2051 4.53357 38.0684 3.89099 37.7949C3.24841 37.5146 2.70154 37.1045 2.25037 36.5645C1.79919 36.0244 1.4574 35.3579 1.22498 34.5649C0.99939 33.7651 0.886597 32.8457 0.886597 31.8066V29.2739C0.886597 28.2349 1.00623 27.3154 1.24548 26.5156C1.49158 25.7158 1.84021 25.0459 2.29138 24.5059C2.74939 23.959 3.29968 23.5488 3.94226 23.2754C4.59167 22.9951 5.32312 22.855 6.1366 22.855C7.22351 22.855 8.13269 23.0601 8.86414 23.4702C9.59558 23.8804 10.1595 24.4785 10.556 25.2646C10.9594 26.0439 11.202 26.9976 11.2841 28.1255H8.27966C8.26599 27.4146 8.18738 26.8574 8.04382 26.4541C7.9071 26.0439 7.68835 25.7568 7.38757 25.5928C7.08679 25.4219 6.6698 25.3364 6.1366 25.3364C5.74011 25.3364 5.39832 25.4082 5.11121 25.5518C4.8241 25.6885 4.58826 25.9106 4.40369 26.2183C4.21912 26.5259 4.0824 26.9292 3.99353 27.4282C3.9115 27.9272 3.87048 28.5356 3.87048 29.2534V31.8066C3.87048 32.5107 3.90808 33.1123 3.98328 33.6113C4.05847 34.1035 4.1781 34.5068 4.34216 34.8213C4.50623 35.1357 4.72839 35.3647 5.00867 35.5083C5.29578 35.6519 5.65808 35.7236 6.09558 35.7236C6.60144 35.7236 7.00818 35.6484 7.3158 35.498C7.63025 35.3477 7.86267 35.0776 8.01306 34.688C8.16345 34.2983 8.2489 33.7446 8.26941 33.0269ZM22.7758 23.0703H25.77V33.3242C25.77 34.4727 25.558 35.4092 25.1342 36.1338C24.7172 36.8516 24.1396 37.3779 23.4013 37.7129C22.663 38.041 21.8188 38.2051 20.8686 38.2051C19.9116 38.2051 19.0605 38.041 18.3154 37.7129C17.5702 37.3779 16.9892 36.8516 16.5722 36.1338C16.162 35.4092 15.957 34.4727 15.957 33.3242V23.0703H18.9511V33.3242C18.9511 33.9736 19.0229 34.4727 19.1664 34.8213C19.3168 35.1699 19.5322 35.4092 19.8124 35.5391C20.0995 35.6621 20.4516 35.7236 20.8686 35.7236C21.2924 35.7236 21.6411 35.6621 21.9145 35.5391C22.1948 35.4092 22.4067 35.1699 22.5502 34.8213C22.7006 34.4727 22.7758 33.9736 22.7758 33.3242V23.0703ZM39.292 35.5186V38H33.0884V35.5186H39.292ZM34.0112 23.0703V38H31.0068V23.0703H34.0112ZM47.8101 23.0703V38H44.8262V23.0703H47.8101ZM51.522 23.0703V25.562H41.1861V23.0703H51.522ZM62.9112 23.0703H65.9054V33.3242C65.9054 34.4727 65.6935 35.4092 65.2696 36.1338C64.8527 36.8516 64.275 37.3779 63.5367 37.7129C62.7985 38.041 61.9542 38.2051 61.004 38.2051C60.047 38.2051 59.1959 38.041 58.4508 37.7129C57.7057 37.3779 57.1246 36.8516 56.7076 36.1338C56.2975 35.4092 56.0924 34.4727 56.0924 33.3242V23.0703H59.0865V33.3242C59.0865 33.9736 59.1583 34.4727 59.3019 34.8213C59.4523 35.1699 59.6676 35.4092 59.9479 35.5391C60.235 35.6621 60.587 35.7236 61.004 35.7236C61.4278 35.7236 61.7765 35.6621 62.0499 35.5391C62.3302 35.4092 62.5421 35.1699 62.6857 34.8213C62.8361 34.4727 62.9112 33.9736 62.9112 33.3242V23.0703ZM71.1525 23.0703H75.9411C76.9391 23.0703 77.7902 23.2412 78.4943 23.583C79.1984 23.9248 79.7384 24.4307 80.1144 25.1006C80.4904 25.7705 80.6784 26.5977 80.6784 27.582C80.6784 28.3887 80.569 29.0791 80.3503 29.6533C80.1315 30.2207 79.8205 30.6958 79.4172 31.0786C79.0138 31.4546 78.5319 31.7554 77.9714 31.981L77.0588 32.5244H73.1725L73.1623 30.0327H75.8591C76.2692 30.0327 76.6076 29.9438 76.8742 29.7661C77.1476 29.5815 77.3493 29.3252 77.4792 28.9971C77.6159 28.6621 77.6842 28.2725 77.6842 27.8281C77.6842 27.3564 77.6227 26.9531 77.4997 26.6182C77.3835 26.2764 77.1955 26.0166 76.9357 25.8389C76.6828 25.6543 76.3512 25.562 75.9411 25.562H74.1569V38H71.1525V23.0703ZM77.9303 38L75.1926 31.3452L78.3405 31.335L81.1398 37.8564V38H77.9303ZM94.2722 35.5186V38H87.7815V35.5186H94.2722ZM88.7146 23.0703V38H85.7102V23.0703H88.7146ZM93.4006 29.1201V31.5298H87.7815V29.1201H93.4006ZM94.2517 23.0703V25.562H87.7815V23.0703H94.2517ZM32.3193 57.5186V60H26.1157V57.5186H32.3193ZM27.0386 45.0703V60H24.0342V45.0703H27.0386ZM46.836 51.3765V53.8682C46.836 54.9209 46.7061 55.8438 46.4463 56.6367C46.1934 57.4229 45.8311 58.0825 45.3594 58.6157C44.8946 59.1421 44.3306 59.5386 43.6675 59.8052C43.0113 60.0718 42.2833 60.2051 41.4835 60.2051C40.6836 60.2051 39.9522 60.0718 39.2891 59.8052C38.6329 59.5386 38.0655 59.1421 37.587 58.6157C37.1153 58.0825 36.7496 57.4229 36.4898 56.6367C36.23 55.8438 36.1002 54.9209 36.1002 53.8682V51.3765C36.1002 50.2964 36.2266 49.353 36.4795 48.5464C36.7325 47.7329 37.0982 47.0562 37.5767 46.5161C38.0552 45.9692 38.6226 45.5591 39.2789 45.2856C39.9351 45.0054 40.6631 44.8652 41.4629 44.8652C42.2627 44.8652 42.9908 45.0054 43.647 45.2856C44.3033 45.5591 44.8707 45.9692 45.3492 46.5161C45.8277 47.0562 46.1934 47.7329 46.4463 48.5464C46.7061 49.353 46.836 50.2964 46.836 51.3765ZM43.8521 53.8682V51.356C43.8521 50.645 43.8008 50.04 43.6983 49.541C43.5958 49.0352 43.4419 48.6216 43.2369 48.3003C43.0318 47.979 42.7823 47.7432 42.4883 47.5928C42.1944 47.4424 41.8526 47.3672 41.4629 47.3672C41.0733 47.3672 40.7281 47.4424 40.4273 47.5928C40.1334 47.7432 39.8838 47.979 39.6788 48.3003C39.4805 48.6216 39.3301 49.0352 39.2276 49.541C39.1319 50.04 39.084 50.645 39.084 51.356V53.8682C39.084 54.5518 39.1353 55.1362 39.2378 55.6216C39.3404 56.1069 39.4942 56.5034 39.6993 56.811C39.9044 57.1187 40.1539 57.3477 40.4478 57.498C40.7486 57.6416 41.0938 57.7134 41.4835 57.7134C41.8663 57.7134 42.2046 57.6416 42.4986 57.498C42.7994 57.3477 43.0489 57.1187 43.2471 56.811C43.4454 56.5034 43.5958 56.1069 43.6983 55.6216C43.8008 55.1362 43.8521 54.5518 43.8521 53.8682ZM55.0773 45.0703V60H52.0934V45.0703H55.0773ZM66.8971 56.0728C66.8971 55.8062 66.8732 55.5635 66.8254 55.3447C66.7775 55.126 66.675 54.9243 66.5177 54.7397C66.3674 54.5552 66.1452 54.3706 65.8512 54.186C65.5641 54.0015 65.1882 53.8101 64.7233 53.6118C64.1696 53.3794 63.633 53.1333 63.1135 52.8735C62.5939 52.6069 62.1257 52.2993 61.7087 51.9507C61.2917 51.6021 60.9601 51.1919 60.714 50.7202C60.4748 50.2417 60.3552 49.6812 60.3552 49.0386C60.3552 48.4097 60.4679 47.8389 60.6935 47.3262C60.926 46.8135 61.2541 46.376 61.6779 46.0137C62.1017 45.6445 62.5973 45.3608 63.1647 45.1626C63.7389 44.9644 64.3781 44.8652 65.0822 44.8652C66.0392 44.8652 66.8664 45.0635 67.5636 45.46C68.2677 45.8564 68.8112 46.3999 69.194 47.0903C69.5837 47.7808 69.7785 48.5737 69.7785 49.4692H66.7844C66.7844 49.0454 66.7228 48.6729 66.5998 48.3516C66.4836 48.0234 66.2956 47.7671 66.0358 47.5825C65.7761 47.3979 65.4411 47.3057 65.0309 47.3057C64.6481 47.3057 64.3302 47.3843 64.0773 47.5415C63.8312 47.6919 63.6467 47.9004 63.5236 48.167C63.4074 48.4268 63.3493 48.7207 63.3493 49.0488C63.3493 49.2949 63.4074 49.5171 63.5236 49.7153C63.6467 49.9067 63.8141 50.0811 64.0261 50.2383C64.238 50.3887 64.4875 50.5356 64.7746 50.6792C65.0685 50.8228 65.3898 50.9629 65.7385 51.0996C66.4152 51.3662 67.0134 51.6602 67.5329 51.9814C68.0524 52.2959 68.4865 52.6514 68.8351 53.0479C69.1838 53.4375 69.4469 53.8784 69.6247 54.3706C69.8024 54.8628 69.8913 55.4233 69.8913 56.0522C69.8913 56.6743 69.7819 57.2417 69.5632 57.7544C69.3512 58.2603 69.0402 58.6978 68.6301 59.0669C68.2199 59.4292 67.7243 59.7095 67.1432 59.9077C66.569 60.106 65.9264 60.2051 65.2155 60.2051C64.5251 60.2051 63.8722 60.1094 63.257 59.918C62.6418 59.7197 62.0983 59.4224 61.6266 59.0259C61.1618 58.6226 60.7961 58.1133 60.5295 57.498C60.2629 56.876 60.1296 56.1411 60.1296 55.2935H63.134C63.134 55.7446 63.1784 56.1309 63.2673 56.4521C63.3561 56.7666 63.4928 57.0195 63.6774 57.2109C63.862 57.3955 64.0876 57.5356 64.3542 57.6313C64.6276 57.7202 64.9386 57.7646 65.2873 57.7646C65.6838 57.7646 65.9982 57.6895 66.2306 57.5391C66.4699 57.3887 66.6408 57.187 66.7433 56.9341C66.8459 56.6812 66.8971 56.394 66.8971 56.0728ZM77.9787 45.0703V60H74.9949V45.0703H77.9787ZM83.4925 45.0703H88.2811C89.2791 45.0703 90.1302 45.2412 90.8343 45.583C91.5384 45.9248 92.0784 46.4307 92.4544 47.1006C92.8304 47.7705 93.0184 48.5977 93.0184 49.582C93.0184 50.3887 92.909 51.0791 92.6902 51.6533C92.4715 52.2207 92.1604 52.6958 91.7571 53.0786C91.3538 53.4546 90.8719 53.7554 90.3113 53.981L89.3987 54.5244H85.5125L85.5022 52.0327H88.199C88.6092 52.0327 88.9476 51.9438 89.2142 51.7661C89.4876 51.5815 89.6893 51.3252 89.8191 50.9971C89.9559 50.6621 90.0242 50.2725 90.0242 49.8281C90.0242 49.3564 89.9627 48.9531 89.8396 48.6182C89.7234 48.2764 89.5354 48.0166 89.2757 47.8389C89.0228 47.6543 88.6912 47.562 88.2811 47.562H86.4969V60H83.4925V45.0703ZM90.2703 60L87.5325 53.3452L90.6805 53.335L93.4798 59.8564V60H90.2703ZM104.367 56.0728C104.367 55.8062 104.343 55.5635 104.295 55.3447C104.247 55.126 104.144 54.9243 103.987 54.7397C103.837 54.5552 103.615 54.3706 103.321 54.186C103.034 54.0015 102.658 53.8101 102.193 53.6118C101.639 53.3794 101.102 53.1333 100.583 52.8735C100.063 52.6069 99.5951 52.2993 99.1781 51.9507C98.7611 51.6021 98.4296 51.1919 98.1835 50.7202C97.9442 50.2417 97.8246 49.6812 97.8246 49.0386C97.8246 48.4097 97.9374 47.8389 98.1629 47.3262C98.3954 46.8135 98.7235 46.376 99.1473 46.0137C99.5712 45.6445 100.067 45.3608 100.634 45.1626C101.208 44.9644 101.848 44.8652 102.552 44.8652C103.509 44.8652 104.336 45.0635 105.033 45.46C105.737 45.8564 106.281 46.3999 106.663 47.0903C107.053 47.7808 107.248 48.5737 107.248 49.4692H104.254C104.254 49.0454 104.192 48.6729 104.069 48.3516C103.953 48.0234 103.765 47.7671 103.505 47.5825C103.245 47.3979 102.911 47.3057 102.5 47.3057C102.118 47.3057 101.8 47.3843 101.547 47.5415C101.301 47.6919 101.116 47.9004 100.993 48.167C100.877 48.4268 100.819 48.7207 100.819 49.0488C100.819 49.2949 100.877 49.5171 100.993 49.7153C101.116 49.9067 101.284 50.0811 101.495 50.2383C101.707 50.3887 101.957 50.5356 102.244 50.6792C102.538 50.8228 102.859 50.9629 103.208 51.0996C103.885 51.3662 104.483 51.6602 105.002 51.9814C105.522 52.2959 105.956 52.6514 106.305 53.0479C106.653 53.4375 106.916 53.8784 107.094 54.3706C107.272 54.8628 107.361 55.4233 107.361 56.0522C107.361 56.6743 107.251 57.2417 107.033 57.7544C106.821 58.2603 106.51 58.6978 106.099 59.0669C105.689 59.4292 105.194 59.7095 104.613 59.9077C104.038 60.106 103.396 60.2051 102.685 60.2051C101.994 60.2051 101.342 60.1094 100.726 59.918C100.111 59.7197 99.5677 59.4224 99.0961 59.0259C98.6312 58.6226 98.2655 58.1133 97.9989 57.498C97.7323 56.876 97.599 56.1411 97.599 55.2935H100.603C100.603 55.7446 100.648 56.1309 100.737 56.4521C100.826 56.7666 100.962 57.0195 101.147 57.2109C101.331 57.3955 101.557 57.5356 101.824 57.6313C102.097 57.7202 102.408 57.7646 102.757 57.7646C103.153 57.7646 103.468 57.6895 103.7 57.5391C103.939 57.3887 104.11 57.187 104.213 56.9341C104.315 56.6812 104.367 56.394 104.367 56.0728Z" fill="white"/>
<path d="M3.08093 52.0225L5.50085 50.1665C5.85632 49.8794 6.07849 49.6094 6.16736 49.3564C6.25623 49.0967 6.30066 48.8164 6.30066 48.5156C6.30066 48.208 6.21179 47.9209 6.03406 47.6543C5.85632 47.3809 5.61365 47.2441 5.30603 47.2441C5.08044 47.2441 4.89246 47.3125 4.74207 47.4492C4.59851 47.5859 4.48914 47.7671 4.41394 47.9927C4.34558 48.2183 4.3114 48.4712 4.3114 48.7515C4.3114 49.0522 4.38318 49.3599 4.52673 49.6743C4.67029 49.9888 4.86169 50.3237 5.10095 50.6792C5.34705 51.0278 5.61023 51.4072 5.8905 51.8174L11.7352 60H8.47449L3.80896 53.3862C3.40564 52.7847 3.04675 52.2344 2.7323 51.7354C2.42468 51.2295 2.18201 50.7373 2.00427 50.2588C1.83337 49.7803 1.74792 49.2881 1.74792 48.7822C1.74792 48.0029 1.8949 47.3193 2.18884 46.7314C2.48962 46.1367 2.90662 45.6753 3.43982 45.3472C3.97302 45.019 4.59851 44.855 5.31628 44.855C5.98621 44.855 6.5741 45.0156 7.07996 45.3369C7.58582 45.6582 7.97546 46.082 8.2489 46.6084C8.52917 47.1279 8.66931 47.7021 8.66931 48.3311C8.66931 48.8027 8.60095 49.2334 8.46423 49.623C8.32751 50.0127 8.13269 50.375 7.87976 50.71C7.63367 51.0449 7.33289 51.3525 6.97742 51.6328L4.10632 53.9707C3.96277 54.1895 3.85339 54.4082 3.7782 54.627C3.703 54.8389 3.64832 55.0439 3.61414 55.2422C3.58679 55.4336 3.57312 55.6216 3.57312 55.8062C3.57312 56.189 3.63806 56.5376 3.76794 56.8521C3.89783 57.1597 4.06873 57.3989 4.28064 57.5698C4.49255 57.7407 4.73523 57.8262 5.00867 57.8262C5.44617 57.8262 5.87341 57.7031 6.29041 57.457C6.7074 57.2109 7.08337 56.8589 7.41833 56.4009C7.7533 55.9429 8.01648 55.3994 8.20789 54.7705C8.40613 54.1348 8.50525 53.4375 8.50525 52.6787H10.9354C10.9354 53.4512 10.8705 54.186 10.7406 54.8833C10.6107 55.5806 10.3954 56.2231 10.0946 56.811C9.79382 57.3989 9.3905 57.9219 8.88464 58.3799C8.85046 58.4072 8.79578 58.4551 8.72058 58.5234C8.65222 58.5918 8.59753 58.6431 8.55652 58.6772C8.00281 59.1968 7.42517 59.583 6.82361 59.8359C6.22888 60.0889 5.57605 60.2153 4.86511 60.2153C4.00378 60.2153 3.26208 60.0342 2.64001 59.6719C2.01794 59.3096 1.53601 58.8105 1.19421 58.1748C0.859253 57.5322 0.691772 56.8008 0.691772 55.9805C0.691772 55.3789 0.790894 54.856 0.989136 54.4116C1.19421 53.9604 1.47449 53.5469 1.82996 53.1709C2.19226 52.7949 2.60925 52.4121 3.08093 52.0225Z" fill="#DAC590"/>
</svg>
