<svg width="55" height="49" viewBox="0 0 55 49" fill="none" xmlns="http://www.w3.org/2000/svg">
<g clip-path="url(#clip0_1_536)">
<path d="M53.3887 49H11.2793C10.8519 49 10.4421 48.8279 10.1399 48.5216C9.83773 48.2153 9.66797 47.7999 9.66797 47.3667V40.8333C9.66797 40.4001 9.83773 39.9847 10.1399 39.6784C10.4421 39.3721 10.8519 39.2 11.2793 39.2C11.7066 39.2 12.1165 39.3721 12.4187 39.6784C12.7208 39.9847 12.8906 40.4001 12.8906 40.8333V45.7333H51.7774V16.3333H11.2793C10.8519 16.3333 10.4421 16.1612 10.1399 15.8549C9.83773 15.5486 9.66797 15.1332 9.66797 14.7V4.9C9.66797 4.46681 9.83773 4.05136 10.1399 3.74505C10.4421 3.43875 10.8519 3.26666 11.2793 3.26666H53.3887C53.8161 3.26666 54.2259 3.43875 54.5281 3.74505C54.8303 4.05136 55 4.46681 55 4.9V47.3667C55 47.7999 54.8303 48.2153 54.5281 48.5216C54.2259 48.8279 53.8161 49 53.3887 49ZM12.8906 13.0667H51.7774V6.53333H12.8906V13.0667Z" fill="white"/>
<path d="M21.0543 9.8C20.627 9.8 20.2171 9.62792 19.9149 9.32161C19.6128 9.0153 19.443 8.59985 19.443 8.16667V1.63333C19.443 1.20015 19.6128 0.784702 19.9149 0.478392C20.2171 0.172083 20.627 0 21.0543 0C21.4817 0 21.8915 0.172083 22.1937 0.478392C22.4959 0.784702 22.6656 1.20015 22.6656 1.63333V8.16667C22.6656 8.59985 22.4959 9.0153 22.1937 9.32161C21.8915 9.62792 21.4817 9.8 21.0543 9.8Z" fill="white"/>
<path d="M43.7208 9.8C43.2935 9.8 42.8836 9.62792 42.5814 9.32161C42.2793 9.0153 42.1095 8.59985 42.1095 8.16667V1.63333C42.1095 1.20015 42.2793 0.784702 42.5814 0.478392C42.8836 0.172083 43.2935 0 43.7208 0C44.1482 0 44.558 0.172083 44.8602 0.478392C45.1624 0.784702 45.3321 1.20015 45.3321 1.63333V8.16667C45.3321 8.59985 45.1624 9.0153 44.8602 9.32161C44.558 9.62792 44.1482 9.8 43.7208 9.8Z" fill="white"/>
<path d="M32.3336 9.8C31.9063 9.8 31.4964 9.62792 31.1942 9.32161C30.8921 9.0153 30.7223 8.59985 30.7223 8.16667V1.63333C30.7223 1.20015 30.8921 0.784702 31.1942 0.478392C31.4964 0.172083 31.9063 0 32.3336 0C32.761 0 33.1708 0.172083 33.473 0.478392C33.7752 0.784702 33.9449 1.20015 33.9449 1.63333V8.16667C33.9449 8.59985 33.7752 9.0153 33.473 9.32161C33.1708 9.62792 32.761 9.8 32.3336 9.8Z" fill="white"/>
<path d="M43.7208 42.4667H1.61137C1.28091 42.4659 0.958663 42.3622 0.688315 42.1695C0.417967 41.9769 0.212591 41.7046 0.100024 41.3897C-0.0125423 41.0747 -0.0268557 40.7323 0.0590243 40.4089C0.144904 40.0854 0.326824 39.7965 0.580126 39.5814C0.598656 39.565 2.87948 37.5887 5.12727 33.5519C6.47458 31.1114 7.52246 28.5131 8.24759 25.8148C9.19022 22.3497 9.66797 18.6077 9.66797 14.7C9.66797 14.2668 9.83774 13.8514 10.1399 13.545C10.4421 13.2387 10.8519 13.0667 11.2793 13.0667C11.7066 13.0667 12.1165 13.2387 12.4187 13.545C12.7208 13.8514 12.8906 14.2668 12.8906 14.7C12.8906 18.9467 12.3621 23.0185 11.3204 26.8022C10.5119 29.7741 9.34424 32.6334 7.84396 35.3151C7.0829 36.6719 6.22472 37.9704 5.27632 39.2H43.0892C43.8425 38.4503 45.5489 36.5809 47.2367 33.5495C48.5833 31.109 49.6301 28.5106 50.3538 25.8124C51.2964 22.3464 51.775 18.6077 51.775 14.7C51.775 14.2668 51.9448 13.8514 52.2469 13.545C52.5491 13.2387 52.959 13.0667 53.3863 13.0667C53.8137 13.0667 54.2235 13.2387 54.5257 13.545C54.8279 13.8514 54.9976 14.2668 54.9976 14.7C54.9976 18.9467 54.4691 23.0185 53.4274 26.8022C52.6189 29.7741 51.4513 32.6334 49.951 35.3151C47.4188 39.8068 44.8576 41.9971 44.7496 42.0885C44.4607 42.3324 44.0968 42.4661 43.7208 42.4667Z" fill="white"/>
<path d="M36.0587 35.8732L31.6147 23.8425C31.6145 23.8419 31.6139 23.8415 31.6137 23.8409C31.5586 23.639 31.4642 23.4594 31.3171 23.3122C30.4982 22.4934 28.7431 23.1841 27.0683 24.4381C26.4584 23.0943 25.9144 21.2744 26.6878 20.0713C26.7936 19.9067 26.7459 19.6876 26.5816 19.5821C26.4171 19.4757 26.1979 19.5237 26.0925 19.6883C25.1127 21.2123 25.7939 23.3919 26.4958 24.8931C26.1582 25.1749 25.8279 25.4736 25.5159 25.7857C25.4089 25.8927 25.3057 26.0012 25.2031 26.1098C23.0191 24.0784 20.7585 24.6597 20.6477 24.6899C20.4597 24.742 20.3501 24.936 20.4012 25.124C20.4524 25.3118 20.646 25.4231 20.8351 25.3726C20.9297 25.347 22.8356 24.875 24.7279 26.636C24.0297 27.449 23.4688 28.2819 23.1112 29.0488C22.4257 30.5176 22.6956 31.2395 23.0427 31.5866C23.1887 31.7325 23.3673 31.8252 23.5669 31.8806C23.5691 31.8815 23.5705 31.8834 23.5727 31.8842L35.6037 36.3282C35.6438 36.3427 35.6853 36.35 35.7264 36.35C35.8187 36.35 35.9093 36.314 35.9767 36.2462C36.0745 36.1484 36.1064 36.0029 36.0587 35.8732ZM28.9645 33.1208C29.6775 32.6493 30.4025 32.0531 31.093 31.3625C31.7839 30.6716 32.3802 29.9467 32.8512 29.234L33.8623 31.9709C33.5505 32.3583 33.2113 32.7417 32.8419 33.1114C32.474 33.4796 32.0904 33.8186 31.7015 34.1318L28.9645 33.1208ZM25.1296 31.7042C26.3057 31.2655 27.6914 30.2653 28.8436 29.1131C29.9968 27.9597 30.9956 26.5731 31.4336 25.3964L32.5395 28.3902C32.0656 29.204 31.3995 30.0549 30.5925 30.862C29.7862 31.6682 28.9354 32.3346 28.1207 32.8091L25.1296 31.7042ZM23.7524 29.3481C24.0768 28.6535 24.5863 27.8955 25.2219 27.1486C25.3891 27.3422 25.5553 27.5489 25.7184 27.7839C25.7873 27.8831 25.8975 27.936 26.0095 27.936C26.079 27.936 26.1495 27.9156 26.2111 27.8727C26.3718 27.761 26.4116 27.5405 26.2999 27.3801C26.1024 27.0956 25.9001 26.8487 25.6963 26.6178C25.8008 26.5067 25.9068 26.3959 26.0164 26.2863C26.2888 26.0139 26.5564 25.7716 26.8207 25.5438C27.1379 26.1397 27.4022 26.5367 27.4373 26.5888C27.5057 26.6901 27.6174 26.7447 27.7311 26.7447C27.7992 26.7447 27.868 26.725 27.9288 26.6842C28.091 26.5746 28.1335 26.3547 28.0243 26.1926C28.0153 26.1794 27.7226 25.738 27.3819 25.0824C28.6384 24.116 29.7264 23.6673 30.3536 23.6673C30.5624 23.6673 30.7204 23.7167 30.8165 23.8128C31.3018 24.2985 30.5959 26.3592 28.343 28.6125C26.0897 30.8654 24.0297 31.5717 23.5433 31.086C23.2902 30.8329 23.3704 30.1671 23.7524 29.3481ZM32.4673 34.4147C32.7647 34.1604 33.0588 33.8959 33.3425 33.612C33.6272 33.3273 33.8915 33.0334 34.1451 32.7367L35.128 35.3975L32.4673 34.4147Z" fill="white"/>
<path d="M24.2873 22.9471C24.5445 22.6899 24.6859 22.348 24.6859 21.9847C24.6859 21.621 24.5445 21.2791 24.2873 21.0223C23.7725 20.5075 22.8758 20.5082 22.3625 21.0223C22.1052 21.2791 21.9639 21.621 21.9639 21.9847C21.9639 22.348 22.1052 22.6899 22.3625 22.9471C22.6193 23.2043 22.9612 23.3457 23.3249 23.3457C23.6882 23.3457 24.0301 23.2043 24.2873 22.9471ZM22.863 22.4466C22.7396 22.3231 22.6719 22.1589 22.6719 21.9847C22.6719 21.8101 22.7396 21.6463 22.863 21.5228C22.9864 21.3994 23.1503 21.3317 23.3249 21.3317C23.4991 21.3317 23.6633 21.3994 23.7867 21.5228C23.9102 21.6463 23.9779 21.8101 23.9779 21.9847C23.9779 22.1589 23.9102 22.3231 23.7867 22.4466C23.5396 22.6937 23.1099 22.693 22.863 22.4466Z" fill="white"/>
<path d="M29.9409 19.2617L29.2356 19.3242L28.7845 18.7784C28.6988 18.6747 28.5612 18.6283 28.4302 18.6598C28.2991 18.6906 28.1968 18.7936 28.1668 18.925L28.0084 19.615L27.3499 19.8756C27.2247 19.9251 27.1383 20.0416 27.1272 20.176C27.1165 20.3102 27.1825 20.4391 27.2983 20.5083L27.9054 20.8723L27.9496 21.5785C27.9579 21.713 28.0423 21.8313 28.1664 21.8831C28.2106 21.9014 28.257 21.9104 28.303 21.9104C28.3869 21.9104 28.4699 21.8807 28.5353 21.8233L29.0694 21.3587L29.7549 21.5346C29.8856 21.5664 30.0235 21.5246 30.1116 21.4223C30.1994 21.3203 30.2216 21.1772 30.1687 21.0531L29.8914 20.4014L30.2707 19.8041C30.3429 19.6903 30.3443 19.5455 30.2745 19.4304C30.2046 19.3153 30.0743 19.2506 29.9409 19.2617ZM29.1672 20.5076L29.2363 20.6704L29.0652 20.6265C28.9511 20.5985 28.8322 20.6261 28.7447 20.7026L28.6113 20.8184L28.6002 20.642C28.593 20.5255 28.5287 20.4205 28.4288 20.3606L28.2777 20.2697L28.4419 20.2047C28.5501 20.1619 28.6307 20.0685 28.6566 19.9548L28.696 19.7826L28.8087 19.9188C28.883 20.0084 28.9988 20.0578 29.1126 20.0457L29.2885 20.0302L29.1942 20.1792C29.1316 20.2777 29.1216 20.4004 29.1672 20.5076Z" fill="white"/>
<path d="M22.0678 27.212C21.9976 27.0969 21.869 27.0319 21.7342 27.0433L21.029 27.1059L20.5779 26.56C20.4921 26.4567 20.3545 26.4097 20.2235 26.4414C20.0925 26.4722 19.9902 26.5752 19.9601 26.7066L19.8018 27.3963L19.1432 27.6569C19.0181 27.7064 18.9316 27.8229 18.9206 27.9573C18.9099 28.0915 18.9759 28.2204 19.0913 28.2896L19.6988 28.6536L19.743 29.3602C19.7513 29.4947 19.8356 29.6129 19.9597 29.6648C20.004 29.6831 20.0503 29.6921 20.0963 29.6921C20.1803 29.6921 20.2633 29.662 20.329 29.605L20.8627 29.14L21.5482 29.3159C21.6793 29.3498 21.8172 29.3063 21.905 29.2036C21.9928 29.1016 22.0149 28.9581 21.962 28.8344L21.6848 28.1831L22.064 27.5857C22.1363 27.472 22.1377 27.3271 22.0678 27.212ZM20.9605 28.2892L21.0297 28.4517L20.8586 28.4078C20.7448 28.3798 20.6259 28.4075 20.5378 28.4839L20.4047 28.6L20.3936 28.4237C20.3863 28.3076 20.3224 28.2021 20.2225 28.1423L20.0707 28.0514L20.2353 27.986C20.3435 27.9432 20.424 27.8498 20.4499 27.7361L20.4894 27.5643L20.602 27.7005C20.676 27.7904 20.7912 27.8398 20.9059 27.8274L21.0819 27.8118L20.9875 27.9608C20.9249 28.0593 20.9149 28.1821 20.9605 28.2892Z" fill="white"/>
</g>
<defs>
<clipPath id="clip0_1_536">
<rect width="55" height="49" fill="white"/>
</clipPath>
</defs>
</svg>
