<svg width="55" height="65" viewBox="0 0 55 65" fill="none" xmlns="http://www.w3.org/2000/svg">
<path d="M13.5 3.75L13.1992 3.76562C12.5033 3.83543 11.8487 4.1382 11.3486 4.62891C10.7769 5.19003 10.4535 5.9516 10.4512 6.74707V11.3047H5.80078C4.99435 11.3064 4.22043 11.6211 3.64844 12.1816C3.07615 12.7427 2.75229 13.505 2.75 14.3008V47.2656C2.75004 48.0664 2.99248 49.0004 3.37207 49.8604C3.70424 50.6127 4.1496 51.328 4.65332 51.8613L4.87305 52.0781L12.6943 59.3008C13.2843 59.8462 14.1394 60.3312 15.0352 60.6797C15.9309 61.0282 16.8917 61.2499 17.7012 61.25H41.501C42.3064 61.2465 43.0789 60.9306 43.6494 60.3701C44.2201 59.8093 44.5426 59.0484 44.5449 58.2539V53.6963H49.2012C50.0075 53.6937 50.781 53.3782 51.3525 52.8174C51.9242 52.2563 52.2477 51.4947 52.25 50.6992V6.74707L52.2344 6.4502C52.1634 5.76402 51.8536 5.11985 51.3535 4.62891C50.7819 4.06786 50.0077 3.75224 49.2012 3.75H13.5ZM41.5869 13.874C41.674 13.892 41.7543 13.9343 41.8174 13.9961C41.9016 14.0787 41.9487 14.1899 41.9502 14.3047V58.2471L41.9414 58.332C41.9236 58.4152 41.8804 58.4929 41.8174 58.5547C41.7332 58.6369 41.6188 58.6841 41.498 58.6855H17.7012C17.5509 58.6817 17.4013 58.6675 17.2529 58.6445V51.7285L17.2471 51.5283C17.1948 50.5325 16.7685 49.589 16.0479 48.8818C15.2792 48.1278 14.2383 47.7035 13.1533 47.7012H5.39941C5.37304 47.5574 5.3571 47.4118 5.35254 47.2656L5.35156 14.3047C5.35327 14.1901 5.40034 14.0796 5.48438 13.9971C5.54767 13.935 5.62836 13.8921 5.71582 13.874L5.80469 13.8643H41.4971L41.5869 13.874ZM13.2998 50.2695C13.6441 50.3041 13.9671 50.4542 14.2129 50.6953C14.4933 50.9706 14.6508 51.3424 14.6523 51.7295V57.5791C14.591 57.532 14.5307 57.4837 14.4727 57.4326L6.70605 50.2617H13.1514L13.2998 50.2695ZM49.2871 6.32031C49.3744 6.33834 49.4544 6.38136 49.5176 6.44336C49.6017 6.52595 49.6489 6.63625 49.6504 6.75098V50.6953L49.6416 50.7803C49.6237 50.8636 49.5807 50.941 49.5176 51.0029C49.4332 51.0857 49.3185 51.134 49.1973 51.1357H44.5449V14.3008L44.5293 14.0049C44.4583 13.3192 44.1489 12.6754 43.6494 12.1846C43.0789 11.6241 42.3064 11.3082 41.501 11.3047H13.0508V6.75098L13.0605 6.66602C13.0783 6.58269 13.1205 6.50529 13.1836 6.44336C13.247 6.38119 13.3274 6.33826 13.415 6.32031L13.5039 6.31055H49.1973L49.2871 6.32031Z" fill="white" stroke="white" stroke-width="0.5" stroke-linejoin="round"/>
<path d="M13.0778 21H33.9222C34.208 21 34.4822 21.1054 34.6843 21.2929C34.8864 21.4804 35 21.7348 35 22C35 22.2652 34.8864 22.5196 34.6843 22.7071C34.4822 22.8946 34.208 23 33.9222 23H13.0778C12.792 23 12.5178 22.8946 12.3157 22.7071C12.1136 22.5196 12 22.2652 12 22C12 21.7348 12.1136 21.4804 12.3157 21.2929C12.5178 21.1054 12.792 21 13.0778 21Z" fill="white"/>
<path d="M13.0466 35H33.9534C34.2341 35.0085 34.5002 35.1176 34.6955 35.3042C34.8908 35.4908 35 35.7403 35 36C35 36.2597 34.8908 36.5092 34.6955 36.6958C34.5002 36.8824 34.2341 36.9915 33.9534 37H13.0466C12.7659 36.9915 12.4998 36.8824 12.3045 36.6958C12.1092 36.5092 12 36.2597 12 36C12 35.7403 12.1092 35.4908 12.3045 35.3042C12.4998 35.1176 12.7659 35.0085 13.0466 35Z" fill="white"/>
<path d="M23.026 42H33.974C34.2461 42 34.5071 42.1054 34.6995 42.2929C34.8919 42.4804 35 42.7348 35 43C35 43.2652 34.8919 43.5196 34.6995 43.7071C34.5071 43.8946 34.2461 44 33.974 44H23.026C22.7539 44 22.4929 43.8946 22.3005 43.7071C22.1081 43.5196 22 43.2652 22 43C22 42.7348 22.1081 42.4804 22.3005 42.2929C22.4929 42.1054 22.7539 42 23.026 42Z" fill="white"/>
<path d="M13.0466 28H33.9534C34.2341 28.0085 34.5002 28.1176 34.6955 28.3042C34.8908 28.4908 35 28.7403 35 29C35 29.2597 34.8908 29.5092 34.6955 29.6958C34.5002 29.8824 34.2341 29.9915 33.9534 30H13.0466C12.7659 29.9915 12.4998 29.8824 12.3045 29.6958C12.1092 29.5092 12 29.2597 12 29C12 28.7403 12.1092 28.4908 12.3045 28.3042C12.4998 28.1176 12.7659 28.0085 13.0466 28Z" fill="white"/>
</svg>
