<svg width="70" height="68" viewBox="0 0 70 68" fill="none" xmlns="http://www.w3.org/2000/svg">
<g clip-path="url(#clip0_1_579)">
<path d="M62.708 11.0833C66.8582 11.0833 70.2499 14.3672 70.25 18.4163V49.5833C70.25 53.6325 66.8583 56.9163 62.708 56.9163H7.29199C3.14168 56.9163 -0.25 53.6325 -0.25 49.5833V18.4163L-0.240234 18.0394C-0.0373589 14.1654 3.2714 11.0833 7.29199 11.0833H62.708ZM7.29199 14.4163C5.0112 14.4163 3.16722 16.2182 3.16699 18.4163V49.5833C3.16699 51.7817 5.01105 53.5833 7.29199 53.5833H62.708C64.9889 53.5833 66.833 51.7817 66.833 49.5833V18.4163C66.8328 16.2182 64.9888 14.4163 62.708 14.4163H7.29199Z" fill="white" stroke="white" stroke-width="0.5"/>
<path d="M68.5416 19.8333H1.45838C0.653379 19.8333 0 20.468 0 21.25V29.75C0 30.532 0.653379 31.1667 1.45838 31.1667H68.5418C69.3468 31.1667 70.0001 30.532 70.0001 29.75V21.25C70 20.468 69.3466 19.8333 68.5416 19.8333ZM67.0834 28.3332H2.91662V22.6665H67.0832V28.3332H67.0834Z" fill="white"/>
<path d="M27.7084 39.6667H10.2084C9.40338 39.6667 8.75 40.3014 8.75 41.0834C8.75 41.8654 9.40338 42.5 10.2084 42.5H27.7084C28.5134 42.5 29.1668 41.8653 29.1668 41.0833C29.1668 40.3013 28.5134 39.6667 27.7084 39.6667Z" fill="white"/>
<path d="M27.7084 45.3333H10.2084C9.40338 45.3333 8.75 45.968 8.75 46.75C8.75 47.532 9.40338 48.1667 10.2084 48.1667H27.7084C28.5134 48.1667 29.1668 47.532 29.1668 46.75C29.1666 45.968 28.5134 45.3333 27.7084 45.3333Z" fill="white"/>
<path d="M56.875 36.8333H53.9584C51.5462 36.8333 49.5834 38.7401 49.5834 41.0833V43.9166C49.5834 46.2598 51.5462 48.1666 53.9584 48.1666H56.875C59.2871 48.1666 61.25 46.2598 61.25 43.9166V41.0833C61.25 38.7402 59.2871 36.8333 56.875 36.8333ZM58.3334 43.9167C58.3334 44.6987 57.68 45.3334 56.875 45.3334H53.9584C53.1534 45.3334 52.5 44.6987 52.5 43.9167V41.0834C52.5 40.3014 53.1534 39.6667 53.9584 39.6667H56.875C57.68 39.6667 58.3334 40.3014 58.3334 41.0834V43.9167Z" fill="white"/>
</g>
<defs>
<clipPath id="clip0_1_579">
<rect width="70" height="68" fill="white"/>
</clipPath>
</defs>
</svg>
