<svg width="163" height="75" viewBox="0 0 163 75" fill="none" xmlns="http://www.w3.org/2000/svg">
<path d="M18.7866 35.2124H7.4707V46.5503H20.6543V50H3.44971V18.0078H20.4346V21.4795H7.4707V31.7627H18.7866V35.2124ZM32.538 26.2256L32.6479 28.7964C34.1566 26.7896 36.0829 25.7861 38.4267 25.7861C42.6308 25.7861 44.7621 28.5913 44.8207 34.2017V50H40.9535V34.3774C40.9535 32.5171 40.6386 31.1987 40.0087 30.4224C39.3935 29.6313 38.4633 29.2358 37.2182 29.2358C36.2514 29.2358 35.3798 29.5581 34.6034 30.2026C33.8417 30.8472 33.2265 31.6895 32.7577 32.7295V50H28.8686V26.2256H32.538Z" fill="white"/>
<path d="M71.8672 7.10938V50H66.6816V13.877L57.7168 17.8613V12.9688L71.0762 7.10938H71.8672Z" fill="#DAC590"/>
<path d="M100.162 46.1216C101.451 46.1216 102.484 45.7261 103.26 44.9351C104.037 44.1294 104.461 42.9868 104.535 41.5073H108.204C108.116 43.7925 107.303 45.6895 105.765 47.1982C104.242 48.6924 102.374 49.4395 100.162 49.4395C97.2178 49.4395 94.9692 48.5166 93.4165 46.6709C91.8784 44.8105 91.1094 42.0493 91.1094 38.3872V35.7725C91.1094 32.1836 91.8784 29.459 93.4165 27.5986C94.9546 25.7236 97.1958 24.7861 100.14 24.7861C102.572 24.7861 104.498 25.5552 105.919 27.0933C107.354 28.6313 108.116 30.7334 108.204 33.3994H104.535C104.447 31.6416 104.022 30.3232 103.26 29.4443C102.513 28.5654 101.473 28.126 100.14 28.126C98.4116 28.126 97.1299 28.6973 96.2949 29.8398C95.46 30.9678 95.0278 32.8281 94.9985 35.4209V38.4531C94.9985 41.251 95.4087 43.2285 96.229 44.3857C97.064 45.543 98.375 46.1216 100.162 46.1216ZM120.483 49H116.594V15.25H120.483V49ZM134.41 49H130.521V25.2256H134.41V49ZM134.718 18.9194C134.718 19.5786 134.535 20.1279 134.169 20.5674C133.803 21.0068 133.246 21.2266 132.499 21.2266C131.766 21.2266 131.217 21.0068 130.851 20.5674C130.485 20.1279 130.302 19.5786 130.302 18.9194C130.302 18.2603 130.485 17.7036 130.851 17.2495C131.217 16.7954 131.766 16.5684 132.499 16.5684C133.231 16.5684 133.781 16.8027 134.147 17.2715C134.528 17.7256 134.718 18.2749 134.718 18.9194ZM152.403 46.1216C153.692 46.1216 154.724 45.7261 155.501 44.9351C156.277 44.1294 156.702 42.9868 156.775 41.5073H160.445C160.357 43.7925 159.544 45.6895 158.006 47.1982C156.482 48.6924 154.614 49.4395 152.403 49.4395C149.458 49.4395 147.21 48.5166 145.657 46.6709C144.119 44.8105 143.35 42.0493 143.35 38.3872V35.7725C143.35 32.1836 144.119 29.459 145.657 27.5986C147.195 25.7236 149.436 24.7861 152.381 24.7861C154.812 24.7861 156.738 25.5552 158.159 27.0933C159.595 28.6313 160.357 30.7334 160.445 33.3994H156.775C156.687 31.6416 156.262 30.3232 155.501 29.4443C154.754 28.5654 153.714 28.126 152.381 28.126C150.652 28.126 149.37 28.6973 148.535 29.8398C147.7 30.9678 147.268 32.8281 147.239 35.4209V38.4531C147.239 41.251 147.649 43.2285 148.469 44.3857C149.304 45.543 150.615 46.1216 152.403 46.1216Z" fill="white"/>
</svg>
