<svg width="338" height="234" viewBox="0 0 338 234" fill="none" xmlns="http://www.w3.org/2000/svg">
<path d="M199.399 56.7229C203.652 56.7229 207.1 53.2767 207.1 49.0257C207.1 44.7747 203.652 41.3286 199.399 41.3286C195.146 41.3286 191.698 44.7747 191.698 49.0257C191.698 53.2767 195.146 56.7229 199.399 56.7229Z" fill="white"/>
<path d="M39.41 192.933C40.2335 192.484 40.8885 191.773 41.5809 191.025C42.0394 190.52 42.5166 190.006 43.05 189.557C48.4959 185.021 57.0951 189.594 59.921 191.1C63.0837 189.641 67.1822 190.529 69.4653 193.157C70.0642 192.437 70.8876 191.914 71.8888 191.624C73.5451 191.137 75.5475 191.362 77.1101 192.213C79.6553 193.597 81.2367 196.075 82.7619 198.46C83.1736 199.106 83.5011 199.573 83.9596 199.807C85.045 200.368 86.224 199.489 87.768 198.189L88.2358 197.796C89.4242 196.824 91.3705 196.515 92.5776 197.104C92.9425 197.282 93.2139 197.534 93.401 197.834C96.6386 195.131 100.709 192.531 104.704 193.962C104.882 194.027 105.051 194.093 105.228 194.167C105.818 194.401 106.37 194.626 106.866 194.514C107.39 194.392 107.82 193.878 108.27 193.335C108.887 192.606 109.589 191.82 110.712 191.801C111.769 191.829 112.508 192.634 113.163 193.344C113.893 194.139 114.286 194.495 114.726 194.336C115.11 194.196 115.334 193.672 115.568 193.12L115.69 192.83C117.543 188.593 122.857 187.003 131.073 188.247C131.999 188.388 133.029 188.603 133.609 189.454C134.161 190.268 134.011 191.221 133.88 192.063C133.852 192.241 133.824 192.419 133.805 192.596C133.515 195.047 134.984 197.338 136.641 199.667C139.345 203.464 142.096 206.962 145.923 208.206C146.016 206.298 147.682 204.652 149.46 203.96C150.592 203.52 151.781 203.342 152.931 203.165C153.764 203.034 154.56 202.921 155.327 202.706C156.833 202.295 158.209 201.556 159.669 200.77C160.632 200.256 161.624 199.723 162.654 199.293C165.199 198.236 168.736 197.843 170.991 199.938C173.077 201.865 173.068 204.755 173.059 207.542C173.059 210.02 173.04 212.367 174.369 214.07C175.164 215.089 176.324 215.716 177.56 216.389C178.477 216.885 179.422 217.399 180.236 218.091C181.443 219.111 182.266 220.439 183.071 221.729C183.473 222.375 183.876 223.02 184.325 223.619C185.513 225.218 187.478 226.724 189.415 226.209C189.911 226.078 190.388 225.826 190.903 225.545C191.876 225.031 192.877 224.498 194.047 224.769C195.404 225.087 196.115 226.303 196.751 227.378C196.901 227.631 197.051 227.883 197.2 228.126C198.791 230.558 201.542 231.624 204.508 232.662C205.79 229.782 205.669 226.256 204.125 223.506C203.975 223.244 203.816 222.983 203.657 222.721C202.936 221.533 202.113 220.186 202.365 218.671C202.805 216.006 205.65 215.398 208.167 214.865C208.934 214.706 209.655 214.547 210.31 214.341C213.566 213.331 216.102 209.983 216.766 205.811C217.384 201.939 216.495 197.834 215.709 194.214C215.456 193.036 214.754 191.633 213.931 191.221C213.65 191.081 213.37 191.072 213.07 191.221L212.237 191.614V190.698C212.237 188.949 210.909 187.611 209.514 186.18C208.214 184.852 206.876 183.487 206.455 181.654C205.603 177.978 209.018 174.602 212.827 173.162C213.697 172.834 214.605 172.554 215.512 172.273C218.114 171.469 220.575 170.702 222.296 168.86C222.455 168.691 222.614 168.514 222.773 168.326C223.531 167.447 224.402 166.456 225.702 166.381C226.339 166.334 226.9 166.55 227.405 166.727C227.621 166.802 227.836 166.886 228.06 166.942C229.024 167.176 230.128 166.868 230.998 166.101C231.869 165.334 232.318 164.277 232.187 163.285L232.028 162.023L233.094 162.715C235.574 164.333 238.391 166.166 241.507 166.428C244.342 166.662 247.72 165.025 248.225 162.201C248.3 161.761 248.328 161.284 248.347 160.816C248.403 159.573 248.478 158.16 249.563 157.272C250.153 156.795 250.845 156.636 251.519 156.486C251.884 156.402 252.23 156.327 252.539 156.196C253.699 155.719 254.438 154.494 255.149 153.166C256.356 150.94 257.507 148.649 258.2 146.367C258.19 146.367 258.181 146.367 258.172 146.367L258.331 145.198C258.387 145.198 258.434 145.226 258.49 145.235C258.967 143.206 259.042 141.185 258.378 139.221L258.144 138.567C257.404 136.491 256.487 133.919 258.462 132.562C259.229 132.039 260.146 132.001 260.951 131.973L261.306 131.955C266.004 131.711 270.589 128.157 273.003 122.901C275.127 118.272 275.557 113.091 275.866 107.283L275.913 106.46L276.68 106.768C278.739 107.591 280.891 108.171 283.09 108.489C283.754 105.534 282.126 102.7 280.414 99.7164C278.917 97.1164 277.382 94.4229 277.27 91.4675C277.129 87.7358 279.225 84.5466 281.714 81.3761C279.693 80.656 278.421 78.0934 278.234 74.2682L277.363 56.7229C277.307 55.5725 277.232 54.1509 277.915 52.9258C278.336 52.1776 278.963 51.6351 279.572 51.1114C280.133 50.6344 280.657 50.1761 280.975 49.6056C281.808 48.0999 281.031 46.1545 280.077 44.284L274.126 32.6589C273.302 31.0409 272.367 29.2171 270.879 28.0574C269.999 27.3747 268.961 26.9351 267.856 26.4675C267.201 26.1869 266.528 25.9063 265.882 25.5603C260.708 22.8013 258.34 16.9186 256.394 11.0732C253.811 13.7387 251.135 16.3107 248.337 18.733C243.921 22.5581 237.951 27.2157 230.83 29.32C225.599 30.8725 220.097 30.966 214.782 31.0596C210.319 31.1344 205.697 31.2092 201.346 32.1819C192.241 34.202 184.213 40.1035 177.138 45.3222C166.546 53.1222 156.787 61.9042 157.152 73.2301C157.198 74.7265 157.591 78.3927 160.221 79.9826C161.362 80.6747 162.813 80.8898 164.216 81.0955L188.844 84.7617L179.3 85.6876C162.728 87.2963 147.083 92.3373 134.049 100.259L133.599 100.53L133.094 100.371C114.979 94.7876 96.3392 90.1768 77.709 86.679C74.3778 86.0524 71.3835 85.5848 68.5857 86.2394C66.1248 86.8099 63.2989 88.7272 62.9059 91.561C62.6814 93.1977 62.1386 95.2833 60.7912 95.9661C60.1643 96.284 59.4438 96.256 58.7701 95.8912L58.087 95.5171L58.1618 94.7502C58.2273 94.0114 57.694 93.3848 57.17 93.0481C56.646 92.7114 55.8506 92.4869 55.205 92.8517L53.4365 93.8711V91.8322C53.4365 81.6474 50.8726 71.5279 46.0256 62.5682L45.0618 60.7912L47.0829 60.8286C48.3555 60.8941 49.6187 60.3143 50.6574 59.3042C51.7802 58.2193 52.454 56.7042 52.4727 55.2732C52.5007 52.4114 50.2831 49.5963 47.3169 48.7358C43.0406 47.4919 38.5866 49.8955 34.2823 52.215L33.2624 52.7668C27.6481 55.7596 20.1342 57.6301 15.8861 53.8984C11.7034 50.2322 7.04352 47.2114 2 44.9107C4.22701 51.42 5.42473 58.2099 5.57445 65.1121C5.59316 66.0286 5.59316 66.9452 5.59316 67.8617C5.59316 71.6495 5.61187 75.2222 6.80959 78.5517C8.11024 82.1711 10.6741 85.0797 13.3877 88.166C14.6883 89.6531 16.0358 91.1776 17.2241 92.7956C24.2233 102.279 25.917 115.251 21.6688 126.231L29.4446 127.961L29.1358 129.139C26.1883 140.428 22.8478 153.232 26.0667 165.24C26.5252 166.952 27.096 169.093 25.8421 170.833C25.2526 171.647 24.4011 172.133 23.6432 172.488C23.0911 172.75 22.5203 172.984 21.9495 173.19C23.7555 178.783 26.469 183.992 30.0809 188.64C32.4202 191.67 36.2847 194.579 39.4475 192.877L39.41 192.933Z" stroke="white" stroke-width="2.5" stroke-linejoin="bevel"/>
<path d="M199.399 0C188.854 0 180.273 8.80072 180.273 19.6029C180.208 35.3993 198.679 48.5022 199.399 49.0353C199.399 49.0353 218.6 35.4086 218.525 19.6216C218.525 8.81007 209.945 0.00935252 199.399 0.00935252V0ZM199.399 29.4137C194.112 29.4137 189.836 25.0273 189.836 19.6122C189.836 14.1971 194.112 9.81079 199.399 9.81079C204.686 9.81079 208.962 14.1971 208.962 19.6122C208.962 25.0273 204.686 29.4137 199.399 29.4137Z" fill="#DAC590"/>
<path d="M201.625 49C289.625 63 318.625 111 298.625 198" stroke="white" stroke-dasharray="2 2"/>
<ellipse cx="210.947" cy="87.5" rx="3.32296" ry="3.5" fill="white"/>
<ellipse cx="146.947" cy="111.5" rx="3.32296" ry="3.5" fill="white"/>
<path d="M191.47 99.4688H194.206C194.776 99.4688 195.263 99.5664 195.665 99.7617C196.067 99.957 196.376 100.246 196.591 100.629C196.806 101.012 196.913 101.484 196.913 102.047C196.913 102.508 196.85 102.902 196.725 103.23C196.6 103.555 196.423 103.826 196.192 104.045C195.962 104.26 195.686 104.432 195.366 104.561L194.845 104.871H192.624L192.618 103.447H194.159C194.393 103.447 194.587 103.396 194.739 103.295C194.895 103.189 195.011 103.043 195.085 102.855C195.163 102.664 195.202 102.441 195.202 102.188C195.202 101.918 195.167 101.688 195.097 101.496C195.03 101.301 194.923 101.152 194.774 101.051C194.63 100.945 194.44 100.893 194.206 100.893H193.186V108H191.47V99.4688ZM195.343 108L193.778 104.197L195.577 104.191L197.177 107.918V108H195.343ZM205.782 103.072V104.496C205.782 105.098 205.708 105.625 205.56 106.078C205.415 106.527 205.208 106.904 204.939 107.209C204.673 107.51 204.351 107.736 203.972 107.889C203.597 108.041 203.181 108.117 202.724 108.117C202.267 108.117 201.849 108.041 201.47 107.889C201.095 107.736 200.771 107.51 200.497 107.209C200.228 106.904 200.019 106.527 199.87 106.078C199.722 105.625 199.648 105.098 199.648 104.496V103.072C199.648 102.455 199.72 101.916 199.864 101.455C200.009 100.99 200.218 100.604 200.491 100.295C200.765 99.9824 201.089 99.748 201.464 99.5918C201.839 99.4316 202.255 99.3516 202.712 99.3516C203.169 99.3516 203.585 99.4316 203.96 99.5918C204.335 99.748 204.659 99.9824 204.933 100.295C205.206 100.604 205.415 100.99 205.56 101.455C205.708 101.916 205.782 102.455 205.782 103.072ZM204.077 104.496V103.061C204.077 102.654 204.048 102.309 203.989 102.023C203.931 101.734 203.843 101.498 203.726 101.314C203.609 101.131 203.466 100.996 203.298 100.91C203.13 100.824 202.935 100.781 202.712 100.781C202.489 100.781 202.292 100.824 202.12 100.91C201.952 100.996 201.81 101.131 201.693 101.314C201.579 101.498 201.493 101.734 201.435 102.023C201.38 102.309 201.353 102.654 201.353 103.061V104.496C201.353 104.887 201.382 105.221 201.441 105.498C201.499 105.775 201.587 106.002 201.704 106.178C201.821 106.354 201.964 106.484 202.132 106.57C202.304 106.652 202.501 106.693 202.724 106.693C202.943 106.693 203.136 106.652 203.304 106.57C203.476 106.484 203.618 106.354 203.732 106.178C203.845 106.002 203.931 105.775 203.989 105.498C204.048 105.221 204.077 104.887 204.077 104.496ZM212.542 99.4688H214.253V105.328C214.253 105.984 214.132 106.52 213.89 106.934C213.652 107.344 213.322 107.645 212.9 107.836C212.478 108.023 211.996 108.117 211.453 108.117C210.906 108.117 210.419 108.023 209.994 107.836C209.568 107.645 209.236 107.344 208.998 106.934C208.763 106.52 208.646 105.984 208.646 105.328V99.4688H210.357V105.328C210.357 105.699 210.398 105.984 210.48 106.184C210.566 106.383 210.689 106.52 210.849 106.594C211.013 106.664 211.214 106.699 211.453 106.699C211.695 106.699 211.894 106.664 212.05 106.594C212.21 106.52 212.332 106.383 212.414 106.184C212.5 105.984 212.542 105.699 212.542 105.328V99.4688ZM222.138 106.582V108H218.43V106.582H222.138ZM218.963 99.4688V108H217.246V99.4688H218.963ZM221.64 102.926V104.303H218.43V102.926H221.64ZM222.127 99.4688V100.893H218.43V99.4688H222.127ZM230.785 99.4688V108H229.127L226.449 102.662V108H224.82V99.4688H226.455L229.156 104.865V99.4688H230.785Z" fill="white"/>
<path d="M135.733 129.158H137.438C137.415 129.799 137.286 130.34 137.052 130.781C136.817 131.219 136.483 131.551 136.05 131.777C135.62 132.004 135.101 132.117 134.491 132.117C134.019 132.117 133.599 132.039 133.231 131.883C132.864 131.723 132.552 131.488 132.294 131.18C132.036 130.871 131.841 130.49 131.708 130.037C131.579 129.58 131.515 129.055 131.515 128.461V127.014C131.515 126.42 131.583 125.895 131.72 125.438C131.86 124.98 132.06 124.598 132.317 124.289C132.579 123.977 132.894 123.742 133.261 123.586C133.632 123.426 134.05 123.346 134.515 123.346C135.136 123.346 135.655 123.463 136.073 123.697C136.491 123.932 136.813 124.273 137.04 124.723C137.271 125.168 137.409 125.713 137.456 126.357H135.739C135.731 125.951 135.687 125.633 135.605 125.402C135.526 125.168 135.401 125.004 135.23 124.91C135.058 124.812 134.819 124.764 134.515 124.764C134.288 124.764 134.093 124.805 133.929 124.887C133.765 124.965 133.63 125.092 133.524 125.268C133.419 125.443 133.341 125.674 133.29 125.959C133.243 126.244 133.22 126.592 133.22 127.002V128.461C133.22 128.863 133.241 129.207 133.284 129.492C133.327 129.773 133.396 130.004 133.489 130.184C133.583 130.363 133.71 130.494 133.87 130.576C134.034 130.658 134.241 130.699 134.491 130.699C134.78 130.699 135.013 130.656 135.188 130.57C135.368 130.484 135.501 130.33 135.587 130.107C135.673 129.885 135.722 129.568 135.733 129.158ZM143.279 124.992L141.445 132H139.634L142.3 123.469H143.431L143.279 124.992ZM144.726 132L142.88 124.992L142.71 123.469H143.859L146.548 132H144.726ZM144.79 128.818V130.242H140.941V128.818H144.79ZM153.935 130.582V132H150.226V130.582H153.935ZM150.759 123.469V132H149.043V123.469H150.759ZM153.437 126.926V128.303H150.226V126.926H153.437ZM153.923 123.469V124.893H150.226V123.469H153.923ZM162.582 123.469V132H160.924L158.246 126.662V132H156.617V123.469H158.252L160.953 128.865V123.469H162.582Z" fill="white"/>
<ellipse cx="297.92" cy="196.524" rx="4.29553" ry="4.52439" fill="white"/>
<path d="M241.887 198.992H239.559V197.094H241.887C242.215 197.094 242.48 197.021 242.684 196.875C242.887 196.729 243.035 196.529 243.129 196.273C243.223 196.013 243.27 195.721 243.27 195.398C243.27 195.07 243.223 194.763 243.129 194.477C243.035 194.19 242.887 193.961 242.684 193.789C242.48 193.612 242.215 193.523 241.887 193.523H240.301V203H238.012V191.625H241.887C242.652 191.625 243.309 191.786 243.855 192.109C244.408 192.432 244.832 192.878 245.129 193.445C245.426 194.008 245.574 194.654 245.574 195.383C245.574 196.117 245.426 196.755 245.129 197.297C244.832 197.833 244.408 198.25 243.855 198.547C243.309 198.844 242.652 198.992 241.887 198.992ZM252.088 193.656L249.642 203H247.228L250.783 191.625H252.291L252.088 193.656ZM254.017 203L251.556 193.656L251.33 191.625H252.861L256.447 203H254.017ZM254.103 198.758V200.656H248.97V198.758H254.103ZM259.781 191.625H263.429C264.19 191.625 264.838 191.755 265.375 192.016C265.911 192.276 266.322 192.661 266.609 193.172C266.895 193.682 267.039 194.312 267.039 195.062C267.039 195.677 266.955 196.203 266.789 196.641C266.622 197.073 266.385 197.435 266.078 197.727C265.77 198.013 265.403 198.242 264.976 198.414L264.281 198.828H261.32L261.312 196.93H263.367C263.679 196.93 263.937 196.862 264.14 196.727C264.348 196.586 264.502 196.391 264.601 196.141C264.705 195.885 264.757 195.589 264.757 195.25C264.757 194.891 264.71 194.583 264.617 194.328C264.528 194.068 264.385 193.87 264.187 193.734C263.994 193.594 263.742 193.523 263.429 193.523H262.07V203H259.781V191.625ZM264.945 203L262.859 197.93L265.257 197.922L267.39 202.891V203H264.945ZM273.247 191.625V203H270.974V191.625H273.247ZM282.253 200.008C282.253 199.805 282.235 199.62 282.198 199.453C282.162 199.286 282.084 199.133 281.964 198.992C281.849 198.852 281.68 198.711 281.456 198.57C281.237 198.43 280.951 198.284 280.597 198.133C280.175 197.956 279.766 197.768 279.37 197.57C278.974 197.367 278.618 197.133 278.3 196.867C277.982 196.602 277.73 196.289 277.542 195.93C277.36 195.565 277.269 195.138 277.269 194.648C277.269 194.169 277.355 193.734 277.526 193.344C277.703 192.953 277.953 192.62 278.276 192.344C278.599 192.062 278.977 191.846 279.409 191.695C279.847 191.544 280.334 191.469 280.87 191.469C281.599 191.469 282.23 191.62 282.761 191.922C283.297 192.224 283.711 192.638 284.003 193.164C284.3 193.69 284.448 194.294 284.448 194.977H282.167C282.167 194.654 282.12 194.37 282.026 194.125C281.938 193.875 281.795 193.68 281.597 193.539C281.399 193.398 281.144 193.328 280.831 193.328C280.539 193.328 280.297 193.388 280.105 193.508C279.917 193.622 279.776 193.781 279.683 193.984C279.594 194.182 279.55 194.406 279.55 194.656C279.55 194.844 279.594 195.013 279.683 195.164C279.776 195.31 279.904 195.443 280.065 195.562C280.227 195.677 280.417 195.789 280.636 195.898C280.86 196.008 281.105 196.115 281.37 196.219C281.886 196.422 282.341 196.646 282.737 196.891C283.133 197.13 283.464 197.401 283.73 197.703C283.995 198 284.196 198.336 284.331 198.711C284.466 199.086 284.534 199.513 284.534 199.992C284.534 200.466 284.451 200.898 284.284 201.289C284.123 201.674 283.886 202.008 283.573 202.289C283.261 202.565 282.883 202.779 282.44 202.93C282.003 203.081 281.513 203.156 280.972 203.156C280.446 203.156 279.948 203.083 279.48 202.938C279.011 202.786 278.597 202.56 278.237 202.258C277.883 201.951 277.605 201.562 277.401 201.094C277.198 200.62 277.097 200.06 277.097 199.414H279.386C279.386 199.758 279.42 200.052 279.487 200.297C279.555 200.536 279.659 200.729 279.8 200.875C279.94 201.016 280.112 201.122 280.315 201.195C280.524 201.263 280.761 201.297 281.026 201.297C281.328 201.297 281.568 201.24 281.745 201.125C281.927 201.01 282.058 200.857 282.136 200.664C282.214 200.471 282.253 200.253 282.253 200.008Z" fill="white"/>
<path d="M312.397 109.635V111H307.37V109.834L309.679 106.898C309.901 106.594 310.075 106.324 310.2 106.09C310.325 105.855 310.415 105.646 310.47 105.463C310.524 105.275 310.552 105.098 310.552 104.93C310.552 104.68 310.522 104.465 310.464 104.285C310.405 104.102 310.317 103.961 310.2 103.863C310.087 103.762 309.946 103.711 309.778 103.711C309.575 103.711 309.407 103.773 309.274 103.898C309.142 104.023 309.042 104.195 308.976 104.414C308.913 104.629 308.882 104.873 308.882 105.146H307.235C307.235 104.639 307.339 104.172 307.546 103.746C307.757 103.316 308.052 102.977 308.431 102.727C308.813 102.473 309.272 102.346 309.808 102.346C310.327 102.346 310.765 102.443 311.12 102.639C311.476 102.834 311.743 103.113 311.923 103.477C312.106 103.836 312.198 104.268 312.198 104.771C312.198 105.053 312.161 105.328 312.087 105.598C312.013 105.863 311.907 106.129 311.771 106.395C311.634 106.656 311.464 106.924 311.261 107.197C311.062 107.471 310.839 107.754 310.593 108.047L309.48 109.635H312.397ZM319.984 105.926V107.344H316.486V105.926H319.984ZM316.972 102.469V111H315.255V102.469H316.972ZM321.226 102.469V111H319.527V102.469H321.226ZM329.269 107.789V109.154H324.06L323.984 108.082L326.884 102.469H328.185L326.855 104.965L325.59 107.789H329.269ZM328.543 102.469V111H326.896V102.469H328.543ZM333.41 107.133L332.098 106.805L332.525 102.469H336.645V103.875H333.873L333.715 105.709C333.805 105.646 333.937 105.578 334.113 105.504C334.293 105.43 334.492 105.393 334.711 105.393C335.066 105.393 335.379 105.457 335.648 105.586C335.922 105.715 336.152 105.902 336.34 106.148C336.527 106.395 336.67 106.695 336.768 107.051C336.865 107.406 336.914 107.809 336.914 108.258C336.914 108.637 336.863 108.998 336.762 109.342C336.66 109.686 336.504 109.99 336.293 110.256C336.082 110.521 335.82 110.732 335.508 110.889C335.199 111.041 334.834 111.117 334.412 111.117C334.096 111.117 333.791 111.062 333.498 110.953C333.205 110.844 332.941 110.682 332.707 110.467C332.473 110.248 332.285 109.986 332.145 109.682C332.004 109.373 331.934 109.021 331.934 108.627H333.557C333.576 108.857 333.621 109.057 333.691 109.225C333.766 109.393 333.863 109.523 333.984 109.617C334.105 109.707 334.246 109.752 334.406 109.752C334.566 109.752 334.701 109.713 334.811 109.635C334.924 109.553 335.014 109.439 335.08 109.295C335.146 109.15 335.193 108.982 335.221 108.791C335.252 108.596 335.268 108.387 335.268 108.164C335.268 107.938 335.248 107.732 335.209 107.549C335.17 107.365 335.109 107.207 335.027 107.074C334.945 106.941 334.838 106.84 334.705 106.77C334.576 106.699 334.426 106.664 334.254 106.664C334.012 106.664 333.83 106.715 333.709 106.816C333.592 106.914 333.492 107.02 333.41 107.133Z" fill="white"/>
</svg>
