<svg width="406" height="117" viewBox="0 0 406 117" fill="none" xmlns="http://www.w3.org/2000/svg">
<path d="M314.075 48.4123C307.672 48.4123 303.626 42.0785 304.922 34.375C306.37 26.6715 312.622 20.3992 319.032 20.3992C325.441 20.3992 329.397 26.6547 328.028 34.375C326.659 42.0952 320.401 48.4123 314.075 48.4123ZM318.646 22.7806C314.075 22.7806 311.024 27.9685 309.879 34.375C308.733 40.7815 309.879 46.0476 314.455 46.0476C319.032 46.0476 322.005 40.7815 323.144 34.375C324.284 27.9685 323.145 22.7806 318.646 22.7806ZM327.419 17.7493L320.25 11.9298L311.103 17.727L310.337 16.8884L321.166 6.97119L328.559 16.8884L327.419 17.7493Z" fill="white"/>
<path d="M341.143 43.9845C340.171 45.324 338.949 46.4629 337.545 47.3387C336.596 47.9814 335.496 48.3666 334.354 48.4568C332.638 48.4568 331.381 47.7916 330.683 46.3772C329.984 44.9629 329.856 42.8106 330.392 39.8365L331.722 32.1331L333.057 24.4296H328.101L328.369 23.0935L328.632 21.7574H333.594L334.656 15.6583L335.728 9.55371H339.919L338.891 15.6583L337.857 21.7574H343.971L343.708 23.0935L343.44 24.4296H337.327L335.958 32.1331L334.583 39.7694C334.281 41.6031 334.242 42.9895 334.505 43.9286C334.565 44.3434 334.779 44.7204 335.104 44.9853C335.429 45.2502 335.841 45.3838 336.259 45.3598C336.971 45.3133 337.655 45.0651 338.232 44.6442C339.316 43.8962 340.272 42.9789 341.065 41.9273C343.021 39.2663 343.501 38.5228 343.501 38.5228L343.077 41.0217C343.077 41.0217 343.233 41.072 341.143 43.9845Z" fill="white"/>
<path d="M352.576 45.36C354.482 45.36 357.454 43.8338 359.516 41.8548L360.204 43.3754C357.683 46.2041 353.872 48.4067 350.598 48.4067C344.267 48.4067 341.138 42.0729 342.44 34.3694C343.959 26.2858 350.212 20.3936 355.549 20.3936C359.594 20.3936 361.802 23.3676 361.137 26.9566C360.449 30.9201 356.029 35.7278 346.575 37.7068C346.474 42.3859 348.385 45.36 352.576 45.36ZM357.303 27.0572C357.605 25.0671 356.923 23.4682 355.018 23.4682C351.509 23.4682 348.156 27.5827 346.938 34.4532C346.86 34.9116 346.781 35.2918 346.709 35.6719C353.414 34.0731 356.694 30.104 357.303 27.0572Z" fill="white"/>
<path d="M124.254 72.2158L156.966 87.701L123.377 102.828" stroke="white"/>
<path d="M46.0684 57.312H57.3112C66.2519 57.312 73.5161 58.5027 80.5737 64.5179C87.3797 70.3766 90.4642 78.3708 90.4642 87.2426C90.4642 95.9468 87.3015 103.622 80.7301 109.481C73.6111 115.82 66.4865 117.006 57.1548 117.006H46.0684V57.312ZM57.5403 110.828C64.8046 110.828 70.9178 109.794 76.3715 104.651C78.7561 102.41 80.6491 99.6986 81.9304 96.6873C83.2117 93.6761 83.8534 90.4313 83.8146 87.1588C83.8146 80.3498 81.1995 73.7811 76.0586 69.2697C70.5992 64.4397 64.5867 63.4949 57.5403 63.4949H52.7124V110.834L57.5403 110.828Z" fill="white"/>
<path d="M173.283 110.828H189.745V117.006H166.633V57.312H173.283V110.828Z" fill="white"/>
<path d="M187.873 57.312H197.685C208.525 57.312 217.628 61.27 217.628 73.4625C217.628 78.2925 215.812 82.407 211.772 85.1015C218.891 86.8401 223.088 93.2522 223.088 100.38C223.088 112.254 213.515 117.006 201.725 117.006H187.873V57.312ZM194.522 83.5866H197.048C204.569 83.5866 210.979 82.7145 210.979 73.4513C210.979 64.4229 205.284 63.4781 197.132 63.4781H194.522V83.5866ZM194.522 110.817H201.172C208.604 110.817 216.438 109 216.438 99.8935C216.438 90.6304 207.581 89.2719 200.294 89.2719H194.522V110.817Z" fill="white"/>
<path d="M293.344 117.006H286.695V63.4893H272.289V57.312H307.901V63.4893H293.344V117.006Z" fill="white"/>
<path d="M309.75 117.006H303.106V57.312H311.728C323.044 57.312 333.566 60.3196 333.566 73.7811C333.566 82.966 327.794 89.434 318.613 90.2446L337.612 117.006H329.442L311.399 90.8037H309.722L309.75 117.006ZM309.75 84.9394H311.807C319.322 84.9394 326.894 83.5139 326.894 74.2563C326.894 64.4341 319.691 63.4893 311.7 63.4893H309.722L309.75 84.9394Z" fill="white"/>
<path d="M330.163 57.312H359.494V63.4893H336.813V83.9946H359.494V90.144H336.813V110.828H359.494V117.006H330.163V57.312Z" fill="white"/>
<path d="M120.823 74.3511L103.892 67.162V59.8945L166.409 87.4437L103.892 114.277V106.881L120.823 99.8374V74.3511ZM150.897 87.248L126.998 77.0401V97.2267" fill="white"/>
<path d="M241.153 74.3511L224.205 67.162V59.8945L286.723 87.4437L224.205 114.277V106.881L241.153 99.8374V74.3511ZM271.222 87.248L247.3 77.0401V97.2267L271.222 87.248Z" fill="white"/>
<path d="M97.315 57.3457H92.9062V74.3123H97.315V57.3457Z" fill="white"/>
<path d="M298.865 46.2432C298.865 44.4152 298.787 42.5815 298.099 41.8995C294.518 45.9357 290.321 48.3843 286.276 48.3843C276.664 48.3843 270.719 37.472 273.004 24.1949C275.29 10.9179 285.208 0 294.797 0C298.764 0 302.123 2.3703 304.33 6.49037C305.246 5.7245 305.934 4.0474 306.699 2.1411H308.219L305.246 18.9121H303.648C304.028 8.99484 300.597 2.96846 294.417 2.96846C286.181 2.96846 280.537 14.7082 278.86 24.1838C277.184 33.6594 278.782 45.3152 286.94 45.3152C293.199 45.3152 298.675 39.2162 301.815 29.4443H303.419L300.441 46.2153L298.865 46.2432Z" fill="white"/>
<path d="M405.013 87.2428L369.166 71.9253V102.203L405.013 87.2428Z" fill="white"/>
<path d="M35.8649 87.2428L0.0128784 71.9253V102.203L35.8649 87.2428Z" fill="white"/>
<path d="M53.8468 36.3539C53.2069 35.8589 52.4204 35.5914 51.6116 35.5936C49.1306 35.5936 47.4821 37.8297 47.4821 40.8932C47.4821 44.0797 49.2982 46.1984 51.5334 46.1984C52.3601 46.202 53.1713 45.9734 53.8747 45.5388L53.9641 47.4227C53.1964 47.7705 52.3589 47.937 51.5166 47.9091C48.1136 47.9091 45.8505 45.1475 45.8505 40.8373C45.8505 36.6613 48.2533 33.883 51.5334 33.883C52.3754 33.8649 53.2075 34.0672 53.9473 34.4699L53.8468 36.3539Z" fill="white"/>
<path d="M58.5573 37.5332C60.9434 37.5332 62.5471 39.7078 62.5471 42.721C62.5471 45.5553 60.9154 47.9089 58.5573 47.9089C56.1992 47.9089 54.5564 45.5553 54.5564 42.721C54.5564 39.7078 56.1601 37.5332 58.5573 37.5332ZM58.5573 46.433C60.2337 46.433 61.0048 44.4876 61.0048 42.721C61.0048 40.8371 60.0996 39.009 58.5573 39.009C57.0151 39.009 56.0931 40.8371 56.0931 42.721C56.0931 44.4876 56.853 46.433 58.5573 46.433Z" fill="white"/>
<path d="M63.8547 37.7682H65.2069V39.2105H65.2405C65.4284 38.7053 65.7699 38.2718 66.217 37.971C66.664 37.6701 67.1941 37.5171 67.7327 37.5334C68.6435 37.5334 69.5487 38.0924 69.9678 39.4565C70.1381 38.9317 70.4597 38.4691 70.8923 38.1269C71.3248 37.7847 71.8489 37.5782 72.3986 37.5334C74.399 37.5334 75.1255 39.1658 75.1255 41.3236V47.6743H73.6782V41.7653C73.6782 40.5466 73.4491 39.0093 72.2756 39.0093C70.7948 39.0093 70.2137 40.8373 70.2137 42.6821V47.6743H68.7664V41.7653C68.7664 40.5466 68.5373 39.0093 67.3639 39.0093C65.8887 39.0093 65.3019 40.8373 65.3019 42.6821V47.6743H63.8547V37.7682Z" fill="white"/>
<path d="M76.9247 37.7682H78.2826V39.2105H78.3105C78.4985 38.7053 78.84 38.2718 79.287 37.971C79.7341 37.6701 80.2642 37.5171 80.8027 37.5334C81.7136 37.5334 82.6188 38.0924 83.0379 39.4565C83.2081 38.9317 83.5298 38.4691 83.9623 38.1269C84.3949 37.7847 84.919 37.5782 85.4686 37.5334C87.4691 37.5334 88.1955 39.1658 88.1955 41.3236V47.6743H86.7483V41.7653C86.7483 40.5466 86.5192 39.0093 85.3457 39.0093C83.8705 39.0093 83.2838 40.8373 83.2838 42.6821V47.6743H81.8365V41.7653C81.8365 40.5466 81.6074 39.0093 80.4339 39.0093C78.9587 39.0093 78.372 40.8373 78.372 42.6821V47.6743H76.9247V37.7682Z" fill="white"/>
<path d="M96.9518 47.6741H95.5548V46.0977H95.5213C95.324 46.6228 94.9733 47.0763 94.5149 47.3993C94.0565 47.7224 93.5115 47.8999 92.9509 47.9089C90.9169 47.9089 90.0116 46.3101 90.0116 43.6547V37.7681H91.4589V42.8944C91.4589 45.2088 91.8556 46.3324 93.1353 46.4331C94.7837 46.4331 95.5213 44.756 95.5213 42.3521V37.7681H96.9686L96.9518 47.6741Z" fill="white"/>
<path d="M98.8014 37.768H100.204V39.3389H100.232C100.43 38.8148 100.781 38.3625 101.239 38.0405C101.698 37.7185 102.242 37.5418 102.802 37.5332C104.836 37.5332 105.747 39.1264 105.747 41.7874V47.6741H104.294V42.5645C104.294 40.2557 103.898 39.132 102.618 39.0314C100.942 39.0314 100.232 40.7085 100.232 43.1123V47.6964H98.7846L98.8014 37.768Z" fill="white"/>
<path d="M107.96 38.4668C108.697 37.8804 109.606 37.5524 110.547 37.5332C112.782 37.5332 113.704 38.9308 113.704 41.6309V45.7342C113.691 46.3815 113.712 47.0289 113.766 47.6741H112.414V46.3939H112.38C112.149 46.8423 111.801 47.2199 111.373 47.4866C110.945 47.7534 110.453 47.8992 109.949 47.9089C108.273 47.9089 107.066 46.9753 107.066 44.8174C107.066 42.3353 109.223 41.5527 110.715 41.5527C111.274 41.5527 111.687 41.5527 112.257 41.5974C112.257 39.8811 111.765 39.009 110.318 39.009C109.456 39.032 108.637 39.3934 108.038 40.0153L107.96 38.4668ZM112.257 42.939C111.944 42.939 111.642 42.9055 111.329 42.9055C110.547 42.9055 108.608 43.062 108.608 44.8062C108.598 45.0086 108.627 45.2111 108.695 45.402C108.763 45.5929 108.868 45.7685 109.004 45.9187C109.14 46.0688 109.305 46.1906 109.488 46.2769C109.671 46.3633 109.87 46.4125 110.072 46.4218C111.503 46.4218 112.257 45.3038 112.257 43.8167V42.939Z" fill="white"/>
<path d="M122.477 47.6741H121.08V46.0977H121.047C120.85 46.6228 120.499 47.0763 120.04 47.3993C119.582 47.7224 119.037 47.8999 118.476 47.9089C116.442 47.9089 115.537 46.3101 115.537 43.6547V37.7681H116.984V42.8944C116.984 45.2088 117.381 46.3324 118.661 46.4331C120.309 46.4331 121.047 44.756 121.047 42.3521V37.7681H122.494L122.477 47.6741Z" fill="white"/>
<path d="M128.496 39.2439H126.422V44.6609C126.422 45.8069 126.981 46.4331 127.635 46.4331C127.995 46.4336 128.345 46.3091 128.624 46.0809V47.635C128.231 47.7967 127.813 47.8893 127.389 47.9089C125.897 47.9089 124.97 47.0089 124.97 45.0299V39.2439H123.204V37.7681H124.97V35.476L126.422 34.917V37.7904H128.496V39.2439Z" fill="white"/>
<path d="M135.715 47.2662C134.96 47.6923 134.107 47.9139 133.24 47.9091C130.446 47.9091 129.177 45.768 129.177 42.5424C129.177 39.6131 130.636 37.5111 132.854 37.5111C135.475 37.5111 136.319 39.9205 136.319 43.1014H130.731C130.731 45.0636 131.949 46.4053 133.318 46.4053C134.211 46.3505 135.06 46.0004 135.732 45.4102L135.715 47.2662ZM134.782 41.7654C134.782 40.256 134.067 39.0093 132.826 39.0093C131.407 39.0093 130.82 40.4852 130.714 41.7654H134.782ZM133.106 33.5923H134.782L132.748 36.4154H131.72L133.106 33.5923Z" fill="white"/>
<path d="M146.863 46.2712H146.835C146.581 46.7639 146.196 47.1773 145.723 47.4662C145.25 47.7551 144.707 47.9083 144.153 47.9091C141.784 47.9091 140.8 45.2426 140.8 42.5424C140.8 39.8423 141.918 37.5111 144.186 37.5111C144.73 37.4808 145.27 37.617 145.734 37.9017C146.199 38.1863 146.565 38.6059 146.785 39.1044H146.818V33.106H148.265V47.6744H146.88L146.863 46.2712ZM144.494 46.4333C146.125 46.4333 146.801 44.3928 146.801 42.7381C146.801 40.8933 146.047 39.0093 144.477 39.0093C142.907 39.0093 142.292 40.8709 142.326 42.6822C142.292 44.2419 142.94 46.4333 144.482 46.4333H144.494Z" fill="white"/>
<path d="M156.117 47.2663C155.361 47.6924 154.508 47.914 153.641 47.9092C150.847 47.9092 149.573 45.7681 149.573 42.5425C149.573 39.6132 151.037 37.5112 153.25 37.5112C155.871 37.5112 156.714 39.9207 156.714 43.1016H151.127C151.127 45.0638 152.345 46.4054 153.714 46.4054C154.608 46.3505 155.459 46.0006 156.133 45.4104L156.117 47.2663ZM155.178 41.7655C155.178 40.2561 154.468 39.0094 153.222 39.0094C151.803 39.0094 151.221 40.4853 151.11 41.7655H155.178Z" fill="white"/>
<path d="M169.265 36.3539C168.625 35.8597 167.838 35.5922 167.03 35.5936C164.549 35.5936 162.906 37.8297 162.906 40.8932C162.906 44.0797 164.722 46.1984 166.951 46.1984C167.778 46.2028 168.59 45.9742 169.293 45.5388L169.388 47.4227C168.618 47.7706 167.779 47.937 166.935 47.9091C163.537 47.9091 161.274 45.1475 161.274 40.8373C161.274 36.6613 163.677 33.8829 166.951 33.8829C167.795 33.8649 168.629 34.0672 169.371 34.4699L169.265 36.3539Z" fill="white"/>
<path d="M173.975 37.5332C176.361 37.5332 177.96 39.7078 177.96 42.721C177.96 45.5553 176.328 47.9089 173.975 47.9089C171.623 47.9089 169.969 45.5553 169.969 42.721C169.969 39.7078 171.573 37.5332 173.975 37.5332ZM173.975 46.433C175.652 46.433 176.417 44.4876 176.417 42.721C176.417 40.8371 175.512 39.009 173.975 39.009C172.439 39.009 171.511 40.8371 171.511 42.721C171.511 44.4876 172.266 46.433 173.975 46.433Z" fill="white"/>
<path d="M179.273 37.7682H180.625V39.2106H180.653C180.842 38.7049 181.184 38.2712 181.633 37.9704C182.081 37.6696 182.611 37.5168 183.151 37.5335C184.056 37.5335 184.967 38.0925 185.386 39.4565C185.556 38.9318 185.878 38.4692 186.31 38.1269C186.743 37.7847 187.267 37.5782 187.817 37.5335C189.823 37.5335 190.544 39.1658 190.544 41.3237V47.6743H189.096V41.7653C189.096 40.5466 188.867 39.0093 187.699 39.0093C186.219 39.0093 185.632 40.8373 185.632 42.6822V47.6743H184.157V41.7653C184.157 40.5466 183.928 39.0093 182.76 39.0093C181.279 39.0093 180.698 40.8373 180.698 42.6822V47.6743H179.25L179.273 37.7682Z" fill="white"/>
<path d="M192.337 37.7682H193.695V39.2106H193.723C193.912 38.7049 194.255 38.2712 194.703 37.9704C195.151 37.6696 195.682 37.5168 196.221 37.5335C197.126 37.5335 198.037 38.0925 198.456 39.4565C198.627 38.931 198.949 38.4678 199.383 38.1255C199.816 37.7832 200.342 37.5772 200.892 37.5335C202.893 37.5335 203.614 39.1658 203.614 41.3237V47.6743H202.166V41.7653C202.166 40.5466 201.937 39.0093 200.769 39.0093C199.289 39.0093 198.702 40.8373 198.702 42.6822V47.6743H197.255V41.7653C197.255 40.5466 197.026 39.0093 195.858 39.0093C194.377 39.0093 193.79 40.8373 193.79 42.6822V47.6743H192.343L192.337 37.7682Z" fill="white"/>
<path d="M212.37 47.6741H210.979V46.0977H210.951C210.753 46.6236 210.401 47.0778 209.942 47.4009C209.482 47.724 208.936 47.901 208.375 47.9089C206.346 47.9089 205.435 46.3101 205.435 43.6547V37.7681H206.883V42.8944C206.883 45.2088 207.285 46.3324 208.559 46.4331C210.207 46.4331 210.945 44.756 210.945 42.3521V37.7681H212.392L212.37 47.6741Z" fill="white"/>
<path d="M214.214 37.768H215.617V39.3389H215.65C215.85 38.8113 216.204 38.3565 216.667 38.0342C217.13 37.712 217.679 37.5373 218.243 37.5332C220.271 37.5332 221.182 39.1264 221.182 41.7874V47.6741H219.735V42.5645C219.735 40.2557 219.332 39.132 218.058 39.0314C216.416 39.0314 215.672 40.7085 215.672 43.1123V47.6964H214.225L214.214 37.768Z" fill="white"/>
<path d="M229.027 47.2664C228.27 47.6914 227.415 47.9129 226.546 47.9092C223.752 47.9092 222.484 45.7682 222.484 42.5425C222.484 39.6132 223.948 37.5112 226.161 37.5112C228.782 37.5112 229.625 39.9207 229.625 43.1016H224.037C224.037 45.0638 225.256 46.4054 226.625 46.4054C227.519 46.3506 228.37 46.0006 229.044 45.4104L229.027 47.2664ZM228.089 41.7655C228.089 40.2561 227.379 39.0094 226.133 39.0094C224.714 39.0094 224.132 40.4853 224.021 41.7655H228.089Z" fill="white"/>
<path d="M230.369 45.7342C230.885 46.1415 231.512 46.3849 232.168 46.433C232.361 46.4499 232.556 46.4253 232.739 46.3608C232.923 46.2963 233.09 46.1933 233.23 46.0589C233.37 45.9244 233.48 45.7616 233.552 45.5812C233.625 45.4009 233.657 45.2072 233.649 45.0131C233.649 43.2074 230.24 43.336 230.24 40.5855C230.24 38.5283 231.458 37.5332 233.034 37.5332C233.655 37.5467 234.268 37.6795 234.839 37.9245L234.716 39.5178C234.253 39.2329 233.731 39.0588 233.19 39.009C233.018 38.9869 232.843 39.0016 232.677 39.052C232.511 39.1024 232.357 39.1874 232.227 39.3015C232.096 39.4156 231.99 39.5561 231.918 39.7138C231.845 39.8715 231.806 40.0429 231.805 40.2166C231.805 42.2347 235.208 41.6477 235.208 44.8174C235.208 46.9361 233.867 47.9088 232.464 47.9088C231.707 47.9465 230.956 47.7514 230.313 47.3498L230.369 45.7342Z" fill="white"/>
<path d="M245.545 46.2712H245.512C245.259 46.7639 244.876 47.1774 244.404 47.4664C243.931 47.7554 243.389 47.9085 242.835 47.9091C240.466 47.9091 239.482 45.2426 239.482 42.5424C239.482 39.8423 240.6 37.5111 242.869 37.5111C243.412 37.4815 243.952 37.6181 244.416 37.9027C244.88 38.1873 245.247 38.6064 245.467 39.1044H245.501V33.106H246.948V47.6744H245.562L245.545 46.2712ZM243.176 46.4333C244.808 46.4333 245.484 44.3928 245.484 42.7381C245.484 40.8933 244.729 39.0093 243.159 39.0093C241.589 39.0093 240.974 40.8709 241.002 42.6822C240.974 44.2419 241.617 46.4333 243.176 46.4333Z" fill="white"/>
<path d="M254.799 47.2664C254.042 47.6928 253.187 47.9144 252.318 47.9092C249.524 47.9092 248.255 45.7681 248.255 42.5425C248.255 39.6132 249.714 37.5112 251.932 37.5112C254.553 37.5112 255.397 39.9207 255.397 43.1016H249.809C249.809 45.0638 251.027 46.4054 252.396 46.4054C253.29 46.3493 254.141 45.9995 254.816 45.4104L254.799 47.2664ZM253.86 41.7655C253.86 40.2561 253.15 39.0094 251.904 39.0094C250.485 39.0094 249.904 40.4853 249.792 41.7655H253.86Z" fill="white"/>
<path d="M260.571 33.106H262.018V47.6744H260.571V33.106Z" fill="white"/>
<path d="M264.416 38.4668C265.154 37.8793 266.065 37.5512 267.008 37.5332C269.244 37.5332 270.16 38.9308 270.16 41.6309V45.7342C270.16 46.8523 270.194 47.4113 270.221 47.6741H268.869V46.3939H268.836C268.605 46.8423 268.257 47.2199 267.829 47.4866C267.401 47.7534 266.909 47.8992 266.405 47.9089C264.729 47.9089 263.527 46.9753 263.527 44.8174C263.527 42.3353 265.679 41.5527 267.176 41.5527C267.735 41.5527 268.143 41.5527 268.713 41.5974C268.713 39.8811 268.221 39.009 266.774 39.009C265.911 39.032 265.092 39.3934 264.494 40.0153L264.416 38.4668ZM268.713 42.939C268.405 42.939 268.098 42.9055 267.791 42.9055C267.008 42.9055 265.064 43.062 265.064 44.8062C265.053 45.0086 265.083 45.2111 265.151 45.402C265.219 45.5929 265.324 45.7685 265.46 45.9187C265.596 46.0688 265.76 46.1906 265.944 46.2769C266.127 46.3633 266.326 46.4125 266.528 46.4218C267.958 46.4218 268.713 45.3038 268.713 43.8167V42.939Z" fill="white"/>
</svg>
