<svg width="157" height="114" viewBox="0 0 157 114" fill="none" xmlns="http://www.w3.org/2000/svg">
<g clip-path="url(#clip0_5_232)">
<mask id="path-1-outside-1_5_232" maskUnits="userSpaceOnUse" x="-0.985596" y="-0.995361" width="159" height="116" fill="black">
<rect fill="white" x="-0.985596" y="-0.995361" width="159" height="116"/>
<path d="M84.0163 114C83.479 114.009 82.9506 113.862 82.4947 113.578C82.0388 113.295 81.6747 112.886 81.4462 112.4C81.3278 112.174 81.2332 111.935 81.1639 111.689L80.9786 111.432C80.692 111.023 80.427 110.599 80.1844 110.162L80.0895 109.995C79.5165 109.929 78.9689 109.722 78.4968 109.392C77.9982 109.009 77.4467 108.278 77.6342 106.971C77.6687 106.724 77.7158 106.479 77.7754 106.238C77.7754 106.225 77.7754 106.209 77.7754 106.198C77.7644 106.084 77.718 105.831 77.6386 105.441C77.5791 105.142 77.5379 104.84 77.5151 104.536C77.4136 104.565 77.3121 104.594 77.215 104.624L74.4244 106.552L72.6 104.73C71.6095 104.382 70.2329 103.722 69.7983 102.637C69.7586 102.54 69.7101 102.43 69.6593 102.311C69.2181 101.301 68.7416 100.157 69.2314 99.1773C69.3478 98.9427 69.5142 98.7364 69.7188 98.5725C69.9234 98.4087 70.1613 98.2914 70.416 98.2287C70.8572 98.1186 71.9117 98.09 73.5574 98.1406V98.1296C73.6068 97.9569 73.6451 97.7812 73.6721 97.6036C73.726 97.1826 73.8664 96.7772 74.0847 96.4129L73.9567 96.4592L73.4559 96.1136C72.7434 96.0828 72.4147 95.6888 71.9602 95.1452C71.6271 94.7447 71.6271 94.7446 70.7734 94.5598L70.5726 94.5158C69.9924 94.7028 69.4961 94.4629 68.8718 94.1196C68.093 94.2054 67.6474 93.708 67.0055 92.9861C66.5642 92.4887 66.1936 92.0111 65.9024 91.626C65.7436 91.4191 65.5583 91.1858 65.4193 91.0141H64.1994C63.8166 91.0052 63.4388 90.9253 63.0853 90.7786C63.0135 90.7496 62.9398 90.7253 62.8647 90.706C62.8269 90.7151 62.79 90.7277 62.7544 90.7434C62.5754 90.8224 62.4028 90.9152 62.2382 91.0207C61.5565 91.4323 60.9146 91.747 59.3571 91.747C57.5481 91.747 56.915 91.9099 56.765 91.9671C55.9554 92.2356 53.8751 92.0573 53.0588 91.8747C52.615 91.8332 52.2008 91.634 51.8918 91.3134C51.7793 91.2122 51.5984 91.0493 51.2984 90.7874C51.2653 90.7588 51.2366 90.7324 51.2102 90.7126C50.341 90.6224 49.9615 89.8322 49.7564 89.304C49.0823 89.4556 48.3811 89.4374 47.7158 89.2512C47.0871 89.2248 46.5951 88.734 46.2355 88.3708C45.4038 87.5411 41.8609 83.5289 41.1506 82.7233C40.4995 82.2666 39.8824 81.7635 39.3041 81.2179L39.2843 81.2003C38.9269 81.2443 38.6732 81.2531 38.4857 81.2619H38.3621C38.1804 81.3746 38.0051 81.4973 37.8371 81.6295C37.8091 81.6487 37.7825 81.6701 37.7577 81.6933V81.7153C37.2657 82.8158 36.4054 83.2229 34.228 83.7908C33.3435 84.0057 32.497 84.3538 31.7175 84.823C30.8351 85.327 29.9086 85.8486 27.8878 85.7408C26.1781 85.6505 25.7568 85.5559 25.2009 85.3622C24.8804 85.2533 24.549 85.1795 24.2125 85.1421C23.2593 84.9921 22.2928 84.9434 21.3292 84.9969C21.0822 84.9969 20.8527 85.0123 20.6321 85.0123C19.9779 85.0017 19.3251 84.9495 18.6776 84.856C18.3136 84.8142 17.8988 84.7636 17.3981 84.7129C17.1208 84.6755 16.8417 84.6534 16.562 84.6469C16.3524 84.6469 16.0369 84.6469 14.8148 84.5721C14.1141 84.5369 13.4117 84.5678 12.7168 84.6645C11.6447 84.7834 10.535 84.9088 9.31951 84.2243C8.02898 83.5113 4.98022 81.9178 4.94933 81.9002L4.88977 81.8672C4.49709 81.6471 2.52489 80.408 2.10574 78.5284C2.01007 78.122 1.98248 77.7025 2.02411 77.2871L1.93146 77.2145L1.89616 77.1881C1.68922 77.2229 1.47743 77.2165 1.27297 77.1693C1.06852 77.1221 0.875453 77.035 0.704898 76.913C0.0144053 76.4156 0.0144043 75.7487 0.0144043 74.974C0.0144043 74.4744 0.0872037 70.7923 0.376196 69.8349C0.386173 69.7839 0.393537 69.7325 0.398258 69.6808C0.430395 69.2337 0.552202 68.7976 0.756456 68.3984C0.96071 67.9991 1.24325 67.6449 1.58732 67.3567C1.96676 66.9583 3.1514 65.0083 4.15736 63.2124C4.10221 62.4861 4.37797 61.4692 5.55158 60.1773C7.1995 58.3682 7.53703 57.7035 7.58556 57.6287C7.70613 57.3215 7.84613 57.0223 8.00471 56.7329C8.22531 56.2927 8.93345 54.9128 8.96434 54.4682C8.95264 54.2727 8.9216 54.0788 8.87169 53.8893C8.58951 52.8776 8.66109 51.8002 9.07464 50.8345C9.09318 50.7899 9.10938 50.7443 9.12317 50.698C8.76138 49.1772 9.92397 48.5522 10.9498 48.0019C11.7616 47.5618 12.1433 47.3417 12.4499 47.1436C12.9423 46.8351 13.4587 46.5665 13.9941 46.3403C15.3178 45.7526 20.8439 43.4791 21.0777 43.3955L21.3601 43.2788H21.6646C23.4757 43.2788 24.2346 43.1379 25.4501 42.2576C26.5532 41.4631 27.1885 41.0559 27.8768 40.6245C28.2253 40.4044 28.5871 40.1733 29.0305 39.8784C29.4379 39.6068 29.8138 39.2908 30.1512 38.9364C30.5799 38.4806 31.0725 38.0891 31.6138 37.7744C31.7561 37.6992 31.8919 37.6123 32.0197 37.5146C32.3705 37.2395 32.6374 37.0943 33.9743 36.5242C34.8744 36.1391 35.395 35.9432 35.7744 35.8023C36.1653 35.6682 36.5415 35.495 36.8973 35.2851C37.2959 35.04 37.673 34.7617 38.0246 34.4532C38.5102 34.0239 39.0431 33.6511 39.613 33.3417C39.8304 33.2292 40.0588 33.1392 40.2946 33.0732C40.5836 32.8531 41.3668 32.1819 41.6403 31.9464C41.742 31.8597 41.8385 31.7671 41.9293 31.6691C41.8806 31.2877 41.954 30.9008 42.1391 30.5636C42.3241 30.2264 42.6113 29.9562 42.9595 29.7917C43.3721 29.5716 43.95 29.4065 45.2516 29.1182C46.4504 28.8779 47.6273 28.5393 48.7703 28.1058C49.6396 27.7618 50.5433 27.5116 51.4661 27.3597C52.8894 27.1155 54.291 26.7585 55.6575 26.2923L55.7987 26.2438C56.2046 26.1074 59.1078 25.2138 59.9196 24.9673C64.6957 22.2118 65.6201 22.2118 65.9708 22.2118H69.7851C70.908 22.2118 71.0337 22.1788 71.8477 21.9543C72.2316 21.8486 72.7588 21.7056 73.5398 21.5141L74.3251 21.3314C75.6973 21.0123 75.6973 21.0123 76.7518 20.5743L76.9128 20.5083C77.1987 20.1565 77.5824 19.8969 78.0158 19.7622C78.36 19.6345 78.9093 19.4563 79.7476 19.1988C81.6735 18.6089 82.3573 18.4196 82.686 18.3184C82.9541 18.2459 83.2171 18.1562 83.4736 18.0499C84.0781 17.8298 86.0591 16.791 87.3695 16.1087C89.0086 15.2547 89.4189 15.0457 89.6902 14.9576C89.919 14.879 90.1619 14.8498 90.4028 14.8718L90.9543 14.6011C92.9398 13.6129 93.3192 13.3422 93.8045 12.9988C93.9325 12.9064 94.067 12.8117 94.2259 12.7039C94.5369 12.1735 95.0223 12.0436 95.6223 11.8632C95.9532 11.7685 96.9901 11.2205 97.6783 10.8595C99.4697 9.91316 100.105 9.60723 100.743 9.60723H102.887C103.675 8.85323 104.593 8.24644 105.596 7.8157C106.116 7.62172 106.618 7.38312 107.096 7.10261C107.343 6.96175 107.652 6.78568 108.12 6.55019C108.525 6.3477 108.698 6.27067 108.812 6.22005C108.976 6.14742 109.015 6.12981 110.548 5.26926C111.568 4.69703 111.751 4.58478 111.784 4.56497C111.903 4.48354 111.903 4.48354 112.92 3.93772C114.811 2.9209 114.811 2.9209 115.821 2.34647C116.981 1.6862 119.554 0.962101 119.842 0.880667L120.575 0.678185L121.321 1.25482L121.696 0.915882C121.762 0.799815 121.842 0.691963 121.934 0.594551C122.737 -0.270403 123.968 0.0377229 124.431 0.154371C124.809 0.236926 125.192 0.292093 125.578 0.319438C126.498 0.409675 127.756 0.539528 128.164 1.74782C128.455 2.62818 128.358 3.4161 128.212 4.1468C128.157 4.38697 128.084 4.62246 127.992 4.85109C128.306 5.18401 128.584 5.54835 128.823 5.93833C128.907 6.06819 129.017 6.23766 129.086 6.32129C129.642 6.60961 130.63 7.20165 131.01 7.42174C132.073 7.8025 133.657 8.62343 133.657 10.1443C133.657 10.2178 133.652 10.2913 133.644 10.3643C133.917 10.733 134.17 11.1158 134.402 11.511L134.753 11.9204C135.119 12.4003 135.59 12.791 136.13 13.0626H136.152C136.357 12.9909 136.575 12.9631 136.792 12.9812C137.877 13.0693 138.131 13.8946 138.453 14.9378C138.584 15.3113 138.669 15.6993 138.706 16.0933C138.775 16.2407 138.863 16.4256 138.962 16.6435C139.426 17.5884 140.206 18.3415 141.168 18.7718L141.371 18.8444L141.548 18.9677C142.094 19.3483 142.597 19.7858 143.05 20.2728L143.257 20.3476C143.919 20.5897 145.022 20.9925 145.847 22.0797C146.24 22.6013 146.434 22.8324 146.624 23.0547C146.845 23.3188 147.065 23.5697 147.482 24.1552C148.23 25.1984 148.931 26.2284 149.304 27.3443C149.474 27.8415 149.617 28.3477 149.73 28.8607C149.781 29.0676 149.84 29.3185 149.924 29.653C150.078 30.269 150.163 30.9001 150.178 31.5348C150.18 31.6889 150.193 31.8427 150.218 31.9948C150.282 32.2523 150.509 32.8752 150.714 33.4056C153.646 35.415 153.408 36.6035 153.315 37.0635C153.24 37.3874 153.137 37.7041 153.006 38.0098C152.986 38.0627 152.96 38.1265 152.938 38.1881C153.096 38.4082 153.24 38.6437 153.379 38.8814C153.599 39.2291 153.847 39.6209 154.206 40.1227C154.658 40.772 155.06 41.4548 155.408 42.1651C156.47 42.6736 156.999 43.3514 156.99 44.1922C156.99 44.5751 156.84 45.4929 155.603 45.9529C155.516 46.0747 155.414 46.1843 155.298 46.2786C154.685 46.7694 154.094 46.6374 153.348 46.4723C153.021 46.3997 152.801 46.3469 152.64 46.3006C152.435 46.9099 152.109 47.472 151.682 47.9535C151.654 48.2113 151.561 48.458 151.413 48.671C151.023 49.2344 150.48 49.3313 149.997 49.4127C149.933 49.5976 149.882 49.7583 149.834 49.9035C149.685 50.3979 149.499 50.8805 149.278 51.3473L149.355 51.3121C149.673 51.1811 150.02 51.1365 150.361 51.1829C150.702 51.2293 151.025 51.365 151.296 51.5762C151.623 51.5773 151.941 51.6805 152.205 51.8711C152.88 52.3575 152.88 53.0486 152.88 53.6054C152.88 54.6861 152.732 56.3103 152.728 56.3786L152.629 57.479L151.563 57.7431C150.881 57.9091 150.219 58.1513 149.591 58.465C149.591 58.5486 149.578 58.6367 149.571 58.7269C149.52 59.4642 149.452 60.4436 148.746 61.1699C149.335 62.7876 149.613 65.169 149.642 65.4463L149.732 66.2386L148.426 67.3963C148.448 67.5987 148.466 67.8144 148.473 68.0213C148.59 68.1908 148.834 68.4615 148.976 68.6178C149.18 68.8312 149.369 69.0592 149.54 69.3C150.023 70.0241 150.632 71.1202 150.339 72.2845C150.295 72.4706 150.237 72.653 150.165 72.8303C150.165 72.8897 150.127 73.0504 150.081 73.4201C150.043 73.7085 150.028 73.9109 150.015 74.0914C150 74.4676 149.926 74.839 149.794 75.1919L150.513 75.5264L150.374 76.563L150.317 77.3245C150.798 77.0934 151.471 76.9812 152.377 77.3707C152.574 77.4544 152.818 77.5336 153.088 77.6172C153.948 77.8924 155.969 78.5372 155.64 80.5026L155.616 80.6457C155.468 81.5415 155.395 81.8826 154.764 83.1349C154.46 83.7944 153.98 84.3578 153.377 84.7636C153.186 84.8894 153.023 85.0517 152.896 85.2412C152.599 85.6554 152.271 86.0461 151.914 86.4098C151.468 86.871 151.058 87.3646 150.685 87.8866C150.352 88.3513 149.968 88.7773 149.54 89.1566C149.701 89.5263 149.732 90.0369 149.386 90.7214C149.293 90.9019 149.137 91.1968 148.894 91.6546C148.627 92.1608 148.439 92.5834 148.272 92.9597C147.389 94.9405 146.507 95.7262 143.842 94.8921L142.543 94.4937C141.036 94.0652 139.558 93.5448 138.115 92.9355C137.829 92.7902 137.516 92.7084 137.195 92.6956C135.962 92.6384 135.43 92.0662 134.398 90.673C133.973 90.1338 133.695 89.4937 133.593 88.8154H133.295C131.87 88.8154 131.53 88.9497 131.272 89.0465C130.465 89.3613 129.854 89.4141 128.031 89.0817C126.209 88.7494 125.247 88.5007 124.502 88.3026C123.934 88.143 123.358 88.0137 122.777 87.9153C121.958 87.7913 121.187 87.4568 120.537 86.9447L120.44 86.8742C119.423 87.0943 118.896 87.0107 118.455 86.8984L118.384 86.8808H118.345C118.107 87.0495 117.904 87.2625 117.747 87.5081L117.098 88.5161L116.503 88.3224C116.473 88.4679 116.426 88.6092 116.361 88.7428C116.167 89.1588 115.728 89.6804 114.753 89.819C114.331 89.8811 113.899 89.8442 113.493 89.7112C113.348 89.9313 113.213 90.1074 113.096 90.268L112.944 90.4881C114.228 92.9091 112.807 94.1614 112.333 94.5796L111.969 94.9009C111.657 95.156 111.362 95.4317 111.087 95.7262C111.085 95.7409 111.085 95.7556 111.087 95.7703C111.087 95.8755 111.094 95.9806 111.107 96.085C111.212 97.0534 110.97 97.5618 110.191 98.5984C110.159 98.629 110.134 98.666 110.118 98.707C110.101 98.748 110.094 98.792 110.096 98.8361C109.917 100.632 108.38 100.749 107.449 100.817C106.679 100.876 106.251 100.934 105.874 100.984C105.239 101.078 104.598 101.122 103.957 101.114H103.855C103.784 101.27 103.696 101.418 103.593 101.554C103.246 102.023 102.567 102.578 101.316 102.578H98.9071L97.9122 103.341L97.5879 105.613L96.807 105.958C96.6415 106.033 95.1502 106.678 93.8332 106.678C93.4212 106.672 93.0106 106.629 92.6066 106.548C92.1213 106.462 92.0264 106.456 91.7992 106.548C91.3202 106.749 90.8711 107.015 90.4646 107.338V107.431C90.4732 107.839 90.4384 108.247 90.3609 108.648C90.3178 108.868 90.2474 109.081 90.1513 109.284C90.4605 109.402 90.7245 109.615 90.9059 109.891C91.0872 110.168 91.1767 110.494 91.1617 110.824C91.1021 112.009 90.1028 112.257 89.2204 112.477C88.4419 112.655 87.6738 112.876 86.9194 113.138L86.8797 113.153L85.309 113.723C84.9012 113.901 84.4615 113.996 84.0163 114ZM80.758 106.986C82.0485 107.206 82.4809 107.972 82.8625 108.643C83.0555 108.995 83.2676 109.336 83.4979 109.665L83.9038 110.246C84.0355 110.432 84.1354 110.639 84.1994 110.857L85.7966 110.276C85.9091 110.235 86.2797 110.096 86.9768 109.893C86.829 109.163 86.8621 108.531 87.3408 107.928C87.3614 107.765 87.3695 107.601 87.3651 107.437C87.3481 107.038 87.3996 106.638 87.5173 106.255C87.9739 104.886 90.1447 103.9 90.5749 103.716C91.3846 103.375 92.2824 103.303 93.1361 103.511C93.3626 103.558 93.593 103.585 93.8244 103.592C94.147 103.574 94.4659 103.514 94.773 103.414L95.0245 101.653L97.846 99.4854H100.844L100.403 98.0218H103.946C104.45 98.0291 104.954 97.9952 105.452 97.9205C105.843 97.8677 106.335 97.8017 107.158 97.7379C107.284 97.3776 107.466 97.0395 107.698 96.7365C107.855 96.5274 107.95 96.3931 108.005 96.3095C107.992 96.173 107.976 95.9882 107.976 95.7571C107.976 94.2693 108.784 93.5562 109.902 92.5768L110.255 92.2642C110.282 92.2417 110.307 92.2174 110.33 92.1916C110.278 92.0787 110.221 91.9685 110.158 91.8615C109.994 91.5956 109.868 91.3082 109.783 91.0075C109.507 89.9071 110.098 89.0993 110.575 88.4501C110.747 88.2124 110.943 87.9461 111.146 87.6225C111.501 87.0525 112.046 86.4847 112.825 86.39C112.875 85.9647 113.081 85.5729 113.403 85.2896C113.639 85.0827 114.204 84.5831 115.854 84.922C116.366 84.3689 117.039 83.9889 117.778 83.8348C118.241 83.7492 118.717 83.7687 119.172 83.892C119.365 83.9313 119.565 83.9168 119.75 83.8502C120.203 83.7327 120.677 83.7262 121.133 83.8312C121.589 83.9362 122.013 84.1496 122.368 84.4532C122.623 84.674 122.938 84.8149 123.273 84.8582C123.95 84.9702 124.621 85.1171 125.283 85.2984C126.015 85.4943 126.847 85.7122 128.576 86.0269C129.717 86.2338 129.977 86.2052 130.017 86.1986L130.145 86.1523C130.743 85.919 131.435 85.7122 133.288 85.7122C134.87 85.7122 135.825 85.7122 136.439 86.5155C136.614 86.7599 136.728 87.0428 136.771 87.3404C136.814 87.6381 136.785 87.9417 136.686 88.2256C136.637 88.3973 136.617 88.4699 136.882 88.8286C137.193 89.2512 137.376 89.4889 137.484 89.6033C138.122 89.6507 138.746 89.8125 139.326 90.0809C140.665 90.6468 142.038 91.129 143.436 91.5247C143.838 91.6458 144.27 91.78 144.76 91.9297C144.98 92.0001 145.15 92.0441 145.274 92.075L145.446 91.692C145.609 91.3244 145.808 90.8733 146.088 90.334C146.016 90.0941 145.982 89.8448 145.984 89.5945C145.984 88.0957 146.712 87.4861 147.244 87.0393C147.601 86.7549 147.918 86.4232 148.186 86.0533C148.635 85.4213 149.131 84.8239 149.67 84.2662C149.929 84.0072 150.166 83.7275 150.379 83.4298C150.705 82.9644 151.113 82.5618 151.583 82.2413C151.783 82.1258 151.938 81.9468 152.024 81.7329C152.223 81.3853 152.38 81.016 152.494 80.6325L152.168 80.5268C151.947 80.4542 151.698 80.3772 151.451 80.2847C151.077 80.5945 150.662 80.8508 150.218 81.0462C148.991 81.5899 148.175 81.0859 147.881 80.8438C146.933 80.0624 147.05 78.7463 147.178 78.0992L147.253 77.1418C146.934 76.8388 146.698 76.4602 146.567 76.0414C146.482 75.7525 146.459 75.4492 146.499 75.151C146.539 74.8527 146.641 74.5661 146.798 74.3093C146.849 74.2318 146.894 74.1509 146.933 74.0672C146.933 74.054 146.933 73.9263 146.95 73.8251C146.966 73.6314 146.986 73.3695 147.032 73.0086C147.131 72.2096 147.182 71.9675 147.319 71.6396V71.6176C147.232 71.3929 147.117 71.1805 146.975 70.9859C146.937 70.9331 146.792 70.7658 146.686 70.6558C146.11 70.0175 145.395 69.2252 145.395 68.2348C145.379 67.8283 145.337 67.4232 145.269 67.0221L145.128 66.1836L146.474 64.9907C146.339 64.1103 146.103 62.8338 145.799 62.0723C145.426 61.1435 145.179 60.5317 145.541 59.7966C145.729 59.416 146.056 59.1216 146.454 58.9734C146.472 58.8282 146.485 58.6389 146.494 58.4958C146.514 58.2207 146.536 57.9082 146.589 57.5869C146.689 57.0794 146.96 56.6212 147.356 56.2883C146.068 56.1277 145.241 54.9986 144.888 53.9378C144.552 52.9364 145.152 52.0626 145.847 51.0524C146.061 50.7541 146.258 50.4448 146.439 50.1258C146.628 49.7448 146.783 49.3478 146.902 48.9395C147.017 48.5874 147.16 48.1516 147.394 47.5067C147.705 46.6528 148.056 45.6822 149.258 45.7768C149.321 45.7811 149.384 45.7899 149.445 45.8032C149.531 45.6921 149.605 45.5726 149.666 45.4467L149.805 44.3308C149.88 43.7432 150.001 42.7616 151.08 42.5063C151.453 42.42 151.845 42.4708 152.183 42.6493C152.035 42.3984 151.874 42.1387 151.704 41.9032C151.294 41.3288 151.007 40.8776 150.778 40.5145C150.584 40.2085 150.429 39.9642 150.257 39.7376C149.443 38.6525 149.884 37.5058 150.125 36.8896C149.651 36.4554 149.141 36.0623 148.601 35.7143L148.188 35.448L148.005 34.9924C147.901 34.7327 147.372 33.399 147.209 32.7453C147.127 32.3922 147.084 32.0314 147.081 31.6691C147.072 31.2424 147.017 30.818 146.915 30.4035C146.827 30.0536 146.765 29.7917 146.712 29.576C146.619 29.1516 146.502 28.7328 146.361 28.3215C146.123 27.6128 145.561 26.7941 144.954 25.9489C144.608 25.4647 144.451 25.2886 144.255 25.0465C144.058 24.8045 143.813 24.5227 143.372 23.9285C143.105 23.5741 142.664 23.4135 142.196 23.244C141.676 23.0547 141.093 22.8412 140.692 22.2646C140.444 22.013 140.174 21.7832 139.887 21.5779C138.251 20.8507 136.93 19.5622 136.165 17.9464C135.944 17.4909 135.825 17.2201 135.755 17.0661C135.629 16.81 135.554 16.5319 135.534 16.2474C135.338 16.176 135.15 16.083 134.974 15.97L134.508 15.6839C133.699 15.2389 132.989 14.6355 132.419 13.91C132.159 13.6435 131.93 13.3481 131.738 13.0296C131.687 12.9438 131.557 12.7127 130.868 11.7509C130.608 11.3878 130.438 11.1523 130.334 11.0026C130.183 10.7925 130.068 10.5591 129.993 10.3115L129.871 10.2675L129.715 10.2147L129.569 10.1288C129.174 9.89115 128.056 9.23088 127.619 9.01299C126.942 8.67626 126.553 8.07981 126.242 7.60221C126.101 7.36082 125.929 7.13885 125.73 6.94195C124.316 5.81288 124.866 4.3889 125.069 3.86069C125.113 3.75712 125.15 3.65046 125.179 3.54156C125.179 3.48213 125.201 3.42931 125.21 3.37869C124.737 3.33984 124.267 3.27074 123.802 3.1718L121.506 5.25386L119.929 4.07417C118.989 4.36029 117.824 4.75645 117.336 5.03376C116.293 5.63021 116.293 5.63021 114.367 6.66243L113.465 7.14883C113.366 7.21486 113.185 7.3271 112.044 7.96757C110.436 8.86993 110.363 8.90735 110.059 9.04381C109.962 9.08782 109.825 9.14945 109.483 9.31892C109.09 9.5148 108.845 9.65565 108.6 9.78991C107.998 10.1413 107.367 10.4424 106.714 10.6901C105.805 11.0532 104.916 11.8962 104.652 12.1889L104.206 12.6995H100.897C100.546 12.836 99.6903 13.2871 99.1079 13.5931C97.8967 14.2335 97.107 14.6407 96.5158 14.819C96.3599 14.9688 96.1908 15.1043 96.0106 15.2239C95.8407 15.3362 95.7061 15.4308 95.5804 15.5211C95.0112 15.9238 94.5193 16.2738 92.3221 17.3676C91.7264 17.6669 91.2962 17.8694 91.0095 17.9883C90.7019 18.1289 90.3683 18.2039 90.03 18.2084L88.7858 18.8532C86.8246 19.8744 85.2693 20.6778 84.5435 20.9485C84.2025 21.0869 83.8533 21.2045 83.4979 21.3006C83.1846 21.3887 82.5294 21.5691 80.641 22.1502C80.0984 22.3152 79.7255 22.4341 79.4696 22.5199C79.1387 22.8561 78.7339 23.1108 78.2872 23.2638L77.9254 23.4135C76.6702 23.9373 76.5885 23.9637 75.0112 24.3313L74.2325 24.5117C73.5045 24.6834 73.0324 24.8133 72.6507 24.9167C71.6315 25.1962 71.2389 25.2842 69.7696 25.2842H66.0569C65.4105 25.4625 63.114 26.662 61.3028 27.7052L61.1506 27.7933L60.9807 27.8439C59.924 28.1696 57.1069 29.0346 56.7606 29.1512L56.6392 29.193C55.1238 29.7103 53.5695 30.1062 51.9911 30.3771C51.2564 30.4974 50.5373 30.6981 49.8468 30.9758C48.5632 31.4637 47.2418 31.8465 45.8958 32.1202C45.4943 32.2105 45.1943 32.2809 44.9715 32.3403C44.8259 33.0006 44.3913 33.6213 43.6478 34.2727C42.0308 35.6681 41.7572 35.8794 41.1241 36.0334H41.0976C41.0976 36.0334 41.0623 36.0466 40.9785 36.0863C40.6213 36.2963 40.2858 36.541 39.977 36.817C39.4871 37.2457 38.9599 37.6302 38.4018 37.9658C37.9043 38.257 37.3798 38.4995 36.8355 38.6899C36.4826 38.822 35.9995 39.0025 35.1634 39.3502C34.2677 39.7332 33.9964 39.8674 33.9258 39.9114L33.8905 39.9378C33.6484 40.127 33.3909 40.2956 33.1206 40.4418C32.8188 40.6207 32.5452 40.8432 32.3087 41.1021C31.828 41.5992 31.2938 42.0421 30.716 42.4227C30.2439 42.7374 29.8688 42.9751 29.5048 43.204C28.843 43.6265 28.2628 43.9919 27.2481 44.7292C25.3001 46.1422 23.736 46.3249 21.9535 46.3403C20.7932 46.8157 16.3502 48.6402 15.2317 49.1354C14.8224 49.3066 14.4283 49.512 14.0537 49.7495C13.7316 49.9475 13.2904 50.2182 12.4014 50.6936L12.2028 50.8037C12.1774 51.2014 12.0849 51.5921 11.9293 51.9592C11.7087 52.494 11.7616 52.7009 11.8719 53.2005C11.9765 53.6129 12.0327 54.0362 12.0396 54.4616C12.0396 55.4872 11.4528 56.7197 10.7446 58.1107C10.6453 58.3043 10.524 58.5508 10.4843 58.6345C10.385 58.9294 10.0585 59.7789 7.82381 62.2308C7.66291 62.405 7.51543 62.5912 7.3826 62.7876L7.71351 63.1177L7.15759 64.1301C5.95088 66.331 4.34488 69.0733 3.53967 69.716C3.52773 69.7253 3.51666 69.7356 3.50658 69.7468C3.47822 69.8491 3.45902 69.9537 3.44922 70.0593C3.42657 70.2776 3.38449 70.4934 3.32348 70.7042C3.24406 71.1158 3.12934 72.9051 3.10287 74.3115C3.35731 74.4359 3.59767 74.5872 3.81984 74.7627C4.81476 75.5352 5.34642 76.2241 5.11037 77.4588C5.0751 77.5833 5.0751 77.7151 5.11037 77.8395C5.192 78.2137 5.85602 78.8343 6.41194 79.1711C6.78918 79.3692 9.55115 80.8152 10.8064 81.5128C11.1329 81.6933 11.455 81.6735 12.3506 81.5723C13.2235 81.4568 14.1052 81.4214 14.9846 81.4666C16.1097 81.537 16.3789 81.537 16.5399 81.537C16.9221 81.5425 17.3036 81.5697 17.6826 81.6185C18.2099 81.6713 18.6445 81.7241 19.0261 81.7703C19.551 81.8462 20.0799 81.8903 20.6101 81.9024C20.7954 81.9024 20.9873 81.9024 21.1925 81.8892C22.3515 81.8275 23.5138 81.8872 24.6604 82.0675C25.1862 82.1344 25.7037 82.2554 26.2046 82.4284C26.4009 82.4966 26.5863 82.5627 28.0312 82.6375C29.1497 82.6969 29.4519 82.5275 30.1733 82.1159C31.1881 81.5161 32.2849 81.0668 33.4294 80.7821C33.9551 80.6587 34.4712 80.4976 34.9736 80.3001C35.2069 79.8445 35.5513 79.4547 35.9752 79.1667C36.9966 78.4008 37.44 78.2181 38.3511 78.1807C38.5099 78.1807 38.6732 78.1675 38.9092 78.1389C40.1314 77.987 40.6454 78.2577 41.4043 78.9642C41.9247 79.4553 42.4823 79.9056 43.072 80.3111L43.2221 80.4168L43.3434 80.5532C44.5104 81.8738 47.6783 85.4524 48.3974 86.1765C48.504 86.2177 48.6079 86.2655 48.7085 86.3196C49.1988 86.2794 49.6805 86.1675 50.138 85.9873L51.5918 85.4282L52.5205 87.8734C52.8124 88.0365 53.0848 88.2322 53.3324 88.4567L53.8111 88.8792C54.4941 88.9837 55.1853 89.0256 55.8759 89.0047C56.6304 88.7736 57.7709 88.6614 59.3571 88.6614C60.1733 88.6614 60.2991 88.5843 60.6388 88.3796C60.9259 88.1998 61.226 88.0416 61.5367 87.9064C61.9488 87.721 62.3951 87.6235 62.8472 87.6201C63.2992 87.6167 63.747 87.7075 64.1619 87.8866L64.281 87.9285H65.8142C66.9613 87.9285 67.6386 88.8088 68.3556 89.7508C68.6335 90.1118 68.9468 90.5211 69.3152 90.9349L69.3461 90.9701C69.6564 91.0527 69.9535 91.1787 70.2285 91.3443L70.2748 91.3685C70.5652 91.3679 70.8544 91.4049 71.1352 91.4785L71.4308 91.5445C72.6816 91.8152 73.3368 91.9979 74.2766 93.0984L74.3406 93.1226C75.0693 92.9985 75.812 92.9777 76.5466 93.061C77.2305 93.138 78.1703 93.2414 78.457 94.2891C78.526 94.544 78.5289 94.8122 78.4656 95.0685C78.4024 95.3249 78.2749 95.561 78.0953 95.7549C78.1385 95.9962 78.1277 96.2441 78.0637 96.4808C77.9996 96.7174 77.8838 96.937 77.7246 97.1238C77.5326 97.3429 77.2838 97.5051 77.0055 97.5926C76.9127 97.7177 76.828 97.8486 76.7518 97.9844C76.7518 98.0174 76.7407 98.0504 76.7341 98.0856C76.6878 98.3828 76.6229 98.6768 76.54 98.966C76.2025 100.139 75.9708 100.54 75.7061 100.804L75.2252 101.284L74.5435 101.253C73.8971 101.224 73.1736 101.202 72.5581 101.193L72.611 101.321C73.0143 101.569 73.4481 101.765 73.9016 101.902L74.2656 102.014L74.7994 102.547L75.812 101.847L75.9995 101.779C77.0209 101.409 78.4416 101.07 79.4167 101.559C80.6256 102.162 80.6079 103.258 80.5991 103.784C80.5853 104.134 80.6127 104.485 80.6807 104.829C80.9013 105.952 80.9433 106.282 80.7822 106.946C80.7754 106.96 80.7672 106.974 80.758 106.986ZM100.992 99.9894V100.016V99.9806V99.9894ZM55.812 89.0245L55.7811 89.0355L55.812 89.0245ZM3.297 70.757C3.29795 70.7658 3.29795 70.7747 3.297 70.7834C3.297 70.7834 3.31024 70.7636 3.31245 70.7548L3.297 70.757Z"/>
</mask>
<path d="M84.0163 114C83.479 114.009 82.9506 113.862 82.4947 113.578C82.0388 113.295 81.6747 112.886 81.4462 112.4C81.3278 112.174 81.2332 111.935 81.1639 111.689L80.9786 111.432C80.692 111.023 80.427 110.599 80.1844 110.162L80.0895 109.995C79.5165 109.929 78.9689 109.722 78.4968 109.392C77.9982 109.009 77.4467 108.278 77.6342 106.971C77.6687 106.724 77.7158 106.479 77.7754 106.238C77.7754 106.225 77.7754 106.209 77.7754 106.198C77.7644 106.084 77.718 105.831 77.6386 105.441C77.5791 105.142 77.5379 104.84 77.5151 104.536C77.4136 104.565 77.3121 104.594 77.215 104.624L74.4244 106.552L72.6 104.73C71.6095 104.382 70.2329 103.722 69.7983 102.637C69.7586 102.54 69.7101 102.43 69.6593 102.311C69.2181 101.301 68.7416 100.157 69.2314 99.1773C69.3478 98.9427 69.5142 98.7364 69.7188 98.5725C69.9234 98.4087 70.1613 98.2914 70.416 98.2287C70.8572 98.1186 71.9117 98.09 73.5574 98.1406V98.1296C73.6068 97.9569 73.6451 97.7812 73.6721 97.6036C73.726 97.1826 73.8664 96.7772 74.0847 96.4129L73.9567 96.4592L73.4559 96.1136C72.7434 96.0828 72.4147 95.6888 71.9602 95.1452C71.6271 94.7447 71.6271 94.7446 70.7734 94.5598L70.5726 94.5158C69.9924 94.7028 69.4961 94.4629 68.8718 94.1196C68.093 94.2054 67.6474 93.708 67.0055 92.9861C66.5642 92.4887 66.1936 92.0111 65.9024 91.626C65.7436 91.4191 65.5583 91.1858 65.4193 91.0141H64.1994C63.8166 91.0052 63.4388 90.9253 63.0853 90.7786C63.0135 90.7496 62.9398 90.7253 62.8647 90.706C62.8269 90.7151 62.79 90.7277 62.7544 90.7434C62.5754 90.8224 62.4028 90.9152 62.2382 91.0207C61.5565 91.4323 60.9146 91.747 59.3571 91.747C57.5481 91.747 56.915 91.9099 56.765 91.9671C55.9554 92.2356 53.8751 92.0573 53.0588 91.8747C52.615 91.8332 52.2008 91.634 51.8918 91.3134C51.7793 91.2122 51.5984 91.0493 51.2984 90.7874C51.2653 90.7588 51.2366 90.7324 51.2102 90.7126C50.341 90.6224 49.9615 89.8322 49.7564 89.304C49.0823 89.4556 48.3811 89.4374 47.7158 89.2512C47.0871 89.2248 46.5951 88.734 46.2355 88.3708C45.4038 87.5411 41.8609 83.5289 41.1506 82.7233C40.4995 82.2666 39.8824 81.7635 39.3041 81.2179L39.2843 81.2003C38.9269 81.2443 38.6732 81.2531 38.4857 81.2619H38.3621C38.1804 81.3746 38.0051 81.4973 37.8371 81.6295C37.8091 81.6487 37.7825 81.6701 37.7577 81.6933V81.7153C37.2657 82.8158 36.4054 83.2229 34.228 83.7908C33.3435 84.0057 32.497 84.3538 31.7175 84.823C30.8351 85.327 29.9086 85.8486 27.8878 85.7408C26.1781 85.6505 25.7568 85.5559 25.2009 85.3622C24.8804 85.2533 24.549 85.1795 24.2125 85.1421C23.2593 84.9921 22.2928 84.9434 21.3292 84.9969C21.0822 84.9969 20.8527 85.0123 20.6321 85.0123C19.9779 85.0017 19.3251 84.9495 18.6776 84.856C18.3136 84.8142 17.8988 84.7636 17.3981 84.7129C17.1208 84.6755 16.8417 84.6534 16.562 84.6469C16.3524 84.6469 16.0369 84.6469 14.8148 84.5721C14.1141 84.5369 13.4117 84.5678 12.7168 84.6645C11.6447 84.7834 10.535 84.9088 9.31951 84.2243C8.02898 83.5113 4.98022 81.9178 4.94933 81.9002L4.88977 81.8672C4.49709 81.6471 2.52489 80.408 2.10574 78.5284C2.01007 78.122 1.98248 77.7025 2.02411 77.2871L1.93146 77.2145L1.89616 77.1881C1.68922 77.2229 1.47743 77.2165 1.27297 77.1693C1.06852 77.1221 0.875453 77.035 0.704898 76.913C0.0144053 76.4156 0.0144043 75.7487 0.0144043 74.974C0.0144043 74.4744 0.0872037 70.7923 0.376196 69.8349C0.386173 69.7839 0.393537 69.7325 0.398258 69.6808C0.430395 69.2337 0.552202 68.7976 0.756456 68.3984C0.96071 67.9991 1.24325 67.6449 1.58732 67.3567C1.96676 66.9583 3.1514 65.0083 4.15736 63.2124C4.10221 62.4861 4.37797 61.4692 5.55158 60.1773C7.1995 58.3682 7.53703 57.7035 7.58556 57.6287C7.70613 57.3215 7.84613 57.0223 8.00471 56.7329C8.22531 56.2927 8.93345 54.9128 8.96434 54.4682C8.95264 54.2727 8.9216 54.0788 8.87169 53.8893C8.58951 52.8776 8.66109 51.8002 9.07464 50.8345C9.09318 50.7899 9.10938 50.7443 9.12317 50.698C8.76138 49.1772 9.92397 48.5522 10.9498 48.0019C11.7616 47.5618 12.1433 47.3417 12.4499 47.1436C12.9423 46.8351 13.4587 46.5665 13.9941 46.3403C15.3178 45.7526 20.8439 43.4791 21.0777 43.3955L21.3601 43.2788H21.6646C23.4757 43.2788 24.2346 43.1379 25.4501 42.2576C26.5532 41.4631 27.1885 41.0559 27.8768 40.6245C28.2253 40.4044 28.5871 40.1733 29.0305 39.8784C29.4379 39.6068 29.8138 39.2908 30.1512 38.9364C30.5799 38.4806 31.0725 38.0891 31.6138 37.7744C31.7561 37.6992 31.8919 37.6123 32.0197 37.5146C32.3705 37.2395 32.6374 37.0943 33.9743 36.5242C34.8744 36.1391 35.395 35.9432 35.7744 35.8023C36.1653 35.6682 36.5415 35.495 36.8973 35.2851C37.2959 35.04 37.673 34.7617 38.0246 34.4532C38.5102 34.0239 39.0431 33.6511 39.613 33.3417C39.8304 33.2292 40.0588 33.1392 40.2946 33.0732C40.5836 32.8531 41.3668 32.1819 41.6403 31.9464C41.742 31.8597 41.8385 31.7671 41.9293 31.6691C41.8806 31.2877 41.954 30.9008 42.1391 30.5636C42.3241 30.2264 42.6113 29.9562 42.9595 29.7917C43.3721 29.5716 43.95 29.4065 45.2516 29.1182C46.4504 28.8779 47.6273 28.5393 48.7703 28.1058C49.6396 27.7618 50.5433 27.5116 51.4661 27.3597C52.8894 27.1155 54.291 26.7585 55.6575 26.2923L55.7987 26.2438C56.2046 26.1074 59.1078 25.2138 59.9196 24.9673C64.6957 22.2118 65.6201 22.2118 65.9708 22.2118H69.7851C70.908 22.2118 71.0337 22.1788 71.8477 21.9543C72.2316 21.8486 72.7588 21.7056 73.5398 21.5141L74.3251 21.3314C75.6973 21.0123 75.6973 21.0123 76.7518 20.5743L76.9128 20.5083C77.1987 20.1565 77.5824 19.8969 78.0158 19.7622C78.36 19.6345 78.9093 19.4563 79.7476 19.1988C81.6735 18.6089 82.3573 18.4196 82.686 18.3184C82.9541 18.2459 83.2171 18.1562 83.4736 18.0499C84.0781 17.8298 86.0591 16.791 87.3695 16.1087C89.0086 15.2547 89.4189 15.0457 89.6902 14.9576C89.919 14.879 90.1619 14.8498 90.4028 14.8718L90.9543 14.6011C92.9398 13.6129 93.3192 13.3422 93.8045 12.9988C93.9325 12.9064 94.067 12.8117 94.2259 12.7039C94.5369 12.1735 95.0223 12.0436 95.6223 11.8632C95.9532 11.7685 96.9901 11.2205 97.6783 10.8595C99.4697 9.91316 100.105 9.60723 100.743 9.60723H102.887C103.675 8.85323 104.593 8.24644 105.596 7.8157C106.116 7.62172 106.618 7.38312 107.096 7.10261C107.343 6.96175 107.652 6.78568 108.12 6.55019C108.525 6.3477 108.698 6.27067 108.812 6.22005C108.976 6.14742 109.015 6.12981 110.548 5.26926C111.568 4.69703 111.751 4.58478 111.784 4.56497C111.903 4.48354 111.903 4.48354 112.92 3.93772C114.811 2.9209 114.811 2.9209 115.821 2.34647C116.981 1.6862 119.554 0.962101 119.842 0.880667L120.575 0.678185L121.321 1.25482L121.696 0.915882C121.762 0.799815 121.842 0.691963 121.934 0.594551C122.737 -0.270403 123.968 0.0377229 124.431 0.154371C124.809 0.236926 125.192 0.292093 125.578 0.319438C126.498 0.409675 127.756 0.539528 128.164 1.74782C128.455 2.62818 128.358 3.4161 128.212 4.1468C128.157 4.38697 128.084 4.62246 127.992 4.85109C128.306 5.18401 128.584 5.54835 128.823 5.93833C128.907 6.06819 129.017 6.23766 129.086 6.32129C129.642 6.60961 130.63 7.20165 131.01 7.42174C132.073 7.8025 133.657 8.62343 133.657 10.1443C133.657 10.2178 133.652 10.2913 133.644 10.3643C133.917 10.733 134.17 11.1158 134.402 11.511L134.753 11.9204C135.119 12.4003 135.59 12.791 136.13 13.0626H136.152C136.357 12.9909 136.575 12.9631 136.792 12.9812C137.877 13.0693 138.131 13.8946 138.453 14.9378C138.584 15.3113 138.669 15.6993 138.706 16.0933C138.775 16.2407 138.863 16.4256 138.962 16.6435C139.426 17.5884 140.206 18.3415 141.168 18.7718L141.371 18.8444L141.548 18.9677C142.094 19.3483 142.597 19.7858 143.05 20.2728L143.257 20.3476C143.919 20.5897 145.022 20.9925 145.847 22.0797C146.24 22.6013 146.434 22.8324 146.624 23.0547C146.845 23.3188 147.065 23.5697 147.482 24.1552C148.23 25.1984 148.931 26.2284 149.304 27.3443C149.474 27.8415 149.617 28.3477 149.73 28.8607C149.781 29.0676 149.84 29.3185 149.924 29.653C150.078 30.269 150.163 30.9001 150.178 31.5348C150.18 31.6889 150.193 31.8427 150.218 31.9948C150.282 32.2523 150.509 32.8752 150.714 33.4056C153.646 35.415 153.408 36.6035 153.315 37.0635C153.24 37.3874 153.137 37.7041 153.006 38.0098C152.986 38.0627 152.96 38.1265 152.938 38.1881C153.096 38.4082 153.24 38.6437 153.379 38.8814C153.599 39.2291 153.847 39.6209 154.206 40.1227C154.658 40.772 155.06 41.4548 155.408 42.1651C156.47 42.6736 156.999 43.3514 156.99 44.1922C156.99 44.5751 156.84 45.4929 155.603 45.9529C155.516 46.0747 155.414 46.1843 155.298 46.2786C154.685 46.7694 154.094 46.6374 153.348 46.4723C153.021 46.3997 152.801 46.3469 152.64 46.3006C152.435 46.9099 152.109 47.472 151.682 47.9535C151.654 48.2113 151.561 48.458 151.413 48.671C151.023 49.2344 150.48 49.3313 149.997 49.4127C149.933 49.5976 149.882 49.7583 149.834 49.9035C149.685 50.3979 149.499 50.8805 149.278 51.3473L149.355 51.3121C149.673 51.1811 150.02 51.1365 150.361 51.1829C150.702 51.2293 151.025 51.365 151.296 51.5762C151.623 51.5773 151.941 51.6805 152.205 51.8711C152.88 52.3575 152.88 53.0486 152.88 53.6054C152.88 54.6861 152.732 56.3103 152.728 56.3786L152.629 57.479L151.563 57.7431C150.881 57.9091 150.219 58.1513 149.591 58.465C149.591 58.5486 149.578 58.6367 149.571 58.7269C149.52 59.4642 149.452 60.4436 148.746 61.1699C149.335 62.7876 149.613 65.169 149.642 65.4463L149.732 66.2386L148.426 67.3963C148.448 67.5987 148.466 67.8144 148.473 68.0213C148.59 68.1908 148.834 68.4615 148.976 68.6178C149.18 68.8312 149.369 69.0592 149.54 69.3C150.023 70.0241 150.632 71.1202 150.339 72.2845C150.295 72.4706 150.237 72.653 150.165 72.8303C150.165 72.8897 150.127 73.0504 150.081 73.4201C150.043 73.7085 150.028 73.9109 150.015 74.0914C150 74.4676 149.926 74.839 149.794 75.1919L150.513 75.5264L150.374 76.563L150.317 77.3245C150.798 77.0934 151.471 76.9812 152.377 77.3707C152.574 77.4544 152.818 77.5336 153.088 77.6172C153.948 77.8924 155.969 78.5372 155.64 80.5026L155.616 80.6457C155.468 81.5415 155.395 81.8826 154.764 83.1349C154.46 83.7944 153.98 84.3578 153.377 84.7636C153.186 84.8894 153.023 85.0517 152.896 85.2412C152.599 85.6554 152.271 86.0461 151.914 86.4098C151.468 86.871 151.058 87.3646 150.685 87.8866C150.352 88.3513 149.968 88.7773 149.54 89.1566C149.701 89.5263 149.732 90.0369 149.386 90.7214C149.293 90.9019 149.137 91.1968 148.894 91.6546C148.627 92.1608 148.439 92.5834 148.272 92.9597C147.389 94.9405 146.507 95.7262 143.842 94.8921L142.543 94.4937C141.036 94.0652 139.558 93.5448 138.115 92.9355C137.829 92.7902 137.516 92.7084 137.195 92.6956C135.962 92.6384 135.43 92.0662 134.398 90.673C133.973 90.1338 133.695 89.4937 133.593 88.8154H133.295C131.87 88.8154 131.53 88.9497 131.272 89.0465C130.465 89.3613 129.854 89.4141 128.031 89.0817C126.209 88.7494 125.247 88.5007 124.502 88.3026C123.934 88.143 123.358 88.0137 122.777 87.9153C121.958 87.7913 121.187 87.4568 120.537 86.9447L120.44 86.8742C119.423 87.0943 118.896 87.0107 118.455 86.8984L118.384 86.8808H118.345C118.107 87.0495 117.904 87.2625 117.747 87.5081L117.098 88.5161L116.503 88.3224C116.473 88.4679 116.426 88.6092 116.361 88.7428C116.167 89.1588 115.728 89.6804 114.753 89.819C114.331 89.8811 113.899 89.8442 113.493 89.7112C113.348 89.9313 113.213 90.1074 113.096 90.268L112.944 90.4881C114.228 92.9091 112.807 94.1614 112.333 94.5796L111.969 94.9009C111.657 95.156 111.362 95.4317 111.087 95.7262C111.085 95.7409 111.085 95.7556 111.087 95.7703C111.087 95.8755 111.094 95.9806 111.107 96.085C111.212 97.0534 110.97 97.5618 110.191 98.5984C110.159 98.629 110.134 98.666 110.118 98.707C110.101 98.748 110.094 98.792 110.096 98.8361C109.917 100.632 108.38 100.749 107.449 100.817C106.679 100.876 106.251 100.934 105.874 100.984C105.239 101.078 104.598 101.122 103.957 101.114H103.855C103.784 101.27 103.696 101.418 103.593 101.554C103.246 102.023 102.567 102.578 101.316 102.578H98.9071L97.9122 103.341L97.5879 105.613L96.807 105.958C96.6415 106.033 95.1502 106.678 93.8332 106.678C93.4212 106.672 93.0106 106.629 92.6066 106.548C92.1213 106.462 92.0264 106.456 91.7992 106.548C91.3202 106.749 90.8711 107.015 90.4646 107.338V107.431C90.4732 107.839 90.4384 108.247 90.3609 108.648C90.3178 108.868 90.2474 109.081 90.1513 109.284C90.4605 109.402 90.7245 109.615 90.9059 109.891C91.0872 110.168 91.1767 110.494 91.1617 110.824C91.1021 112.009 90.1028 112.257 89.2204 112.477C88.4419 112.655 87.6738 112.876 86.9194 113.138L86.8797 113.153L85.309 113.723C84.9012 113.901 84.4615 113.996 84.0163 114ZM80.758 106.986C82.0485 107.206 82.4809 107.972 82.8625 108.643C83.0555 108.995 83.2676 109.336 83.4979 109.665L83.9038 110.246C84.0355 110.432 84.1354 110.639 84.1994 110.857L85.7966 110.276C85.9091 110.235 86.2797 110.096 86.9768 109.893C86.829 109.163 86.8621 108.531 87.3408 107.928C87.3614 107.765 87.3695 107.601 87.3651 107.437C87.3481 107.038 87.3996 106.638 87.5173 106.255C87.9739 104.886 90.1447 103.9 90.5749 103.716C91.3846 103.375 92.2824 103.303 93.1361 103.511C93.3626 103.558 93.593 103.585 93.8244 103.592C94.147 103.574 94.4659 103.514 94.773 103.414L95.0245 101.653L97.846 99.4854H100.844L100.403 98.0218H103.946C104.45 98.0291 104.954 97.9952 105.452 97.9205C105.843 97.8677 106.335 97.8017 107.158 97.7379C107.284 97.3776 107.466 97.0395 107.698 96.7365C107.855 96.5274 107.95 96.3931 108.005 96.3095C107.992 96.173 107.976 95.9882 107.976 95.7571C107.976 94.2693 108.784 93.5562 109.902 92.5768L110.255 92.2642C110.282 92.2417 110.307 92.2174 110.33 92.1916C110.278 92.0787 110.221 91.9685 110.158 91.8615C109.994 91.5956 109.868 91.3082 109.783 91.0075C109.507 89.9071 110.098 89.0993 110.575 88.4501C110.747 88.2124 110.943 87.9461 111.146 87.6225C111.501 87.0525 112.046 86.4847 112.825 86.39C112.875 85.9647 113.081 85.5729 113.403 85.2896C113.639 85.0827 114.204 84.5831 115.854 84.922C116.366 84.3689 117.039 83.9889 117.778 83.8348C118.241 83.7492 118.717 83.7687 119.172 83.892C119.365 83.9313 119.565 83.9168 119.75 83.8502C120.203 83.7327 120.677 83.7262 121.133 83.8312C121.589 83.9362 122.013 84.1496 122.368 84.4532C122.623 84.674 122.938 84.8149 123.273 84.8582C123.95 84.9702 124.621 85.1171 125.283 85.2984C126.015 85.4943 126.847 85.7122 128.576 86.0269C129.717 86.2338 129.977 86.2052 130.017 86.1986L130.145 86.1523C130.743 85.919 131.435 85.7122 133.288 85.7122C134.87 85.7122 135.825 85.7122 136.439 86.5155C136.614 86.7599 136.728 87.0428 136.771 87.3404C136.814 87.6381 136.785 87.9417 136.686 88.2256C136.637 88.3973 136.617 88.4699 136.882 88.8286C137.193 89.2512 137.376 89.4889 137.484 89.6033C138.122 89.6507 138.746 89.8125 139.326 90.0809C140.665 90.6468 142.038 91.129 143.436 91.5247C143.838 91.6458 144.27 91.78 144.76 91.9297C144.98 92.0001 145.15 92.0441 145.274 92.075L145.446 91.692C145.609 91.3244 145.808 90.8733 146.088 90.334C146.016 90.0941 145.982 89.8448 145.984 89.5945C145.984 88.0957 146.712 87.4861 147.244 87.0393C147.601 86.7549 147.918 86.4232 148.186 86.0533C148.635 85.4213 149.131 84.8239 149.67 84.2662C149.929 84.0072 150.166 83.7275 150.379 83.4298C150.705 82.9644 151.113 82.5618 151.583 82.2413C151.783 82.1258 151.938 81.9468 152.024 81.7329C152.223 81.3853 152.38 81.016 152.494 80.6325L152.168 80.5268C151.947 80.4542 151.698 80.3772 151.451 80.2847C151.077 80.5945 150.662 80.8508 150.218 81.0462C148.991 81.5899 148.175 81.0859 147.881 80.8438C146.933 80.0624 147.05 78.7463 147.178 78.0992L147.253 77.1418C146.934 76.8388 146.698 76.4602 146.567 76.0414C146.482 75.7525 146.459 75.4492 146.499 75.151C146.539 74.8527 146.641 74.5661 146.798 74.3093C146.849 74.2318 146.894 74.1509 146.933 74.0672C146.933 74.054 146.933 73.9263 146.95 73.8251C146.966 73.6314 146.986 73.3695 147.032 73.0086C147.131 72.2096 147.182 71.9675 147.319 71.6396V71.6176C147.232 71.3929 147.117 71.1805 146.975 70.9859C146.937 70.9331 146.792 70.7658 146.686 70.6558C146.11 70.0175 145.395 69.2252 145.395 68.2348C145.379 67.8283 145.337 67.4232 145.269 67.0221L145.128 66.1836L146.474 64.9907C146.339 64.1103 146.103 62.8338 145.799 62.0723C145.426 61.1435 145.179 60.5317 145.541 59.7966C145.729 59.416 146.056 59.1216 146.454 58.9734C146.472 58.8282 146.485 58.6389 146.494 58.4958C146.514 58.2207 146.536 57.9082 146.589 57.5869C146.689 57.0794 146.96 56.6212 147.356 56.2883C146.068 56.1277 145.241 54.9986 144.888 53.9378C144.552 52.9364 145.152 52.0626 145.847 51.0524C146.061 50.7541 146.258 50.4448 146.439 50.1258C146.628 49.7448 146.783 49.3478 146.902 48.9395C147.017 48.5874 147.16 48.1516 147.394 47.5067C147.705 46.6528 148.056 45.6822 149.258 45.7768C149.321 45.7811 149.384 45.7899 149.445 45.8032C149.531 45.6921 149.605 45.5726 149.666 45.4467L149.805 44.3308C149.88 43.7432 150.001 42.7616 151.08 42.5063C151.453 42.42 151.845 42.4708 152.183 42.6493C152.035 42.3984 151.874 42.1387 151.704 41.9032C151.294 41.3288 151.007 40.8776 150.778 40.5145C150.584 40.2085 150.429 39.9642 150.257 39.7376C149.443 38.6525 149.884 37.5058 150.125 36.8896C149.651 36.4554 149.141 36.0623 148.601 35.7143L148.188 35.448L148.005 34.9924C147.901 34.7327 147.372 33.399 147.209 32.7453C147.127 32.3922 147.084 32.0314 147.081 31.6691C147.072 31.2424 147.017 30.818 146.915 30.4035C146.827 30.0536 146.765 29.7917 146.712 29.576C146.619 29.1516 146.502 28.7328 146.361 28.3215C146.123 27.6128 145.561 26.7941 144.954 25.9489C144.608 25.4647 144.451 25.2886 144.255 25.0465C144.058 24.8045 143.813 24.5227 143.372 23.9285C143.105 23.5741 142.664 23.4135 142.196 23.244C141.676 23.0547 141.093 22.8412 140.692 22.2646C140.444 22.013 140.174 21.7832 139.887 21.5779C138.251 20.8507 136.93 19.5622 136.165 17.9464C135.944 17.4909 135.825 17.2201 135.755 17.0661C135.629 16.81 135.554 16.5319 135.534 16.2474C135.338 16.176 135.15 16.083 134.974 15.97L134.508 15.6839C133.699 15.2389 132.989 14.6355 132.419 13.91C132.159 13.6435 131.93 13.3481 131.738 13.0296C131.687 12.9438 131.557 12.7127 130.868 11.7509C130.608 11.3878 130.438 11.1523 130.334 11.0026C130.183 10.7925 130.068 10.5591 129.993 10.3115L129.871 10.2675L129.715 10.2147L129.569 10.1288C129.174 9.89115 128.056 9.23088 127.619 9.01299C126.942 8.67626 126.553 8.07981 126.242 7.60221C126.101 7.36082 125.929 7.13885 125.73 6.94195C124.316 5.81288 124.866 4.3889 125.069 3.86069C125.113 3.75712 125.15 3.65046 125.179 3.54156C125.179 3.48213 125.201 3.42931 125.21 3.37869C124.737 3.33984 124.267 3.27074 123.802 3.1718L121.506 5.25386L119.929 4.07417C118.989 4.36029 117.824 4.75645 117.336 5.03376C116.293 5.63021 116.293 5.63021 114.367 6.66243L113.465 7.14883C113.366 7.21486 113.185 7.3271 112.044 7.96757C110.436 8.86993 110.363 8.90735 110.059 9.04381C109.962 9.08782 109.825 9.14945 109.483 9.31892C109.09 9.5148 108.845 9.65565 108.6 9.78991C107.998 10.1413 107.367 10.4424 106.714 10.6901C105.805 11.0532 104.916 11.8962 104.652 12.1889L104.206 12.6995H100.897C100.546 12.836 99.6903 13.2871 99.1079 13.5931C97.8967 14.2335 97.107 14.6407 96.5158 14.819C96.3599 14.9688 96.1908 15.1043 96.0106 15.2239C95.8407 15.3362 95.7061 15.4308 95.5804 15.5211C95.0112 15.9238 94.5193 16.2738 92.3221 17.3676C91.7264 17.6669 91.2962 17.8694 91.0095 17.9883C90.7019 18.1289 90.3683 18.2039 90.03 18.2084L88.7858 18.8532C86.8246 19.8744 85.2693 20.6778 84.5435 20.9485C84.2025 21.0869 83.8533 21.2045 83.4979 21.3006C83.1846 21.3887 82.5294 21.5691 80.641 22.1502C80.0984 22.3152 79.7255 22.4341 79.4696 22.5199C79.1387 22.8561 78.7339 23.1108 78.2872 23.2638L77.9254 23.4135C76.6702 23.9373 76.5885 23.9637 75.0112 24.3313L74.2325 24.5117C73.5045 24.6834 73.0324 24.8133 72.6507 24.9167C71.6315 25.1962 71.2389 25.2842 69.7696 25.2842H66.0569C65.4105 25.4625 63.114 26.662 61.3028 27.7052L61.1506 27.7933L60.9807 27.8439C59.924 28.1696 57.1069 29.0346 56.7606 29.1512L56.6392 29.193C55.1238 29.7103 53.5695 30.1062 51.9911 30.3771C51.2564 30.4974 50.5373 30.6981 49.8468 30.9758C48.5632 31.4637 47.2418 31.8465 45.8958 32.1202C45.4943 32.2105 45.1943 32.2809 44.9715 32.3403C44.8259 33.0006 44.3913 33.6213 43.6478 34.2727C42.0308 35.6681 41.7572 35.8794 41.1241 36.0334H41.0976C41.0976 36.0334 41.0623 36.0466 40.9785 36.0863C40.6213 36.2963 40.2858 36.541 39.977 36.817C39.4871 37.2457 38.9599 37.6302 38.4018 37.9658C37.9043 38.257 37.3798 38.4995 36.8355 38.6899C36.4826 38.822 35.9995 39.0025 35.1634 39.3502C34.2677 39.7332 33.9964 39.8674 33.9258 39.9114L33.8905 39.9378C33.6484 40.127 33.3909 40.2956 33.1206 40.4418C32.8188 40.6207 32.5452 40.8432 32.3087 41.1021C31.828 41.5992 31.2938 42.0421 30.716 42.4227C30.2439 42.7374 29.8688 42.9751 29.5048 43.204C28.843 43.6265 28.2628 43.9919 27.2481 44.7292C25.3001 46.1422 23.736 46.3249 21.9535 46.3403C20.7932 46.8157 16.3502 48.6402 15.2317 49.1354C14.8224 49.3066 14.4283 49.512 14.0537 49.7495C13.7316 49.9475 13.2904 50.2182 12.4014 50.6936L12.2028 50.8037C12.1774 51.2014 12.0849 51.5921 11.9293 51.9592C11.7087 52.494 11.7616 52.7009 11.8719 53.2005C11.9765 53.6129 12.0327 54.0362 12.0396 54.4616C12.0396 55.4872 11.4528 56.7197 10.7446 58.1107C10.6453 58.3043 10.524 58.5508 10.4843 58.6345C10.385 58.9294 10.0585 59.7789 7.82381 62.2308C7.66291 62.405 7.51543 62.5912 7.3826 62.7876L7.71351 63.1177L7.15759 64.1301C5.95088 66.331 4.34488 69.0733 3.53967 69.716C3.52773 69.7253 3.51666 69.7356 3.50658 69.7468C3.47822 69.8491 3.45902 69.9537 3.44922 70.0593C3.42657 70.2776 3.38449 70.4934 3.32348 70.7042C3.24406 71.1158 3.12934 72.9051 3.10287 74.3115C3.35731 74.4359 3.59767 74.5872 3.81984 74.7627C4.81476 75.5352 5.34642 76.2241 5.11037 77.4588C5.0751 77.5833 5.0751 77.7151 5.11037 77.8395C5.192 78.2137 5.85602 78.8343 6.41194 79.1711C6.78918 79.3692 9.55115 80.8152 10.8064 81.5128C11.1329 81.6933 11.455 81.6735 12.3506 81.5723C13.2235 81.4568 14.1052 81.4214 14.9846 81.4666C16.1097 81.537 16.3789 81.537 16.5399 81.537C16.9221 81.5425 17.3036 81.5697 17.6826 81.6185C18.2099 81.6713 18.6445 81.7241 19.0261 81.7703C19.551 81.8462 20.0799 81.8903 20.6101 81.9024C20.7954 81.9024 20.9873 81.9024 21.1925 81.8892C22.3515 81.8275 23.5138 81.8872 24.6604 82.0675C25.1862 82.1344 25.7037 82.2554 26.2046 82.4284C26.4009 82.4966 26.5863 82.5627 28.0312 82.6375C29.1497 82.6969 29.4519 82.5275 30.1733 82.1159C31.1881 81.5161 32.2849 81.0668 33.4294 80.7821C33.9551 80.6587 34.4712 80.4976 34.9736 80.3001C35.2069 79.8445 35.5513 79.4547 35.9752 79.1667C36.9966 78.4008 37.44 78.2181 38.3511 78.1807C38.5099 78.1807 38.6732 78.1675 38.9092 78.1389C40.1314 77.987 40.6454 78.2577 41.4043 78.9642C41.9247 79.4553 42.4823 79.9056 43.072 80.3111L43.2221 80.4168L43.3434 80.5532C44.5104 81.8738 47.6783 85.4524 48.3974 86.1765C48.504 86.2177 48.6079 86.2655 48.7085 86.3196C49.1988 86.2794 49.6805 86.1675 50.138 85.9873L51.5918 85.4282L52.5205 87.8734C52.8124 88.0365 53.0848 88.2322 53.3324 88.4567L53.8111 88.8792C54.4941 88.9837 55.1853 89.0256 55.8759 89.0047C56.6304 88.7736 57.7709 88.6614 59.3571 88.6614C60.1733 88.6614 60.2991 88.5843 60.6388 88.3796C60.9259 88.1998 61.226 88.0416 61.5367 87.9064C61.9488 87.721 62.3951 87.6235 62.8472 87.6201C63.2992 87.6167 63.747 87.7075 64.1619 87.8866L64.281 87.9285H65.8142C66.9613 87.9285 67.6386 88.8088 68.3556 89.7508C68.6335 90.1118 68.9468 90.5211 69.3152 90.9349L69.3461 90.9701C69.6564 91.0527 69.9535 91.1787 70.2285 91.3443L70.2748 91.3685C70.5652 91.3679 70.8544 91.4049 71.1352 91.4785L71.4308 91.5445C72.6816 91.8152 73.3368 91.9979 74.2766 93.0984L74.3406 93.1226C75.0693 92.9985 75.812 92.9777 76.5466 93.061C77.2305 93.138 78.1703 93.2414 78.457 94.2891C78.526 94.544 78.5289 94.8122 78.4656 95.0685C78.4024 95.3249 78.2749 95.561 78.0953 95.7549C78.1385 95.9962 78.1277 96.2441 78.0637 96.4808C77.9996 96.7174 77.8838 96.937 77.7246 97.1238C77.5326 97.3429 77.2838 97.5051 77.0055 97.5926C76.9127 97.7177 76.828 97.8486 76.7518 97.9844C76.7518 98.0174 76.7407 98.0504 76.7341 98.0856C76.6878 98.3828 76.6229 98.6768 76.54 98.966C76.2025 100.139 75.9708 100.54 75.7061 100.804L75.2252 101.284L74.5435 101.253C73.8971 101.224 73.1736 101.202 72.5581 101.193L72.611 101.321C73.0143 101.569 73.4481 101.765 73.9016 101.902L74.2656 102.014L74.7994 102.547L75.812 101.847L75.9995 101.779C77.0209 101.409 78.4416 101.07 79.4167 101.559C80.6256 102.162 80.6079 103.258 80.5991 103.784C80.5853 104.134 80.6127 104.485 80.6807 104.829C80.9013 105.952 80.9433 106.282 80.7822 106.946C80.7754 106.96 80.7672 106.974 80.758 106.986ZM100.992 99.9894V100.016V99.9806V99.9894ZM55.812 89.0245L55.7811 89.0355L55.812 89.0245ZM3.297 70.757C3.29795 70.7658 3.29795 70.7747 3.297 70.7834C3.297 70.7834 3.31024 70.7636 3.31245 70.7548L3.297 70.757Z" fill="#334750"/>
<path d="M84.0163 114C83.479 114.009 82.9506 113.862 82.4947 113.578C82.0388 113.295 81.6747 112.886 81.4462 112.4C81.3278 112.174 81.2332 111.935 81.1639 111.689L80.9786 111.432C80.692 111.023 80.427 110.599 80.1844 110.162L80.0895 109.995C79.5165 109.929 78.9689 109.722 78.4968 109.392C77.9982 109.009 77.4467 108.278 77.6342 106.971C77.6687 106.724 77.7158 106.479 77.7754 106.238C77.7754 106.225 77.7754 106.209 77.7754 106.198C77.7644 106.084 77.718 105.831 77.6386 105.441C77.5791 105.142 77.5379 104.84 77.5151 104.536C77.4136 104.565 77.3121 104.594 77.215 104.624L74.4244 106.552L72.6 104.73C71.6095 104.382 70.2329 103.722 69.7983 102.637C69.7586 102.54 69.7101 102.43 69.6593 102.311C69.2181 101.301 68.7416 100.157 69.2314 99.1773C69.3478 98.9427 69.5142 98.7364 69.7188 98.5725C69.9234 98.4087 70.1613 98.2914 70.416 98.2287C70.8572 98.1186 71.9117 98.09 73.5574 98.1406V98.1296C73.6068 97.9569 73.6451 97.7812 73.6721 97.6036C73.726 97.1826 73.8664 96.7772 74.0847 96.4129L73.9567 96.4592L73.4559 96.1136C72.7434 96.0828 72.4147 95.6888 71.9602 95.1452C71.6271 94.7447 71.6271 94.7446 70.7734 94.5598L70.5726 94.5158C69.9924 94.7028 69.4961 94.4629 68.8718 94.1196C68.093 94.2054 67.6474 93.708 67.0055 92.9861C66.5642 92.4887 66.1936 92.0111 65.9024 91.626C65.7436 91.4191 65.5583 91.1858 65.4193 91.0141H64.1994C63.8166 91.0052 63.4388 90.9253 63.0853 90.7786C63.0135 90.7496 62.9398 90.7253 62.8647 90.706C62.8269 90.7151 62.79 90.7277 62.7544 90.7434C62.5754 90.8224 62.4028 90.9152 62.2382 91.0207C61.5565 91.4323 60.9146 91.747 59.3571 91.747C57.5481 91.747 56.915 91.9099 56.765 91.9671C55.9554 92.2356 53.8751 92.0573 53.0588 91.8747C52.615 91.8332 52.2008 91.634 51.8918 91.3134C51.7793 91.2122 51.5984 91.0493 51.2984 90.7874C51.2653 90.7588 51.2366 90.7324 51.2102 90.7126C50.341 90.6224 49.9615 89.8322 49.7564 89.304C49.0823 89.4556 48.3811 89.4374 47.7158 89.2512C47.0871 89.2248 46.5951 88.734 46.2355 88.3708C45.4038 87.5411 41.8609 83.5289 41.1506 82.7233C40.4995 82.2666 39.8824 81.7635 39.3041 81.2179L39.2843 81.2003C38.9269 81.2443 38.6732 81.2531 38.4857 81.2619H38.3621C38.1804 81.3746 38.0051 81.4973 37.8371 81.6295C37.8091 81.6487 37.7825 81.6701 37.7577 81.6933V81.7153C37.2657 82.8158 36.4054 83.2229 34.228 83.7908C33.3435 84.0057 32.497 84.3538 31.7175 84.823C30.8351 85.327 29.9086 85.8486 27.8878 85.7408C26.1781 85.6505 25.7568 85.5559 25.2009 85.3622C24.8804 85.2533 24.549 85.1795 24.2125 85.1421C23.2593 84.9921 22.2928 84.9434 21.3292 84.9969C21.0822 84.9969 20.8527 85.0123 20.6321 85.0123C19.9779 85.0017 19.3251 84.9495 18.6776 84.856C18.3136 84.8142 17.8988 84.7636 17.3981 84.7129C17.1208 84.6755 16.8417 84.6534 16.562 84.6469C16.3524 84.6469 16.0369 84.6469 14.8148 84.5721C14.1141 84.5369 13.4117 84.5678 12.7168 84.6645C11.6447 84.7834 10.535 84.9088 9.31951 84.2243C8.02898 83.5113 4.98022 81.9178 4.94933 81.9002L4.88977 81.8672C4.49709 81.6471 2.52489 80.408 2.10574 78.5284C2.01007 78.122 1.98248 77.7025 2.02411 77.2871L1.93146 77.2145L1.89616 77.1881C1.68922 77.2229 1.47743 77.2165 1.27297 77.1693C1.06852 77.1221 0.875453 77.035 0.704898 76.913C0.0144053 76.4156 0.0144043 75.7487 0.0144043 74.974C0.0144043 74.4744 0.0872037 70.7923 0.376196 69.8349C0.386173 69.7839 0.393537 69.7325 0.398258 69.6808C0.430395 69.2337 0.552202 68.7976 0.756456 68.3984C0.96071 67.9991 1.24325 67.6449 1.58732 67.3567C1.96676 66.9583 3.1514 65.0083 4.15736 63.2124C4.10221 62.4861 4.37797 61.4692 5.55158 60.1773C7.1995 58.3682 7.53703 57.7035 7.58556 57.6287C7.70613 57.3215 7.84613 57.0223 8.00471 56.7329C8.22531 56.2927 8.93345 54.9128 8.96434 54.4682C8.95264 54.2727 8.9216 54.0788 8.87169 53.8893C8.58951 52.8776 8.66109 51.8002 9.07464 50.8345C9.09318 50.7899 9.10938 50.7443 9.12317 50.698C8.76138 49.1772 9.92397 48.5522 10.9498 48.0019C11.7616 47.5618 12.1433 47.3417 12.4499 47.1436C12.9423 46.8351 13.4587 46.5665 13.9941 46.3403C15.3178 45.7526 20.8439 43.4791 21.0777 43.3955L21.3601 43.2788H21.6646C23.4757 43.2788 24.2346 43.1379 25.4501 42.2576C26.5532 41.4631 27.1885 41.0559 27.8768 40.6245C28.2253 40.4044 28.5871 40.1733 29.0305 39.8784C29.4379 39.6068 29.8138 39.2908 30.1512 38.9364C30.5799 38.4806 31.0725 38.0891 31.6138 37.7744C31.7561 37.6992 31.8919 37.6123 32.0197 37.5146C32.3705 37.2395 32.6374 37.0943 33.9743 36.5242C34.8744 36.1391 35.395 35.9432 35.7744 35.8023C36.1653 35.6682 36.5415 35.495 36.8973 35.2851C37.2959 35.04 37.673 34.7617 38.0246 34.4532C38.5102 34.0239 39.0431 33.6511 39.613 33.3417C39.8304 33.2292 40.0588 33.1392 40.2946 33.0732C40.5836 32.8531 41.3668 32.1819 41.6403 31.9464C41.742 31.8597 41.8385 31.7671 41.9293 31.6691C41.8806 31.2877 41.954 30.9008 42.1391 30.5636C42.3241 30.2264 42.6113 29.9562 42.9595 29.7917C43.3721 29.5716 43.95 29.4065 45.2516 29.1182C46.4504 28.8779 47.6273 28.5393 48.7703 28.1058C49.6396 27.7618 50.5433 27.5116 51.4661 27.3597C52.8894 27.1155 54.291 26.7585 55.6575 26.2923L55.7987 26.2438C56.2046 26.1074 59.1078 25.2138 59.9196 24.9673C64.6957 22.2118 65.6201 22.2118 65.9708 22.2118H69.7851C70.908 22.2118 71.0337 22.1788 71.8477 21.9543C72.2316 21.8486 72.7588 21.7056 73.5398 21.5141L74.3251 21.3314C75.6973 21.0123 75.6973 21.0123 76.7518 20.5743L76.9128 20.5083C77.1987 20.1565 77.5824 19.8969 78.0158 19.7622C78.36 19.6345 78.9093 19.4563 79.7476 19.1988C81.6735 18.6089 82.3573 18.4196 82.686 18.3184C82.9541 18.2459 83.2171 18.1562 83.4736 18.0499C84.0781 17.8298 86.0591 16.791 87.3695 16.1087C89.0086 15.2547 89.4189 15.0457 89.6902 14.9576C89.919 14.879 90.1619 14.8498 90.4028 14.8718L90.9543 14.6011C92.9398 13.6129 93.3192 13.3422 93.8045 12.9988C93.9325 12.9064 94.067 12.8117 94.2259 12.7039C94.5369 12.1735 95.0223 12.0436 95.6223 11.8632C95.9532 11.7685 96.9901 11.2205 97.6783 10.8595C99.4697 9.91316 100.105 9.60723 100.743 9.60723H102.887C103.675 8.85323 104.593 8.24644 105.596 7.8157C106.116 7.62172 106.618 7.38312 107.096 7.10261C107.343 6.96175 107.652 6.78568 108.12 6.55019C108.525 6.3477 108.698 6.27067 108.812 6.22005C108.976 6.14742 109.015 6.12981 110.548 5.26926C111.568 4.69703 111.751 4.58478 111.784 4.56497C111.903 4.48354 111.903 4.48354 112.92 3.93772C114.811 2.9209 114.811 2.9209 115.821 2.34647C116.981 1.6862 119.554 0.962101 119.842 0.880667L120.575 0.678185L121.321 1.25482L121.696 0.915882C121.762 0.799815 121.842 0.691963 121.934 0.594551C122.737 -0.270403 123.968 0.0377229 124.431 0.154371C124.809 0.236926 125.192 0.292093 125.578 0.319438C126.498 0.409675 127.756 0.539528 128.164 1.74782C128.455 2.62818 128.358 3.4161 128.212 4.1468C128.157 4.38697 128.084 4.62246 127.992 4.85109C128.306 5.18401 128.584 5.54835 128.823 5.93833C128.907 6.06819 129.017 6.23766 129.086 6.32129C129.642 6.60961 130.63 7.20165 131.01 7.42174C132.073 7.8025 133.657 8.62343 133.657 10.1443C133.657 10.2178 133.652 10.2913 133.644 10.3643C133.917 10.733 134.17 11.1158 134.402 11.511L134.753 11.9204C135.119 12.4003 135.59 12.791 136.13 13.0626H136.152C136.357 12.9909 136.575 12.9631 136.792 12.9812C137.877 13.0693 138.131 13.8946 138.453 14.9378C138.584 15.3113 138.669 15.6993 138.706 16.0933C138.775 16.2407 138.863 16.4256 138.962 16.6435C139.426 17.5884 140.206 18.3415 141.168 18.7718L141.371 18.8444L141.548 18.9677C142.094 19.3483 142.597 19.7858 143.05 20.2728L143.257 20.3476C143.919 20.5897 145.022 20.9925 145.847 22.0797C146.24 22.6013 146.434 22.8324 146.624 23.0547C146.845 23.3188 147.065 23.5697 147.482 24.1552C148.23 25.1984 148.931 26.2284 149.304 27.3443C149.474 27.8415 149.617 28.3477 149.73 28.8607C149.781 29.0676 149.84 29.3185 149.924 29.653C150.078 30.269 150.163 30.9001 150.178 31.5348C150.18 31.6889 150.193 31.8427 150.218 31.9948C150.282 32.2523 150.509 32.8752 150.714 33.4056C153.646 35.415 153.408 36.6035 153.315 37.0635C153.24 37.3874 153.137 37.7041 153.006 38.0098C152.986 38.0627 152.96 38.1265 152.938 38.1881C153.096 38.4082 153.24 38.6437 153.379 38.8814C153.599 39.2291 153.847 39.6209 154.206 40.1227C154.658 40.772 155.06 41.4548 155.408 42.1651C156.47 42.6736 156.999 43.3514 156.99 44.1922C156.99 44.5751 156.84 45.4929 155.603 45.9529C155.516 46.0747 155.414 46.1843 155.298 46.2786C154.685 46.7694 154.094 46.6374 153.348 46.4723C153.021 46.3997 152.801 46.3469 152.64 46.3006C152.435 46.9099 152.109 47.472 151.682 47.9535C151.654 48.2113 151.561 48.458 151.413 48.671C151.023 49.2344 150.48 49.3313 149.997 49.4127C149.933 49.5976 149.882 49.7583 149.834 49.9035C149.685 50.3979 149.499 50.8805 149.278 51.3473L149.355 51.3121C149.673 51.1811 150.02 51.1365 150.361 51.1829C150.702 51.2293 151.025 51.365 151.296 51.5762C151.623 51.5773 151.941 51.6805 152.205 51.8711C152.88 52.3575 152.88 53.0486 152.88 53.6054C152.88 54.6861 152.732 56.3103 152.728 56.3786L152.629 57.479L151.563 57.7431C150.881 57.9091 150.219 58.1513 149.591 58.465C149.591 58.5486 149.578 58.6367 149.571 58.7269C149.52 59.4642 149.452 60.4436 148.746 61.1699C149.335 62.7876 149.613 65.169 149.642 65.4463L149.732 66.2386L148.426 67.3963C148.448 67.5987 148.466 67.8144 148.473 68.0213C148.59 68.1908 148.834 68.4615 148.976 68.6178C149.18 68.8312 149.369 69.0592 149.54 69.3C150.023 70.0241 150.632 71.1202 150.339 72.2845C150.295 72.4706 150.237 72.653 150.165 72.8303C150.165 72.8897 150.127 73.0504 150.081 73.4201C150.043 73.7085 150.028 73.9109 150.015 74.0914C150 74.4676 149.926 74.839 149.794 75.1919L150.513 75.5264L150.374 76.563L150.317 77.3245C150.798 77.0934 151.471 76.9812 152.377 77.3707C152.574 77.4544 152.818 77.5336 153.088 77.6172C153.948 77.8924 155.969 78.5372 155.64 80.5026L155.616 80.6457C155.468 81.5415 155.395 81.8826 154.764 83.1349C154.46 83.7944 153.98 84.3578 153.377 84.7636C153.186 84.8894 153.023 85.0517 152.896 85.2412C152.599 85.6554 152.271 86.0461 151.914 86.4098C151.468 86.871 151.058 87.3646 150.685 87.8866C150.352 88.3513 149.968 88.7773 149.54 89.1566C149.701 89.5263 149.732 90.0369 149.386 90.7214C149.293 90.9019 149.137 91.1968 148.894 91.6546C148.627 92.1608 148.439 92.5834 148.272 92.9597C147.389 94.9405 146.507 95.7262 143.842 94.8921L142.543 94.4937C141.036 94.0652 139.558 93.5448 138.115 92.9355C137.829 92.7902 137.516 92.7084 137.195 92.6956C135.962 92.6384 135.43 92.0662 134.398 90.673C133.973 90.1338 133.695 89.4937 133.593 88.8154H133.295C131.87 88.8154 131.53 88.9497 131.272 89.0465C130.465 89.3613 129.854 89.4141 128.031 89.0817C126.209 88.7494 125.247 88.5007 124.502 88.3026C123.934 88.143 123.358 88.0137 122.777 87.9153C121.958 87.7913 121.187 87.4568 120.537 86.9447L120.44 86.8742C119.423 87.0943 118.896 87.0107 118.455 86.8984L118.384 86.8808H118.345C118.107 87.0495 117.904 87.2625 117.747 87.5081L117.098 88.5161L116.503 88.3224C116.473 88.4679 116.426 88.6092 116.361 88.7428C116.167 89.1588 115.728 89.6804 114.753 89.819C114.331 89.8811 113.899 89.8442 113.493 89.7112C113.348 89.9313 113.213 90.1074 113.096 90.268L112.944 90.4881C114.228 92.9091 112.807 94.1614 112.333 94.5796L111.969 94.9009C111.657 95.156 111.362 95.4317 111.087 95.7262C111.085 95.7409 111.085 95.7556 111.087 95.7703C111.087 95.8755 111.094 95.9806 111.107 96.085C111.212 97.0534 110.97 97.5618 110.191 98.5984C110.159 98.629 110.134 98.666 110.118 98.707C110.101 98.748 110.094 98.792 110.096 98.8361C109.917 100.632 108.38 100.749 107.449 100.817C106.679 100.876 106.251 100.934 105.874 100.984C105.239 101.078 104.598 101.122 103.957 101.114H103.855C103.784 101.27 103.696 101.418 103.593 101.554C103.246 102.023 102.567 102.578 101.316 102.578H98.9071L97.9122 103.341L97.5879 105.613L96.807 105.958C96.6415 106.033 95.1502 106.678 93.8332 106.678C93.4212 106.672 93.0106 106.629 92.6066 106.548C92.1213 106.462 92.0264 106.456 91.7992 106.548C91.3202 106.749 90.8711 107.015 90.4646 107.338V107.431C90.4732 107.839 90.4384 108.247 90.3609 108.648C90.3178 108.868 90.2474 109.081 90.1513 109.284C90.4605 109.402 90.7245 109.615 90.9059 109.891C91.0872 110.168 91.1767 110.494 91.1617 110.824C91.1021 112.009 90.1028 112.257 89.2204 112.477C88.4419 112.655 87.6738 112.876 86.9194 113.138L86.8797 113.153L85.309 113.723C84.9012 113.901 84.4615 113.996 84.0163 114ZM80.758 106.986C82.0485 107.206 82.4809 107.972 82.8625 108.643C83.0555 108.995 83.2676 109.336 83.4979 109.665L83.9038 110.246C84.0355 110.432 84.1354 110.639 84.1994 110.857L85.7966 110.276C85.9091 110.235 86.2797 110.096 86.9768 109.893C86.829 109.163 86.8621 108.531 87.3408 107.928C87.3614 107.765 87.3695 107.601 87.3651 107.437C87.3481 107.038 87.3996 106.638 87.5173 106.255C87.9739 104.886 90.1447 103.9 90.5749 103.716C91.3846 103.375 92.2824 103.303 93.1361 103.511C93.3626 103.558 93.593 103.585 93.8244 103.592C94.147 103.574 94.4659 103.514 94.773 103.414L95.0245 101.653L97.846 99.4854H100.844L100.403 98.0218H103.946C104.45 98.0291 104.954 97.9952 105.452 97.9205C105.843 97.8677 106.335 97.8017 107.158 97.7379C107.284 97.3776 107.466 97.0395 107.698 96.7365C107.855 96.5274 107.95 96.3931 108.005 96.3095C107.992 96.173 107.976 95.9882 107.976 95.7571C107.976 94.2693 108.784 93.5562 109.902 92.5768L110.255 92.2642C110.282 92.2417 110.307 92.2174 110.33 92.1916C110.278 92.0787 110.221 91.9685 110.158 91.8615C109.994 91.5956 109.868 91.3082 109.783 91.0075C109.507 89.9071 110.098 89.0993 110.575 88.4501C110.747 88.2124 110.943 87.9461 111.146 87.6225C111.501 87.0525 112.046 86.4847 112.825 86.39C112.875 85.9647 113.081 85.5729 113.403 85.2896C113.639 85.0827 114.204 84.5831 115.854 84.922C116.366 84.3689 117.039 83.9889 117.778 83.8348C118.241 83.7492 118.717 83.7687 119.172 83.892C119.365 83.9313 119.565 83.9168 119.75 83.8502C120.203 83.7327 120.677 83.7262 121.133 83.8312C121.589 83.9362 122.013 84.1496 122.368 84.4532C122.623 84.674 122.938 84.8149 123.273 84.8582C123.95 84.9702 124.621 85.1171 125.283 85.2984C126.015 85.4943 126.847 85.7122 128.576 86.0269C129.717 86.2338 129.977 86.2052 130.017 86.1986L130.145 86.1523C130.743 85.919 131.435 85.7122 133.288 85.7122C134.87 85.7122 135.825 85.7122 136.439 86.5155C136.614 86.7599 136.728 87.0428 136.771 87.3404C136.814 87.6381 136.785 87.9417 136.686 88.2256C136.637 88.3973 136.617 88.4699 136.882 88.8286C137.193 89.2512 137.376 89.4889 137.484 89.6033C138.122 89.6507 138.746 89.8125 139.326 90.0809C140.665 90.6468 142.038 91.129 143.436 91.5247C143.838 91.6458 144.27 91.78 144.76 91.9297C144.98 92.0001 145.15 92.0441 145.274 92.075L145.446 91.692C145.609 91.3244 145.808 90.8733 146.088 90.334C146.016 90.0941 145.982 89.8448 145.984 89.5945C145.984 88.0957 146.712 87.4861 147.244 87.0393C147.601 86.7549 147.918 86.4232 148.186 86.0533C148.635 85.4213 149.131 84.8239 149.67 84.2662C149.929 84.0072 150.166 83.7275 150.379 83.4298C150.705 82.9644 151.113 82.5618 151.583 82.2413C151.783 82.1258 151.938 81.9468 152.024 81.7329C152.223 81.3853 152.38 81.016 152.494 80.6325L152.168 80.5268C151.947 80.4542 151.698 80.3772 151.451 80.2847C151.077 80.5945 150.662 80.8508 150.218 81.0462C148.991 81.5899 148.175 81.0859 147.881 80.8438C146.933 80.0624 147.05 78.7463 147.178 78.0992L147.253 77.1418C146.934 76.8388 146.698 76.4602 146.567 76.0414C146.482 75.7525 146.459 75.4492 146.499 75.151C146.539 74.8527 146.641 74.5661 146.798 74.3093C146.849 74.2318 146.894 74.1509 146.933 74.0672C146.933 74.054 146.933 73.9263 146.95 73.8251C146.966 73.6314 146.986 73.3695 147.032 73.0086C147.131 72.2096 147.182 71.9675 147.319 71.6396V71.6176C147.232 71.3929 147.117 71.1805 146.975 70.9859C146.937 70.9331 146.792 70.7658 146.686 70.6558C146.11 70.0175 145.395 69.2252 145.395 68.2348C145.379 67.8283 145.337 67.4232 145.269 67.0221L145.128 66.1836L146.474 64.9907C146.339 64.1103 146.103 62.8338 145.799 62.0723C145.426 61.1435 145.179 60.5317 145.541 59.7966C145.729 59.416 146.056 59.1216 146.454 58.9734C146.472 58.8282 146.485 58.6389 146.494 58.4958C146.514 58.2207 146.536 57.9082 146.589 57.5869C146.689 57.0794 146.96 56.6212 147.356 56.2883C146.068 56.1277 145.241 54.9986 144.888 53.9378C144.552 52.9364 145.152 52.0626 145.847 51.0524C146.061 50.7541 146.258 50.4448 146.439 50.1258C146.628 49.7448 146.783 49.3478 146.902 48.9395C147.017 48.5874 147.16 48.1516 147.394 47.5067C147.705 46.6528 148.056 45.6822 149.258 45.7768C149.321 45.7811 149.384 45.7899 149.445 45.8032C149.531 45.6921 149.605 45.5726 149.666 45.4467L149.805 44.3308C149.88 43.7432 150.001 42.7616 151.08 42.5063C151.453 42.42 151.845 42.4708 152.183 42.6493C152.035 42.3984 151.874 42.1387 151.704 41.9032C151.294 41.3288 151.007 40.8776 150.778 40.5145C150.584 40.2085 150.429 39.9642 150.257 39.7376C149.443 38.6525 149.884 37.5058 150.125 36.8896C149.651 36.4554 149.141 36.0623 148.601 35.7143L148.188 35.448L148.005 34.9924C147.901 34.7327 147.372 33.399 147.209 32.7453C147.127 32.3922 147.084 32.0314 147.081 31.6691C147.072 31.2424 147.017 30.818 146.915 30.4035C146.827 30.0536 146.765 29.7917 146.712 29.576C146.619 29.1516 146.502 28.7328 146.361 28.3215C146.123 27.6128 145.561 26.7941 144.954 25.9489C144.608 25.4647 144.451 25.2886 144.255 25.0465C144.058 24.8045 143.813 24.5227 143.372 23.9285C143.105 23.5741 142.664 23.4135 142.196 23.244C141.676 23.0547 141.093 22.8412 140.692 22.2646C140.444 22.013 140.174 21.7832 139.887 21.5779C138.251 20.8507 136.93 19.5622 136.165 17.9464C135.944 17.4909 135.825 17.2201 135.755 17.0661C135.629 16.81 135.554 16.5319 135.534 16.2474C135.338 16.176 135.15 16.083 134.974 15.97L134.508 15.6839C133.699 15.2389 132.989 14.6355 132.419 13.91C132.159 13.6435 131.93 13.3481 131.738 13.0296C131.687 12.9438 131.557 12.7127 130.868 11.7509C130.608 11.3878 130.438 11.1523 130.334 11.0026C130.183 10.7925 130.068 10.5591 129.993 10.3115L129.871 10.2675L129.715 10.2147L129.569 10.1288C129.174 9.89115 128.056 9.23088 127.619 9.01299C126.942 8.67626 126.553 8.07981 126.242 7.60221C126.101 7.36082 125.929 7.13885 125.73 6.94195C124.316 5.81288 124.866 4.3889 125.069 3.86069C125.113 3.75712 125.15 3.65046 125.179 3.54156C125.179 3.48213 125.201 3.42931 125.21 3.37869C124.737 3.33984 124.267 3.27074 123.802 3.1718L121.506 5.25386L119.929 4.07417C118.989 4.36029 117.824 4.75645 117.336 5.03376C116.293 5.63021 116.293 5.63021 114.367 6.66243L113.465 7.14883C113.366 7.21486 113.185 7.3271 112.044 7.96757C110.436 8.86993 110.363 8.90735 110.059 9.04381C109.962 9.08782 109.825 9.14945 109.483 9.31892C109.09 9.5148 108.845 9.65565 108.6 9.78991C107.998 10.1413 107.367 10.4424 106.714 10.6901C105.805 11.0532 104.916 11.8962 104.652 12.1889L104.206 12.6995H100.897C100.546 12.836 99.6903 13.2871 99.1079 13.5931C97.8967 14.2335 97.107 14.6407 96.5158 14.819C96.3599 14.9688 96.1908 15.1043 96.0106 15.2239C95.8407 15.3362 95.7061 15.4308 95.5804 15.5211C95.0112 15.9238 94.5193 16.2738 92.3221 17.3676C91.7264 17.6669 91.2962 17.8694 91.0095 17.9883C90.7019 18.1289 90.3683 18.2039 90.03 18.2084L88.7858 18.8532C86.8246 19.8744 85.2693 20.6778 84.5435 20.9485C84.2025 21.0869 83.8533 21.2045 83.4979 21.3006C83.1846 21.3887 82.5294 21.5691 80.641 22.1502C80.0984 22.3152 79.7255 22.4341 79.4696 22.5199C79.1387 22.8561 78.7339 23.1108 78.2872 23.2638L77.9254 23.4135C76.6702 23.9373 76.5885 23.9637 75.0112 24.3313L74.2325 24.5117C73.5045 24.6834 73.0324 24.8133 72.6507 24.9167C71.6315 25.1962 71.2389 25.2842 69.7696 25.2842H66.0569C65.4105 25.4625 63.114 26.662 61.3028 27.7052L61.1506 27.7933L60.9807 27.8439C59.924 28.1696 57.1069 29.0346 56.7606 29.1512L56.6392 29.193C55.1238 29.7103 53.5695 30.1062 51.9911 30.3771C51.2564 30.4974 50.5373 30.6981 49.8468 30.9758C48.5632 31.4637 47.2418 31.8465 45.8958 32.1202C45.4943 32.2105 45.1943 32.2809 44.9715 32.3403C44.8259 33.0006 44.3913 33.6213 43.6478 34.2727C42.0308 35.6681 41.7572 35.8794 41.1241 36.0334H41.0976C41.0976 36.0334 41.0623 36.0466 40.9785 36.0863C40.6213 36.2963 40.2858 36.541 39.977 36.817C39.4871 37.2457 38.9599 37.6302 38.4018 37.9658C37.9043 38.257 37.3798 38.4995 36.8355 38.6899C36.4826 38.822 35.9995 39.0025 35.1634 39.3502C34.2677 39.7332 33.9964 39.8674 33.9258 39.9114L33.8905 39.9378C33.6484 40.127 33.3909 40.2956 33.1206 40.4418C32.8188 40.6207 32.5452 40.8432 32.3087 41.1021C31.828 41.5992 31.2938 42.0421 30.716 42.4227C30.2439 42.7374 29.8688 42.9751 29.5048 43.204C28.843 43.6265 28.2628 43.9919 27.2481 44.7292C25.3001 46.1422 23.736 46.3249 21.9535 46.3403C20.7932 46.8157 16.3502 48.6402 15.2317 49.1354C14.8224 49.3066 14.4283 49.512 14.0537 49.7495C13.7316 49.9475 13.2904 50.2182 12.4014 50.6936L12.2028 50.8037C12.1774 51.2014 12.0849 51.5921 11.9293 51.9592C11.7087 52.494 11.7616 52.7009 11.8719 53.2005C11.9765 53.6129 12.0327 54.0362 12.0396 54.4616C12.0396 55.4872 11.4528 56.7197 10.7446 58.1107C10.6453 58.3043 10.524 58.5508 10.4843 58.6345C10.385 58.9294 10.0585 59.7789 7.82381 62.2308C7.66291 62.405 7.51543 62.5912 7.3826 62.7876L7.71351 63.1177L7.15759 64.1301C5.95088 66.331 4.34488 69.0733 3.53967 69.716C3.52773 69.7253 3.51666 69.7356 3.50658 69.7468C3.47822 69.8491 3.45902 69.9537 3.44922 70.0593C3.42657 70.2776 3.38449 70.4934 3.32348 70.7042C3.24406 71.1158 3.12934 72.9051 3.10287 74.3115C3.35731 74.4359 3.59767 74.5872 3.81984 74.7627C4.81476 75.5352 5.34642 76.2241 5.11037 77.4588C5.0751 77.5833 5.0751 77.7151 5.11037 77.8395C5.192 78.2137 5.85602 78.8343 6.41194 79.1711C6.78918 79.3692 9.55115 80.8152 10.8064 81.5128C11.1329 81.6933 11.455 81.6735 12.3506 81.5723C13.2235 81.4568 14.1052 81.4214 14.9846 81.4666C16.1097 81.537 16.3789 81.537 16.5399 81.537C16.9221 81.5425 17.3036 81.5697 17.6826 81.6185C18.2099 81.6713 18.6445 81.7241 19.0261 81.7703C19.551 81.8462 20.0799 81.8903 20.6101 81.9024C20.7954 81.9024 20.9873 81.9024 21.1925 81.8892C22.3515 81.8275 23.5138 81.8872 24.6604 82.0675C25.1862 82.1344 25.7037 82.2554 26.2046 82.4284C26.4009 82.4966 26.5863 82.5627 28.0312 82.6375C29.1497 82.6969 29.4519 82.5275 30.1733 82.1159C31.1881 81.5161 32.2849 81.0668 33.4294 80.7821C33.9551 80.6587 34.4712 80.4976 34.9736 80.3001C35.2069 79.8445 35.5513 79.4547 35.9752 79.1667C36.9966 78.4008 37.44 78.2181 38.3511 78.1807C38.5099 78.1807 38.6732 78.1675 38.9092 78.1389C40.1314 77.987 40.6454 78.2577 41.4043 78.9642C41.9247 79.4553 42.4823 79.9056 43.072 80.3111L43.2221 80.4168L43.3434 80.5532C44.5104 81.8738 47.6783 85.4524 48.3974 86.1765C48.504 86.2177 48.6079 86.2655 48.7085 86.3196C49.1988 86.2794 49.6805 86.1675 50.138 85.9873L51.5918 85.4282L52.5205 87.8734C52.8124 88.0365 53.0848 88.2322 53.3324 88.4567L53.8111 88.8792C54.4941 88.9837 55.1853 89.0256 55.8759 89.0047C56.6304 88.7736 57.7709 88.6614 59.3571 88.6614C60.1733 88.6614 60.2991 88.5843 60.6388 88.3796C60.9259 88.1998 61.226 88.0416 61.5367 87.9064C61.9488 87.721 62.3951 87.6235 62.8472 87.6201C63.2992 87.6167 63.747 87.7075 64.1619 87.8866L64.281 87.9285H65.8142C66.9613 87.9285 67.6386 88.8088 68.3556 89.7508C68.6335 90.1118 68.9468 90.5211 69.3152 90.9349L69.3461 90.9701C69.6564 91.0527 69.9535 91.1787 70.2285 91.3443L70.2748 91.3685C70.5652 91.3679 70.8544 91.4049 71.1352 91.4785L71.4308 91.5445C72.6816 91.8152 73.3368 91.9979 74.2766 93.0984L74.3406 93.1226C75.0693 92.9985 75.812 92.9777 76.5466 93.061C77.2305 93.138 78.1703 93.2414 78.457 94.2891C78.526 94.544 78.5289 94.8122 78.4656 95.0685C78.4024 95.3249 78.2749 95.561 78.0953 95.7549C78.1385 95.9962 78.1277 96.2441 78.0637 96.4808C77.9996 96.7174 77.8838 96.937 77.7246 97.1238C77.5326 97.3429 77.2838 97.5051 77.0055 97.5926C76.9127 97.7177 76.828 97.8486 76.7518 97.9844C76.7518 98.0174 76.7407 98.0504 76.7341 98.0856C76.6878 98.3828 76.6229 98.6768 76.54 98.966C76.2025 100.139 75.9708 100.54 75.7061 100.804L75.2252 101.284L74.5435 101.253C73.8971 101.224 73.1736 101.202 72.5581 101.193L72.611 101.321C73.0143 101.569 73.4481 101.765 73.9016 101.902L74.2656 102.014L74.7994 102.547L75.812 101.847L75.9995 101.779C77.0209 101.409 78.4416 101.07 79.4167 101.559C80.6256 102.162 80.6079 103.258 80.5991 103.784C80.5853 104.134 80.6127 104.485 80.6807 104.829C80.9013 105.952 80.9433 106.282 80.7822 106.946C80.7754 106.96 80.7672 106.974 80.758 106.986ZM100.992 99.9894V100.016V99.9806V99.9894ZM55.812 89.0245L55.7811 89.0355L55.812 89.0245ZM3.297 70.757C3.29795 70.7658 3.29795 70.7747 3.297 70.7834C3.297 70.7834 3.31024 70.7636 3.31245 70.7548L3.297 70.757Z" stroke="#334750" stroke-width="0.8" mask="url(#path-1-outside-1_5_232)"/>
</g>
<defs>
<clipPath id="clip0_5_232">
<rect width="157" height="114" fill="white"/>
</clipPath>
</defs>
</svg>
