<svg width="121" height="121" viewBox="0 0 121 121" fill="none" xmlns="http://www.w3.org/2000/svg">
<g clip-path="url(#clip0_5_241)">
<path d="M37.0807 54.6453C39.1959 54.6479 41.258 53.9835 42.974 52.7467C44.6899 51.5099 45.9723 49.7636 46.6387 47.7561L46.7363 47.4561L43.0355 46.2192L42.9355 46.5217C42.5257 47.7504 41.7397 48.8189 40.6889 49.5761C39.6382 50.3333 38.3758 50.7407 37.0807 50.7407C35.7855 50.7407 34.5231 50.3333 33.4724 49.5761C32.4216 48.8189 31.6356 47.7504 31.2258 46.5217L31.1258 46.2192L27.425 47.4561L27.5226 47.7537C28.1886 49.7616 29.4708 51.5085 31.1868 52.7457C32.9027 53.983 34.9651 54.6477 37.0807 54.6453Z" fill="#334750"/>
<path d="M60.5 99.5323C62.6152 99.5349 64.6774 98.8705 66.3933 97.6337C68.1092 96.3969 69.3916 94.6506 70.058 92.6431L70.1556 92.343L66.4548 91.1062L66.3548 91.4087C65.945 92.6373 65.159 93.7059 64.1083 94.4631C63.0575 95.2203 61.7951 95.6277 60.5 95.6277C59.2048 95.6277 57.9425 95.2203 56.8917 94.4631C55.8409 93.7059 55.055 92.6373 54.6451 91.4087L54.5451 91.1062L50.8444 92.343L50.9419 92.6407C51.6079 94.6486 52.8901 96.3954 54.6061 97.6327C56.3221 98.87 58.3845 99.5347 60.5 99.5323Z" fill="#334750"/>
<path d="M93.7775 44.2698L93.6774 44.5698C93.2676 45.7984 92.4817 46.867 91.4309 47.6242C90.3801 48.3814 89.1178 48.7888 87.8226 48.7888C86.5274 48.7888 85.2651 48.3814 84.2143 47.6242C83.1635 46.867 82.3776 45.7984 81.9678 44.5698L81.8677 44.2673L78.167 45.5042L78.2646 45.8018C78.9333 47.8078 80.2163 49.5525 81.9317 50.7888C83.6471 52.0252 85.7081 52.6905 87.8226 52.6905C89.9371 52.6905 91.9981 52.0252 93.7135 50.7888C95.4289 49.5525 96.7119 47.8078 97.3806 45.8018L97.4782 45.5017L93.7775 44.2698Z" fill="#334750"/>
<path d="M117.563 74.2711C116.366 72.476 114.891 70.8826 113.194 69.5506V31.56C113.186 25.2624 110.682 19.2247 106.228 14.7716C101.775 10.3184 95.7376 7.81355 89.44 7.80645C85.6644 7.79566 82.0205 9.19354 79.2208 11.7268C76.3686 11.8599 73.5918 12.6864 71.131 14.1347C68.6702 15.5829 66.5996 17.6093 65.0985 20.0382C64.104 17.3408 62.5349 14.8919 60.5 12.8611L58.502 10.8632C58.312 7.92305 57.0115 5.16509 54.864 3.14803C52.7165 1.13096 49.8825 0.00562643 46.9363 0H36.7513C33.0593 0.0107916 29.4285 0.943323 26.1882 2.71297C22.948 4.48262 20.2009 7.03337 18.1963 10.1337L17.8085 10.2923C14.0429 11.7999 10.9952 14.6887 9.2885 18.3684C7.58177 22.048 7.34484 26.2405 8.62613 30.089L11.7609 39.486C11.8763 41.468 12.7424 43.3315 14.1831 44.6974C15.6238 46.0633 17.5309 46.829 19.5161 46.8387H19.6308C19.9159 49.3786 20.7519 51.8256 22.0804 54.009C23.4089 56.1925 25.1979 58.0597 27.3226 59.4803V66.7403L16.8473 69.07C12.0688 70.1318 7.79529 72.7915 4.7323 76.6098C1.66931 80.4281 1.00257e-05 85.1768 0 90.0718V121H121V85.627C121.004 81.5871 119.808 77.6371 117.563 74.2784V74.2711ZM117.097 85.627V95.629H109.29V87.8226H105.387V117.097H90.9329C89.0323 113.722 86.3092 110.883 83.0169 108.844C79.7246 106.804 75.9701 105.63 72.1023 105.431C74.6086 103.57 76.6342 101.138 78.0108 98.3369L78.3036 98.6272C79.2075 99.5359 80.2827 100.256 81.4669 100.747C82.6511 101.237 83.9208 101.488 85.2025 101.484H94.4336L91.8966 93.8775C91.3221 92.1499 90.352 90.5804 89.0636 89.2941C87.7752 88.0078 86.2041 87.0403 84.4755 86.4687L84.6487 85.9441C86.1802 81.3758 86.2747 76.4479 84.9195 71.8242C86.8431 72.3408 88.869 72.3403 90.7923 71.8229C92.7156 71.3054 94.4683 70.2893 95.873 68.8773L96.3413 68.4089L102.601 69.192C106.605 69.6949 110.287 71.6424 112.956 74.6687C115.626 77.695 117.098 81.5918 117.097 85.627ZM35.2022 76.9936C35.1729 77.4693 35.129 77.9425 35.129 78.4256C35.129 78.5134 35.129 78.6012 35.129 78.6915L28.6643 81.2774L26.1028 71.0094L28.6472 70.4435L35.2022 76.9936ZM40.2105 89.7742H40.9839C40.9889 91.2914 41.1715 92.8028 41.5279 94.2775L39.9373 95.873C38.8338 96.9663 37.3435 97.5799 35.7901 97.5807H31.982L32.8042 95.1119C33.3223 93.5574 34.3165 92.2055 35.6458 91.2475C36.975 90.2895 38.572 89.7741 40.2105 89.7742ZM40.9839 83.4729V85.871H40.4398L40.052 84.7122C39.0564 81.7242 38.785 78.5424 39.2601 75.4289C39.7353 72.3154 40.9434 69.3594 42.7849 66.8043C44.6264 64.2493 47.0487 62.1683 49.8521 60.733C52.6555 59.2976 55.7599 58.5488 58.9094 58.5484H62.0808C65.2302 58.5484 68.3346 59.2968 71.138 60.7319C73.9415 62.167 76.3638 64.2477 78.2054 66.8026C80.047 69.3575 81.2551 72.3134 81.7303 75.4268C82.2054 78.5402 81.9339 81.7219 80.9382 84.7098L80.5601 85.871H80.0161V85.2489C80.0027 82.8048 79.0782 80.4536 77.4234 78.6549C75.7686 76.8562 73.5024 75.7393 71.068 75.5225L60.256 74.6248C59.3349 74.5523 58.4674 74.1628 57.8012 73.5227C57.1349 72.8826 56.7111 72.0313 56.6018 71.1139C56.4925 70.1964 56.7045 69.2694 57.2017 68.4907C57.699 67.712 58.4507 67.1296 59.329 66.8427L61.1196 66.2451L59.8828 62.5443L58.0946 63.142C56.52 63.665 55.1504 64.6712 54.1807 66.0176C53.211 67.3639 52.6906 68.9818 52.6935 70.6411C52.6935 70.8582 52.6935 71.0729 52.7204 71.2875L49.4783 72.2097C47.0347 72.9157 44.8859 74.3951 43.3543 76.4259C41.8228 78.4567 40.991 80.9294 40.9839 83.4729ZM54.6451 35.129C55.6803 35.129 56.6731 35.5403 57.4051 36.2723C58.1371 37.0043 58.5484 37.9971 58.5484 39.0323C58.5484 40.0675 58.1371 41.0603 57.4051 41.7923C56.6731 42.5243 55.6803 42.9355 54.6451 42.9355V35.129ZM54.5305 46.8387H54.6451C56.6101 46.8328 58.5002 46.0847 59.9369 44.7443C61.3737 43.4039 62.2509 41.5702 62.3931 39.6104L62.4516 39.4933V54.6622C62.3296 54.6622 62.2076 54.6452 62.0905 54.6452H58.9192C56.0373 54.6498 53.1807 55.1823 50.4907 56.2162C52.7406 53.5621 54.1472 50.297 54.5305 46.8387ZM87.8225 56.5968C84.2005 56.5929 80.728 55.1523 78.1668 52.5912C75.6057 50.03 74.1651 46.5575 74.1613 42.9355V36.5708C74.1545 34.5234 74.6879 32.5104 75.7078 30.735C76.7276 28.9596 78.1977 27.4846 79.9697 26.459C80.8809 28.01 82.0907 29.3649 83.529 30.4452C85.8967 32.2131 88.7709 33.1711 91.7258 33.1774H97.5806C98.6158 33.1774 99.6086 33.5886 100.341 34.3206C101.073 35.0526 101.484 36.0454 101.484 37.0806V42.9355C101.48 46.5575 100.039 50.03 97.4783 52.5912C94.9171 55.1523 91.4446 56.5929 87.8225 56.5968ZM87.8225 60.5C89.3504 60.4941 90.871 60.2883 92.3454 59.8877L93.5091 65.7132L93.1066 66.1109C90.284 68.9334 85.3611 68.9334 82.5386 66.1109L82.1824 65.7547L82.1385 65.6815L83.2997 59.8804C84.7736 60.2846 86.2943 60.493 87.8225 60.5ZM80.0161 89.7742H80.7894C82.4279 89.7741 84.0249 90.2895 85.3542 91.2475C86.6835 92.2055 87.6776 93.5574 88.1958 95.1119L89.0179 97.5807H85.2025C83.6492 97.5799 82.1588 96.9663 81.0553 95.873L79.4648 94.2824C79.824 92.8064 80.009 91.2933 80.0161 89.7742ZM44.8871 83.4729C44.8922 81.7777 45.4468 80.1298 46.4676 78.7765C47.4885 77.4231 48.9206 76.4372 50.5492 75.9665L54.006 74.9907C54.6642 75.9883 55.5391 76.8243 56.5656 77.4364C57.5921 78.0484 58.7435 78.4208 59.934 78.5256L70.7411 79.4258C72.2017 79.5552 73.5615 80.2251 74.5542 81.3044C75.5469 82.3838 76.101 83.7947 76.108 85.2611V89.7742C76.108 93.915 74.4631 97.8862 71.5351 100.814C68.6071 103.742 64.6359 105.387 60.4951 105.387C56.3543 105.387 52.3831 103.742 49.4551 100.814C46.5271 97.8862 44.8822 93.915 44.8822 89.7742L44.8871 83.4729ZM70.8289 109.29C73.8345 109.285 76.799 109.989 79.4811 111.345C82.1632 112.702 84.4871 114.672 86.2637 117.097H34.7363C36.5129 114.672 38.8368 112.702 41.5189 111.345C44.201 109.989 47.1655 109.285 50.1711 109.29H70.8289ZM80.0161 15.6129H80.8236L81.3969 15.0421C82.4512 13.9811 83.7058 13.1402 85.0877 12.5682C86.4697 11.9961 87.9516 11.7043 89.4473 11.7097C94.7089 11.7174 99.7526 13.8115 103.472 17.5327C107.192 21.2539 109.284 26.2984 109.29 31.56V67.1306C107.329 66.2013 105.233 65.5895 103.079 65.318L97.2659 64.5862L96.0462 58.441C98.8641 56.948 101.222 54.7159 102.868 51.9843C104.513 49.2526 105.384 46.1245 105.387 42.9355V37.0806C105.387 35.0102 104.565 33.0246 103.101 31.5607C101.637 30.0967 99.651 29.2742 97.5806 29.2742H91.7258C89.1378 29.2742 86.6558 28.2461 84.8258 26.4161C82.9958 24.5861 81.9677 22.1041 81.9677 19.5161H78.0645C78.0653 20.6298 78.203 21.7391 78.4743 22.8192C75.9845 24.1484 73.9039 26.131 72.4563 28.5539C71.0087 30.9768 70.2487 33.7484 70.258 36.5708V42.9355C70.2604 46.1267 71.1321 49.2571 72.7795 51.9902C74.427 54.7233 76.7879 56.956 79.6087 58.4484L78.9598 61.6856C75.5369 58.2351 71.1369 55.9188 66.3548 55.0501V29.2742C66.3587 25.6522 67.7992 22.1796 70.3604 19.6185C72.9215 17.0573 76.3941 15.6168 80.0161 15.6129ZM55.1477 19.8235C56.3201 18.6474 57.2261 17.2331 57.8043 15.6763C59.2832 17.1623 60.4547 18.925 61.2521 20.8639C62.0495 22.8028 62.4571 24.8797 62.4516 26.9762C62.4485 29.4674 61.8682 31.924 60.7561 34.1532L60.7293 34.202C60.0063 33.278 59.0832 32.5301 58.0293 32.0146C56.9754 31.4991 55.8183 31.2294 54.6451 31.2258H53.0692L47.4583 28.979C46.6981 28.6791 46.046 28.1569 45.5873 27.4805C45.1286 26.8042 44.8846 26.0052 44.8871 25.188C44.8879 24.3054 45.2025 23.4519 45.7747 22.7799C46.3468 22.1079 47.1392 21.6611 48.0104 21.5195C48.8815 21.3779 49.7746 21.5506 50.5302 22.0068C51.2857 22.4629 51.8545 23.1729 52.1349 24.0097L52.796 25.9882L56.4967 24.7513L55.8381 22.7753C55.5474 21.9231 55.1089 21.1286 54.5427 20.4285L55.1477 19.8235ZM19.2527 13.9174L20.8505 13.2758L21.1896 12.7123C22.8088 10.0314 25.0911 7.81254 27.8167 6.26965C30.5423 4.72676 33.6193 3.91178 36.7513 3.90323H46.9363C48.4611 3.9025 49.952 4.35417 51.22 5.20107C52.4881 6.04796 53.4764 7.25202 54.0599 8.66084C54.6434 10.0697 54.7958 11.6199 54.4978 13.1154C54.1999 14.6109 53.465 15.9843 52.3862 17.062L51.3518 18.0963C50.3051 17.6828 49.1793 17.5082 48.0565 17.5851C46.9338 17.662 45.8423 17.9885 44.8617 18.5409C43.8812 19.0932 43.0363 19.8574 42.3886 20.7778C41.741 21.6981 41.3069 22.7515 41.118 23.8609L36.239 25.2514C31.4353 26.6245 26.4638 27.3216 21.4677 27.3226C20.9501 27.3226 20.4537 27.117 20.0877 26.751C19.7217 26.385 19.5161 25.8886 19.5161 25.371C19.5161 24.8534 19.7217 24.357 20.0877 23.991C20.4537 23.625 20.9501 23.4194 21.4677 23.4194H23.4193V19.5161H21.4677C20.0873 19.5118 18.7499 19.9966 17.6929 20.8846C16.636 21.7725 15.9277 23.0062 15.6938 24.3667C15.4598 25.7272 15.7154 27.1266 16.4151 28.3166C17.1149 29.5065 18.2135 30.4102 19.5161 30.8672V31.2258C18.4678 31.2257 17.4303 31.4377 16.4661 31.8489C15.5018 32.2602 14.6308 32.8623 13.9052 33.619L12.3171 28.8546C11.3503 25.9508 11.5291 22.7874 12.8168 20.0111C14.1046 17.2347 16.4041 15.055 19.2453 13.9174H19.2527ZM15.6129 39.0323C15.6129 37.9971 16.0241 37.0043 16.7561 36.2723C17.4881 35.5403 18.4809 35.129 19.5161 35.129V42.9355C18.4809 42.9355 17.4881 42.5243 16.7561 41.7923C16.0241 41.0603 15.6129 40.0675 15.6129 39.0323ZM23.4193 44.8871V31.1575C28.1248 31.0095 32.7945 30.287 37.3246 29.0058L41.4522 27.8251C41.8242 28.9026 42.424 29.8872 43.2108 30.7119C43.9976 31.5366 44.9529 32.182 46.0117 32.6041L50.7419 34.4996V44.8871C50.7419 48.5103 49.3026 51.9851 46.7406 54.5471C44.1786 57.1091 40.7038 58.5484 37.0806 58.5484C33.4574 58.5484 29.9826 57.1091 27.4206 54.5471C24.8587 51.9851 23.4193 48.5103 23.4193 44.8871ZM37.0806 62.4516C38.7439 62.449 40.3983 62.2091 41.9938 61.7393C39.1133 64.662 37.039 68.2811 35.9731 72.2438L31.2258 67.499V61.427C33.1045 62.1007 35.0848 62.4473 37.0806 62.4516ZM9.06036 77.6181C11.4281 75.2483 14.4234 73.6038 17.6938 72.8781L22.2923 71.8559L25.9711 86.5613L35.5364 82.7338C35.732 83.8215 36.0035 84.8943 36.3488 85.9441L36.522 86.4687C34.7943 87.0418 33.224 88.0098 31.9358 89.2959C30.6476 90.582 29.677 92.1507 29.101 93.8775L26.5663 101.484H35.7975C37.0783 101.487 38.3471 101.236 39.5304 100.745C40.7137 100.255 41.7881 99.5352 42.6915 98.6272L42.9843 98.3369C44.3616 101.138 46.3872 103.57 48.8928 105.431C45.0258 105.631 41.2722 106.805 37.9807 108.845C34.6893 110.884 31.9671 113.723 30.067 117.097H15.6129V89.7742H11.7097V97.5807H3.90322V90.0718C3.89655 87.7581 4.34893 85.466 5.23416 83.3283C6.11939 81.1906 7.41989 79.2497 9.06036 77.6181ZM3.90322 101.484H11.7097V117.097H3.90322V101.484ZM109.29 117.097V99.5323H117.097V117.097H109.29Z" fill="#334750"/>
</g>
<defs>
<clipPath id="clip0_5_241">
<rect width="121" height="121" fill="white"/>
</clipPath>
</defs>
</svg>
