<svg width="122" height="121" viewBox="0 0 122 121" fill="none" xmlns="http://www.w3.org/2000/svg">
<g clip-path="url(#clip0_5_236)">
<path d="M35.9887 65.2809C35.988 64.8372 35.8114 64.4118 35.4976 64.098C35.1838 63.7843 34.7584 63.6077 34.3147 63.6069L22.0297 63.6081C21.8062 63.602 21.5838 63.6408 21.3755 63.7221C21.1672 63.8035 20.9774 63.9257 20.8171 64.0816C20.6569 64.2376 20.5295 64.424 20.4426 64.63C20.3556 64.836 20.3108 65.0573 20.3108 65.2809C20.3108 65.5045 20.3556 65.7258 20.4426 65.9318C20.5295 66.1378 20.6569 66.3243 20.8171 66.4802C20.9774 66.6361 21.1672 66.7584 21.3755 66.8397C21.5838 66.9211 21.8062 66.9598 22.0297 66.9537L34.3147 66.9549C34.7584 66.9542 35.1838 66.7776 35.4976 66.4638C35.8114 66.15 35.988 65.7247 35.9887 65.2809Z" fill="#334750"/>
<path d="M39.8778 64.1035C38.3518 62.5775 35.9852 64.9441 37.5112 66.4701C39.0373 67.9962 41.4027 65.6285 39.8778 64.1035Z" fill="#334750"/>
<path d="M107.94 72.5766L107.934 47.6392C107.934 47.1956 107.758 46.7702 107.444 46.4566C107.13 46.1429 106.705 45.9666 106.261 45.9664L89.8065 45.9606L73.346 45.9606L23.9632 45.9594L15.7388 45.9664C15.2952 45.9666 14.8698 46.1429 14.5561 46.4566C14.2425 46.7702 14.0662 47.1956 14.066 47.6392L14.0601 72.5766C14.0603 73.0202 14.2366 73.4456 14.5503 73.7592C14.8639 74.0729 15.2893 74.2492 15.7329 74.2494L106.266 74.2506C106.71 74.2503 107.135 74.0738 107.449 73.7599C107.763 73.4461 107.94 73.0204 107.94 72.5766ZM17.4081 70.9026V49.3027H22.2892L22.2892 53.4489C22.2892 53.6687 22.3325 53.8864 22.4166 54.0895C22.5008 54.2926 22.6241 54.4772 22.7795 54.6326C22.935 54.788 23.1195 54.9114 23.3226 54.9955C23.5257 55.0796 23.7434 55.1229 23.9632 55.1229C24.183 55.1229 24.4007 55.0796 24.6038 54.9955C24.8069 54.9114 24.9915 54.788 25.1469 54.6326C25.3023 54.4772 25.4257 54.2926 25.5098 54.0895C25.5939 53.8864 25.6372 53.6687 25.6372 53.4489L25.6372 49.3074L30.5207 49.3074L30.5254 56.865C30.5239 57.0856 30.5661 57.3043 30.6495 57.5086C30.7329 57.7128 30.8559 57.8986 31.0114 58.0551C31.1669 58.2117 31.3518 58.3359 31.5554 58.4207C31.7591 58.5056 31.9775 58.5493 32.1982 58.5493C32.4188 58.5494 32.6373 58.5059 32.841 58.4212C33.0447 58.3365 33.2297 58.2124 33.3853 58.056C33.5409 57.8995 33.664 57.7139 33.7475 57.5097C33.8311 57.3055 33.8735 57.0868 33.8722 56.8662L33.8686 49.3074H38.7498L38.7509 53.4548C38.7496 53.6754 38.792 53.8941 38.8755 54.0983C38.9591 54.3025 39.0822 54.4881 39.2378 54.6446C39.3934 54.801 39.5784 54.9251 39.7821 55.0098C39.9858 55.0945 40.2043 55.138 40.4249 55.138C40.6456 55.1379 40.864 55.0942 41.0677 55.0094C41.2713 54.9245 41.4562 54.8003 41.6117 54.6437C41.7672 54.4872 41.8901 54.3015 41.9736 54.0972C42.057 53.893 42.0992 53.6742 42.0977 53.4536L42.0977 49.3074L46.9812 49.3074L46.98 56.8709C46.98 57.3148 47.1564 57.7406 47.4703 58.0545C47.7843 58.3685 48.21 58.5448 48.654 58.5448C49.098 58.5448 49.5238 58.3685 49.8377 58.0545C50.1516 57.7406 50.328 57.3148 50.328 56.8709L50.3268 49.3074H55.2103L55.2103 53.4513C55.209 53.6719 55.2514 53.8906 55.3349 54.0948C55.4185 54.299 55.5416 54.4846 55.6972 54.6411C55.8527 54.7975 56.0377 54.9216 56.2415 55.0063C56.4452 55.091 56.6637 55.1345 56.8843 55.1344C57.1049 55.1344 57.3233 55.0907 57.527 55.0058C57.7307 54.921 57.9156 54.7968 58.0711 54.6402C58.2265 54.4837 58.3495 54.2979 58.4329 54.0937C58.5163 53.8894 58.5585 53.6707 58.5571 53.4501V49.3062H63.4406L63.4406 56.8709C63.4406 57.3148 63.6169 57.7406 63.9309 58.0545C64.2448 58.3685 64.6706 58.5448 65.1145 58.5448C65.5585 58.5448 65.9843 58.3685 66.2982 58.0545C66.6122 57.7406 66.7885 57.3148 66.7885 56.8709V49.3062L71.6708 49.3074L71.6708 53.4536C71.6585 53.6805 71.6925 53.9076 71.7708 54.121C71.849 54.3343 71.97 54.5295 72.1261 54.6946C72.2823 54.8597 72.4705 54.9913 72.6792 55.0812C72.8879 55.1712 73.1128 55.2178 73.34 55.218C73.5673 55.2182 73.7922 55.1722 74.0011 55.0826C74.21 54.9931 74.3985 54.8619 74.555 54.6972C74.7115 54.5324 74.8329 54.3375 74.9116 54.1243C74.9903 53.9111 75.0248 53.6841 75.0129 53.4571L75.0188 49.3074H79.8999L79.9011 56.8709C79.9009 57.0907 79.9441 57.3084 80.0281 57.5115C80.112 57.7147 80.2352 57.8993 80.3906 58.0549C80.5459 58.2104 80.7303 58.3339 80.9334 58.4181C81.1364 58.5024 81.3541 58.5459 81.5739 58.546C81.7937 58.5462 82.0115 58.503 82.2146 58.419C82.4178 58.3351 82.6024 58.2119 82.7579 58.0565C82.9135 57.9012 83.0369 57.7168 83.1212 57.5137C83.2055 57.3107 83.2489 57.093 83.2491 56.8732L83.2491 49.3085H88.1325L88.1325 53.4524C88.1311 53.6731 88.1733 53.8918 88.2567 54.096C88.3401 54.3003 88.4631 54.486 88.6186 54.6426C88.774 54.7991 88.9589 54.9234 89.1626 55.0082C89.3663 55.093 89.5847 55.1367 89.8053 55.1368C90.026 55.1369 90.2444 55.0933 90.4482 55.0086C90.6519 54.924 90.8369 54.7998 90.9925 54.6434C91.148 54.487 91.2712 54.3013 91.3547 54.0971C91.4383 53.8929 91.4806 53.6742 91.4793 53.4536L91.4793 49.3074L96.3616 49.3062L96.3616 56.8709C96.3616 57.3148 96.538 57.7406 96.8519 58.0545C97.1659 58.3685 97.5916 58.5448 98.0356 58.5448C98.4796 58.5448 98.9054 58.3685 99.2193 58.0545C99.5332 57.7406 99.7096 57.3148 99.7096 56.8709L99.7108 49.3074L104.592 49.3074V70.9073L17.4081 70.9026Z" fill="#334750"/>
</g>
<defs>
<clipPath id="clip0_5_236">
<rect width="85" height="85" fill="white" transform="translate(61) rotate(45)"/>
</clipPath>
</defs>
</svg>
