<svg width="277" height="80" viewBox="0 0 277 80" fill="none" xmlns="http://www.w3.org/2000/svg">
<g clip-path="url(#clip0_1_465)">
<path d="M214.802 33.1C210.422 33.1 207.658 28.7694 208.546 23.5005C209.534 18.2317 213.814 13.9589 218.194 13.9589C222.574 13.9589 225.288 18.2389 224.349 23.5005C223.411 28.7694 219.132 33.1 214.802 33.1ZM217.934 15.5756C214.802 15.5756 212.717 19.1195 211.937 23.5005C211.158 27.8816 211.937 31.4832 215.069 31.4832C218.201 31.4832 220.236 27.8816 221.015 23.5005C221.795 19.1195 221.015 15.5756 217.941 15.5756H217.934ZM223.931 12.1184L219.031 8.1559L212.774 12.1184L212.255 11.5482L219.659 4.77084L224.717 11.5482L223.938 12.1184H223.931Z" fill="#006F95"/>
<path d="M233.312 30.0758C232.554 31.0935 231.681 31.8513 230.851 32.3493C230.021 32.8546 229.242 33.1 228.665 33.1C227.489 33.1 226.63 32.6453 226.154 31.6781C225.677 30.7109 225.583 29.2385 225.951 27.2032L226.861 21.9343L227.77 16.6655H224.378L224.559 15.756L224.739 14.8466H228.131L228.86 10.6748L229.589 6.50307H232.461L231.753 10.6748L231.046 14.8466H235.217L235.037 15.756L234.856 16.6655H230.685L229.747 21.9343L228.809 27.2032C228.6 28.459 228.578 29.4045 228.759 30.0469C228.939 30.6893 229.329 31.0141 229.957 31.0141C230.296 31.0141 230.75 30.8842 231.306 30.5233C231.862 30.1624 232.511 29.5778 233.24 28.6611C234.575 26.8423 234.907 26.3371 234.907 26.3371L234.618 28.0476C234.618 28.0476 234.727 28.0765 233.298 30.0758H233.312Z" fill="#006F95"/>
<path d="M241.135 31.0141C242.441 31.0141 244.469 29.9675 245.883 28.6178L246.352 29.6644C244.627 31.5915 242.022 33.1072 239.778 33.1072C235.448 33.1072 233.312 28.7766 234.2 23.5078C235.246 17.9791 239.518 13.9661 243.17 13.9661C245.934 13.9661 247.449 16.0014 246.98 18.4482C246.511 21.162 243.487 24.446 237.021 25.803C236.971 28.9859 238.27 31.0213 241.142 31.0213L241.135 31.0141ZM244.368 18.4987C244.577 17.1418 244.108 16.0447 242.802 16.0447C240.399 16.0447 238.111 18.8596 237.274 23.5583C237.223 23.8686 237.173 24.1285 237.115 24.3955C241.705 23.2984 243.949 20.5846 244.36 18.4987H244.368Z" fill="#006F95"/>
<path d="M84.9799 49.3829L107.351 59.9711L84.3809 70.314" fill="#FBBA00"/>
<path d="M167.268 48.6611L189.639 59.2494L166.669 69.5922" fill="#FBBA00"/>
<path d="M31.4994 39.1844H39.1848C45.2971 39.1844 50.2764 39.9928 55.0969 44.114C59.7515 48.1198 61.8586 53.5836 61.8586 59.6536C61.8586 65.7236 59.6937 70.8625 55.2052 74.8683C50.3341 79.1989 45.4631 80.0072 39.0766 80.0072H31.4994V39.1916V39.1844ZM39.3436 75.7849C44.3229 75.7849 48.4939 75.0776 52.2248 71.5626C55.5804 68.423 57.3123 64.1429 57.3123 59.5958C57.3123 55.0487 55.5299 50.4511 52.0083 47.362C48.2702 44.0563 44.1641 43.4139 39.3436 43.4139H36.0457V75.7849H39.3436Z" fill="#006F95"/>
<path d="M118.507 75.7849H129.765V80.0072H113.961V39.1916H118.507V75.7849Z" fill="#006F95"/>
<path d="M128.487 39.1844H135.199C142.61 39.1844 148.837 41.891 148.837 50.2274C148.837 53.5258 147.596 56.3407 144.832 58.1812C149.703 59.3721 152.576 63.7604 152.576 68.6323C152.576 76.7521 146.03 80 137.962 80H128.495V39.1844H128.487ZM133.034 57.1563H134.766C139.904 57.1563 144.291 56.5572 144.291 50.2274C144.291 43.8975 140.394 43.4067 134.823 43.4067H133.041V57.1563H133.034ZM133.034 75.7849H137.58C142.667 75.7849 148.022 74.5363 148.022 68.3147C148.022 62.0931 141.96 61.061 136.981 61.061H133.034V75.7849Z" fill="#006F95"/>
<path d="M200.622 80H196.076V43.4067H186.225V39.1844H210.581V43.4067H200.622V80Z" fill="#006F95"/>
<path d="M211.843 80H207.297V39.1844H213.2C220.936 39.1844 228.138 41.2414 228.138 50.4439C228.138 56.7232 224.183 61.162 217.905 61.7034L230.895 80H225.324L212.984 62.0787H211.851V80H211.843ZM211.843 58.0801H213.251C218.389 58.0801 223.584 57.1057 223.584 50.7759C223.584 44.0635 218.663 43.4139 213.193 43.4139H211.843V58.0873V58.0801Z" fill="#006F95"/>
<path d="M225.807 39.1844H245.869V43.4067H230.353V57.4305H245.869V61.6528H230.353V75.7777H245.869V80H225.807V39.1844Z" fill="#006F95"/>
<path d="M82.6273 50.8336L71.045 45.9112V40.9311L113.802 59.769L71.045 78.1234V73.0928L82.6273 68.2786V50.8481V50.8336ZM103.194 59.6608L86.8489 52.6741V66.4742L103.194 59.6536V59.6608Z" fill="#006F95"/>
<path d="M164.923 50.8336L153.34 45.9112V40.9311L196.097 59.769L153.34 78.1234V73.0928L164.923 68.2786V50.8481V50.8336ZM185.489 59.6608L169.144 52.6741V66.4742L185.489 59.6536V59.6608Z" fill="#006F95"/>
<path d="M66.5493 39.2133H63.5328V50.812H66.5493V39.2133Z" fill="#006F95"/>
<path d="M204.403 31.6204C204.403 30.3717 204.353 29.1158 203.884 28.6467C201.43 31.411 198.565 33.0783 195.794 33.0783C189.22 33.0783 185.15 25.6153 186.716 16.5355C188.333 7.45579 195.065 -0.00721741 201.632 -0.00721741C204.346 -0.00721741 206.64 1.60953 208.156 4.4244C208.784 3.90473 209.253 2.75713 209.772 1.45074H210.812L208.777 12.9267H207.68C207.939 6.14219 205.594 2.02093 201.365 2.02093C195.729 2.02093 191.869 10.0541 190.721 16.5283C189.574 23.0025 190.671 30.9852 196.249 30.9852C200.528 30.9852 204.288 26.8062 206.424 20.1299H207.521L205.486 31.6059H204.389L204.403 31.6204Z" fill="#006F95"/>
<path d="M277 59.6536L252.479 49.1808V69.8881L277 59.6536Z" fill="#FBBA00"/>
<path d="M24.5212 59.6536L0 49.1808V69.8881L24.5212 59.6536Z" fill="#FBBA00"/>
<path d="M36.8179 24.8502C36.356 24.5038 35.8364 24.3306 35.3024 24.3306C33.6066 24.3306 32.4808 25.8679 32.4808 27.9538C32.4808 30.0397 33.722 31.577 35.2519 31.577C35.7787 31.577 36.4859 31.4038 36.8539 31.1223L36.9189 32.4071C36.3632 32.6958 35.6777 32.7391 35.2447 32.7391C32.921 32.7391 31.3695 30.8553 31.3695 27.9033C31.3695 24.9513 33.0148 23.1469 35.2519 23.1469C35.822 23.1469 36.3777 23.2551 36.9045 23.5438L36.8179 24.8286V24.8502Z" fill="#006F95"/>
<path d="M40.0436 25.6658C41.6745 25.6658 42.7713 27.1527 42.7713 29.2097C42.7713 31.1512 41.6528 32.7535 40.0436 32.7535C38.4343 32.7535 37.3086 31.144 37.3086 29.2097C37.3086 27.1527 38.4055 25.6658 40.0436 25.6658ZM40.0436 31.7431C41.1982 31.7431 41.7178 30.415 41.7178 29.2097C41.7178 27.9177 41.0972 26.6763 40.0436 26.6763C38.99 26.6763 38.3622 27.9249 38.3622 29.2097C38.3622 30.415 38.8745 31.7431 40.0436 31.7431Z" fill="#006F95"/>
<path d="M43.6662 25.8246H44.5899V26.8062H44.6115C44.994 26.0195 45.528 25.6658 46.3146 25.6658C46.9352 25.6658 47.5558 26.0628 47.8445 26.9794C48.2125 26.0123 49.0207 25.6658 49.5114 25.6658C50.8825 25.6658 51.3733 26.7846 51.3733 28.2569V32.6019H50.3846V28.5673C50.3846 27.7301 50.2259 26.6835 49.4248 26.6835C48.4145 26.6835 48.0104 27.9322 48.0104 29.1952V32.6092H47.0218V28.5745C47.0218 27.7373 46.863 26.6907 46.062 26.6907C45.0517 26.6907 44.6476 27.9394 44.6476 29.2025V32.6164H43.659V25.8463L43.6662 25.8246Z" fill="#006F95"/>
<path d="M52.6 25.8246H53.5237V26.8062H53.5454C53.9278 26.0195 54.4618 25.6658 55.2484 25.6658C55.869 25.6658 56.4896 26.0628 56.7783 26.9794C57.1463 26.0123 57.9546 25.6658 58.4453 25.6658C59.8164 25.6658 60.3071 26.7846 60.3071 28.2569V32.6019H59.3185V28.5673C59.3185 27.7301 59.1597 26.6835 58.3587 26.6835C57.3484 26.6835 56.9443 27.9322 56.9443 29.1952V32.6092H55.9556V28.5745C55.9556 27.7373 55.7969 26.6907 54.9959 26.6907C53.9856 26.6907 53.5814 27.9394 53.5814 29.2025V32.6164H52.5928V25.8463L52.6 25.8246Z" fill="#006F95"/>
<path d="M66.3039 32.5947H65.3441V31.5193H65.3225C65.0266 32.2916 64.3122 32.7535 63.5617 32.7535C62.1689 32.7535 61.5483 31.6637 61.5483 29.8448V25.8174H62.537V29.3252C62.537 30.9058 62.8112 31.6781 63.6771 31.7431C64.8029 31.7431 65.308 30.6027 65.308 28.9571V25.8246H66.2967V32.5947H66.3039Z" fill="#006F95"/>
<path d="M67.5668 25.8246H68.5265V26.9H68.5482C68.8441 26.1278 69.5585 25.6658 70.309 25.6658C71.7017 25.6658 72.3224 26.7557 72.3224 28.5745V32.6019H71.3337V29.0942C71.3337 27.5135 71.0595 26.7412 70.1935 26.6763C69.0678 26.6763 68.5626 27.8167 68.5626 29.4623V32.5947H67.574V25.8246H67.5668Z" fill="#006F95"/>
<path d="M73.8306 26.301C74.3285 25.9257 74.913 25.6658 75.5986 25.6658C77.1356 25.6658 77.7563 26.6185 77.7563 28.4663V31.2667C77.7563 32.039 77.7779 32.3926 77.7996 32.5947H76.8759V31.7214H76.8542C76.6233 32.1328 76.0965 32.7607 75.1872 32.7607C74.0254 32.7607 73.2172 32.1256 73.2172 30.646C73.2172 28.9498 74.6893 28.4157 75.714 28.4157C76.1037 28.4157 76.3779 28.4157 76.7676 28.4446C76.7676 27.2754 76.4284 26.6763 75.4398 26.6763C74.8841 26.6763 74.2852 26.9433 73.8811 27.3692L73.8306 26.3082V26.301ZM76.7676 29.3685C76.5583 29.3685 76.3491 29.3396 76.1326 29.3396C75.5986 29.3396 74.2708 29.4479 74.2708 30.6388C74.2708 31.3533 74.8192 31.7431 75.2738 31.7431C76.2552 31.7431 76.7676 30.9708 76.7676 29.9603V29.3612V29.3685Z" fill="#006F95"/>
<path d="M83.7603 32.5947H82.8005V31.5193H82.7789C82.483 32.2916 81.7686 32.7535 81.0181 32.7535C79.6253 32.7535 79.0047 31.6637 79.0047 29.8448V25.8174H79.9933V29.3252C79.9933 30.9058 80.2676 31.6781 81.1335 31.7431C82.2593 31.7431 82.7644 30.6027 82.7644 28.9571V25.8246H83.7531V32.5947H83.7603Z" fill="#006F95"/>
<path d="M87.8736 26.8351H86.452V30.5377C86.452 31.3244 86.8344 31.7431 87.2819 31.7431C87.5849 31.7431 87.8087 31.6204 87.953 31.5049V32.5659C87.7293 32.6453 87.4262 32.7535 87.1087 32.7535C86.0912 32.7535 85.4561 32.14 85.4561 30.7903V26.8351H84.2438V25.8246H85.4561V24.2584L86.4448 23.8614V25.8246H87.8664V26.8351H87.8736Z" fill="#006F95"/>
<path d="M92.8168 32.3205C92.4343 32.4937 92.0086 32.7607 91.1209 32.7607C89.2158 32.7607 88.3427 31.3028 88.3427 29.0942C88.3427 27.0877 89.3457 25.6658 90.8612 25.6658C92.6508 25.6658 93.2281 27.3114 93.2281 29.4912H89.3962C89.3962 30.8336 90.2261 31.7503 91.1643 31.7503C91.8137 31.7503 92.5787 31.3244 92.8168 31.0718V32.3205ZM92.1745 28.5601C92.1745 27.528 91.691 26.6763 90.8395 26.6763C89.8725 26.6763 89.4684 27.6868 89.3962 28.5601H92.1745ZM91.0271 22.9664H92.1745L90.7962 24.8791H90.089L91.0271 22.9664Z" fill="#006F95"/>
<path d="M100.437 31.642H100.416C100.156 32.1472 99.5424 32.7607 98.5827 32.7607C96.959 32.7607 96.2734 30.9419 96.2734 29.0942C96.2734 27.2465 97.0311 25.6658 98.5899 25.6658C99.528 25.6658 100.062 26.1278 100.372 26.7557H100.394V22.6416H101.383V32.6019H100.437V31.6492V31.642ZM98.8136 31.7431C99.9321 31.7431 100.394 30.3501 100.394 29.2169C100.394 27.9538 99.8816 26.6691 98.8064 26.6691C97.7311 26.6691 97.3126 27.9466 97.3342 29.1808C97.3126 30.2418 97.7528 31.7431 98.8208 31.7431H98.8136Z" fill="#006F95"/>
<path d="M106.766 32.3205C106.391 32.4937 105.958 32.7607 105.07 32.7607C103.165 32.7607 102.292 31.3028 102.292 29.0942C102.292 27.0877 103.295 25.6658 104.81 25.6658C106.6 25.6658 107.177 27.3114 107.177 29.4912H103.345C103.345 30.8336 104.175 31.7503 105.114 31.7503C105.763 31.7503 106.528 31.3244 106.766 31.0718V32.3205ZM106.124 28.5601C106.124 27.528 105.64 26.6763 104.789 26.6763C103.822 26.6763 103.418 27.6868 103.345 28.5601H106.124Z" fill="#006F95"/>
<path d="M115.758 24.8502C115.296 24.5038 114.776 24.3306 114.242 24.3306C112.546 24.3306 111.421 25.8679 111.421 27.9538C111.421 30.0397 112.662 31.577 114.192 31.577C114.718 31.577 115.426 31.4038 115.794 31.1223L115.859 32.4071C115.303 32.6958 114.617 32.7391 114.184 32.7391C111.861 32.7391 110.309 30.8553 110.309 27.9033C110.309 24.9513 111.955 23.1469 114.192 23.1469C114.762 23.1469 115.317 23.2551 115.844 23.5438L115.758 24.8286V24.8502Z" fill="#006F95"/>
<path d="M118.983 25.6658C120.614 25.6658 121.711 27.1527 121.711 29.2097C121.711 31.1512 120.593 32.7535 118.983 32.7535C117.374 32.7535 116.248 31.144 116.248 29.2097C116.248 27.1527 117.345 25.6658 118.983 25.6658ZM118.983 31.7431C120.138 31.7431 120.658 30.415 120.658 29.2097C120.658 27.9177 120.037 26.6763 118.983 26.6763C117.93 26.6763 117.302 27.9249 117.302 29.2097C117.302 30.415 117.814 31.7431 118.983 31.7431Z" fill="#006F95"/>
<path d="M122.599 25.8246H123.522V26.8062H123.544C123.927 26.0195 124.461 25.6658 125.247 25.6658C125.868 25.6658 126.488 26.0628 126.777 26.9794C127.145 26.0123 127.953 25.6658 128.444 25.6658C129.815 25.6658 130.306 26.7846 130.306 28.2569V32.6019H129.317V28.5673C129.317 27.7301 129.158 26.6835 128.357 26.6835C127.347 26.6835 126.943 27.9322 126.943 29.1952V32.6092H125.954V28.5745C125.954 27.7373 125.796 26.6907 124.995 26.6907C123.984 26.6907 123.58 27.9394 123.58 29.2025V32.6164H122.592V25.8463L122.599 25.8246Z" fill="#006F95"/>
<path d="M131.54 25.8246H132.463V26.8062H132.485C132.868 26.0195 133.402 25.6658 134.188 25.6658C134.809 25.6658 135.429 26.0628 135.718 26.9794C136.086 26.0123 136.894 25.6658 137.385 25.6658C138.756 25.6658 139.247 26.7846 139.247 28.2569V32.6019H138.258V28.5673C138.258 27.7301 138.099 26.6835 137.298 26.6835C136.288 26.6835 135.884 27.9322 135.884 29.1952V32.6092H134.895V28.5745C134.895 27.7373 134.737 26.6907 133.936 26.6907C132.925 26.6907 132.521 27.9394 132.521 29.2025V32.6164H131.533V25.8463L131.54 25.8246Z" fill="#006F95"/>
<path d="M145.244 32.5947H144.284V31.5193H144.262C143.966 32.2916 143.252 32.7535 142.501 32.7535C141.109 32.7535 140.488 31.6637 140.488 29.8448V25.8174H141.477V29.3252C141.477 30.9058 141.751 31.6781 142.617 31.7431C143.743 31.7431 144.248 30.6027 144.248 28.9571V25.8246H145.236V32.5947H145.244Z" fill="#006F95"/>
<path d="M146.507 25.8246H147.466V26.9H147.488C147.784 26.1278 148.498 25.6658 149.249 25.6658C150.642 25.6658 151.262 26.7557 151.262 28.5745V32.6019H150.273V29.0942C150.273 27.5135 149.999 26.7412 149.133 26.6763C148.008 26.6763 147.502 27.8167 147.502 29.4623V32.5947H146.514V25.8246H146.507Z" fill="#006F95"/>
<path d="M156.631 32.3205C156.249 32.4937 155.823 32.7607 154.935 32.7607C153.03 32.7607 152.157 31.3028 152.157 29.0942C152.157 27.0877 153.16 25.6658 154.675 25.6658C156.465 25.6658 157.042 27.3114 157.042 29.4912H153.211C153.211 30.8336 154.04 31.7503 154.979 31.7503C155.628 31.7503 156.393 31.3244 156.631 31.0718V32.3205ZM155.989 28.5601C155.989 27.528 155.505 26.6763 154.654 26.6763C153.687 26.6763 153.283 27.6868 153.211 28.5601H155.989Z" fill="#006F95"/>
<path d="M157.548 31.2667C157.937 31.5843 158.493 31.7431 158.782 31.7431C159.236 31.7431 159.792 31.5049 159.792 30.7759C159.792 29.5417 157.468 29.6499 157.468 27.7445C157.468 26.3371 158.298 25.6586 159.366 25.6586C159.828 25.6586 160.21 25.7813 160.6 25.9257L160.513 27.0155C160.29 26.8423 159.705 26.6691 159.474 26.6691C158.969 26.6691 158.529 26.9361 158.529 27.4919C158.529 28.8704 160.853 28.4735 160.853 30.6388C160.853 32.0895 159.936 32.7535 158.976 32.7535C158.471 32.7535 157.952 32.6886 157.504 32.3782L157.555 31.2595L157.548 31.2667Z" fill="#006F95"/>
<path d="M167.932 31.642H167.91C167.65 32.1472 167.037 32.7607 166.077 32.7607C164.454 32.7607 163.768 30.9419 163.768 29.0942C163.768 27.2465 164.526 25.6658 166.085 25.6658C167.023 25.6658 167.557 26.1278 167.867 26.7557H167.889V22.6416H168.877V32.6019H167.932V31.6492V31.642ZM166.308 31.7431C167.427 31.7431 167.889 30.3501 167.889 29.2169C167.889 27.9538 167.369 26.6691 166.301 26.6691C165.233 26.6691 164.807 27.9466 164.829 29.1808C164.807 30.2418 165.247 31.7431 166.315 31.7431H166.308Z" fill="#006F95"/>
<path d="M174.261 32.3205C173.878 32.4937 173.452 32.7607 172.565 32.7607C170.66 32.7607 169.786 31.3028 169.786 29.0942C169.786 27.0877 170.79 25.6658 172.305 25.6658C174.095 25.6658 174.672 27.3114 174.672 29.4912H170.84C170.84 30.8336 171.67 31.7503 172.608 31.7503C173.265 31.7503 174.023 31.3244 174.261 31.0718V32.3205ZM173.618 28.5601C173.618 27.528 173.135 26.6763 172.283 26.6763C171.316 26.6763 170.912 27.6868 170.84 28.5601H173.618Z" fill="#006F95"/>
<path d="M178.208 22.6344H179.197V32.5947H178.208V22.6344Z" fill="#006F95"/>
<path d="M180.842 26.301C181.34 25.9257 181.924 25.6658 182.61 25.6658C184.147 25.6658 184.768 26.6185 184.768 28.4663V31.2667C184.768 32.039 184.789 32.3926 184.811 32.5947H183.887V31.7214H183.866C183.635 32.1328 183.108 32.7607 182.199 32.7607C181.037 32.7607 180.229 32.1256 180.229 30.646C180.229 28.9498 181.701 28.4157 182.725 28.4157C183.115 28.4157 183.389 28.4157 183.779 28.4446C183.779 27.2754 183.44 26.6763 182.451 26.6763C181.896 26.6763 181.297 26.9433 180.892 27.3692L180.842 26.3082V26.301ZM183.779 29.3685C183.57 29.3685 183.36 29.3396 183.144 29.3396C182.61 29.3396 181.282 29.4479 181.282 30.6388C181.282 31.3533 181.831 31.7431 182.285 31.7431C183.267 31.7431 183.779 30.9708 183.779 29.9603V29.3612V29.3685Z" fill="#006F95"/>
</g>
<defs>
<clipPath id="clip0_1_465">
<rect width="277" height="80" fill="white"/>
</clipPath>
</defs>
</svg>
