<svg width="418" height="310" viewBox="0 0 418 310" fill="none" xmlns="http://www.w3.org/2000/svg">
<path d="M2.10213 43.1724C0.604571 41.4467 -0.0871609 39.2447 0.178887 37.0501C0.444935 34.8555 1.647 32.8479 3.52104 31.4681C22.2079 18.8985 43.415 9.85695 65.919 4.86491C100.782 -3.15066 154.719 -5.12119 213.678 31.0406C256.341 57.2059 300.943 65.2965 346.247 55.0769C366.472 50.6298 385.564 42.6079 402.461 31.4577C404.342 30.1003 406.73 29.4814 409.105 29.7358C411.48 29.9902 413.649 31.0971 415.141 32.8158C416.633 34.5345 417.327 36.7257 417.071 38.9125C416.815 41.0994 415.631 43.1048 413.776 44.4923C395.089 57.0619 373.882 66.1035 351.378 71.0955C337.505 74.2895 323.259 75.9079 308.958 75.9144C278.617 75.9165 242.197 68.5807 203.619 44.9198C160.959 18.7545 116.354 10.6639 71.0507 20.8835C50.8257 25.3306 31.7333 33.3525 14.836 44.5028C12.9543 45.8766 10.5572 46.5081 8.17022 46.2587C5.78323 46.0093 3.60109 44.8995 2.10213 43.1724ZM402.461 148.23C385.564 159.38 366.472 167.402 346.247 171.849C300.943 182.066 256.341 173.976 213.678 147.813C154.719 111.655 100.782 113.621 65.9168 121.637C43.4135 126.629 22.2072 135.671 3.52104 148.24C1.66603 149.628 0.481835 151.633 0.226209 153.82C-0.0294165 156.007 0.664219 158.198 2.15613 159.917C3.64805 161.635 5.81747 162.742 8.19223 162.997C10.567 163.251 12.9548 162.632 14.836 161.275C31.7333 150.125 50.8257 142.103 71.0507 137.656C116.354 127.434 160.956 135.529 203.619 161.692C242.197 185.353 278.617 192.689 308.958 192.686C346.609 192.55 383.267 181.561 413.776 161.264C415.61 159.871 416.775 157.87 417.02 155.693C417.265 153.516 416.57 151.338 415.086 149.629C413.601 147.919 411.446 146.814 409.084 146.553C406.723 146.292 404.344 146.895 402.461 148.232V148.23ZM402.461 265.002C385.564 276.152 366.472 284.174 346.247 288.621C300.943 298.839 256.341 290.748 213.678 264.585C154.719 228.425 100.782 230.393 65.9168 238.409C43.4135 243.401 22.2072 252.443 3.52104 265.012C1.66603 266.4 0.481835 268.405 0.226209 270.592C-0.0294165 272.779 0.664219 274.97 2.15613 276.689C3.64805 278.407 5.81747 279.514 8.19223 279.769C10.567 280.023 12.9548 279.404 14.836 278.047C31.7333 266.897 50.8257 258.875 71.0507 254.428C116.354 244.204 160.956 252.301 203.619 278.464C242.197 302.125 278.617 309.461 308.958 309.458C346.609 309.322 383.267 298.333 413.776 278.036C415.61 276.643 416.775 274.642 417.02 272.465C417.265 270.289 416.57 268.11 415.086 266.401C413.601 264.691 411.446 263.586 409.084 263.325C406.723 263.064 404.344 263.667 402.461 265.004V265.002Z" fill="#E0F0F3"/>
</svg>
