<svg width="779" height="225" viewBox="0 0 779 225" fill="none" xmlns="http://www.w3.org/2000/svg">
<path d="M768.638 225H779V214.391H768.638V225ZM751.147 225H761.509V214.391H751.147V225ZM733.656 225H744.034V214.391H733.656V225ZM727.06 179.387V173.304C727.06 166.178 723.159 162.615 715.356 162.615H709.262C701.47 162.615 697.574 166.178 697.574 173.304V186.064C697.525 187.41 697.728 188.754 698.172 190.028C698.583 191.024 699.273 191.882 700.161 192.5C701.566 193.406 703.048 194.19 704.59 194.843L713.837 199.272C714.755 199.749 715.641 200.285 716.488 200.877C716.794 201.181 717.026 201.55 717.166 201.956C717.306 202.362 717.351 202.795 717.296 203.221V213.813C717.296 216.253 716.003 217.473 713.433 217.473H711.703C708.793 217.473 707.338 216.253 707.338 213.813V210.427H697.639V213.557C697.639 221.207 701.535 225.032 709.327 225.032H715.292C723.148 225.032 727.082 221.528 727.093 214.52V201.214C727.215 199.692 726.971 198.163 726.381 196.753C725.876 195.946 725.197 195.261 724.393 194.746C722.995 193.907 721.555 193.141 720.077 192.451L710.814 188.182C709.895 187.716 709.014 187.179 708.179 186.577C707.87 186.276 707.635 185.907 707.495 185.501C707.355 185.094 707.312 184.66 707.371 184.234V173.882C707.371 171.394 708.745 170.158 711.525 170.158H713.061C715.906 170.158 717.329 171.394 717.329 173.882V179.371L727.06 179.387ZM678.661 162.583V213.316C678.661 216.044 677.335 217.409 674.7 217.409H670.723C667.878 217.409 666.456 216.044 666.456 213.316V162.583H656.756V213.059C656.756 220.998 660.652 224.968 668.444 224.968H676.672C684.539 224.968 688.473 221.03 688.473 213.155V162.583H678.661ZM624.07 213.749V173.818C624.07 171.378 625.492 170.174 628.337 170.174H632.848C635.757 170.174 637.212 171.378 637.212 173.818V213.781C637.212 216.221 635.935 217.441 633.349 217.441H628.37C625.46 217.441 624.005 216.221 624.005 213.781L624.07 213.749ZM635.192 225.016C643.048 225.016 646.976 221.48 646.976 214.407V173.32C646.976 166.194 643.08 162.631 635.289 162.631H625.929C618.137 162.631 614.241 166.194 614.241 173.32V214.407C614.241 221.491 618.175 225.027 626.042 225.016H635.192ZM599.563 162.583L591.642 210.186L583.704 162.583H574.005L585.79 224.968H597.38L609.181 162.583H599.563ZM553.717 170.142V162.583H525.25V170.142H534.61V224.968H544.309V170.174L553.717 170.142ZM520.772 224.968V217.409H506.336V196.672H519.156V189.113H506.336V170.174H520.772V162.583H496.524V224.968H520.772Z" fill="white"/>
<path d="M212.544 108.737C217.717 96.6568 221.338 90.6168 223.407 90.6168H223.504C224.603 90.6168 225.266 92.5106 225.508 96.3144C225.486 98.4384 225.148 100.547 224.506 102.574C222.555 108.063 218.568 110.807 212.544 110.807H211.816L212.544 108.737ZM205.334 91.6118C199.667 98.9184 196.526 107.846 196.378 117.067V118.672C196.338 122.239 197.118 125.768 198.657 128.991C202.548 135.219 206.988 138.332 211.978 138.332H212.802C218.352 138.332 224.862 134.678 232.33 127.37C235.87 123.743 238.505 120.806 240.284 118.575C244.193 113.588 247.815 108.385 251.131 102.991C252.065 101.812 252.752 100.458 253.151 99.0107V98.8181C253.151 98.2243 252.65 97.8552 251.68 97.7428H251.341C250.347 97.8287 249.38 98.1132 248.5 98.5793C247.619 99.0454 246.842 99.6835 246.216 100.455C244.341 103.408 241.76 106.971 238.473 111.144C227.998 123.888 220.389 130.259 215.647 130.259C215.024 130.236 214.408 130.117 213.821 129.906C211.461 128.574 210.264 125.396 210.264 120.389V117.644C211.677 117.566 213.082 117.383 214.467 117.099C216.808 116.582 219.096 115.857 221.305 114.932C224.099 113.664 226.66 111.945 228.887 109.844C231.363 107.609 233.341 104.882 234.691 101.842C236.042 98.8009 236.735 95.5129 236.727 92.1896C236.847 89.5113 236.081 86.8676 234.545 84.6624C233.302 83.2898 231.781 82.193 230.082 81.4436C228.382 80.6941 226.543 80.3088 224.684 80.3129H223.585C217.118 80.3129 211.035 84.0899 205.334 91.6439V91.6118ZM193.743 32.838C193.452 32.838 191.836 37.5192 188.893 46.8815C188.893 47.363 187.956 47.6037 186.064 47.6037C169.824 50.0325 159.235 52.1725 154.299 54.0235C151.503 54.6976 150.112 55.3878 150.112 56.11V56.2865C150.153 57.0115 150.34 57.7211 150.662 58.373C153.636 62.6743 156.255 64.7929 158.502 64.7929C167.246 62.2437 176.152 60.276 185.159 58.9026C176.829 88.2628 172.663 110.037 172.663 124.225C172.57 128.801 173.214 133.363 174.571 137.738C176.597 142.746 179.943 145.25 184.61 145.25H185.628C188.36 145.25 189.912 144.383 190.267 142.618C190.267 141.478 189.265 140.419 187.261 139.408C186.048 138.316 185.434 135.909 185.434 132.153V131.431C185.434 114.643 190.214 89.7287 199.773 56.6878C208.347 55.5151 216.984 54.8452 225.638 54.6816H227.82C230.579 54.6707 233.331 54.945 236.032 55.5001C237.333 55.9823 238.667 56.3686 240.025 56.6557H240.478C242.525 56.5974 244.528 56.0466 246.313 55.0507C248.56 53.831 249.692 52.7235 249.692 51.6964V51.3272C249.676 51.1087 249.616 50.8957 249.514 50.7013C244.406 47.0099 234.275 45.1641 219.123 45.1641C212.43 45.2925 207.166 45.5065 203.329 45.8061H203.248C205.404 39.2686 206.482 35.9463 206.482 35.8393L206.207 34.7479C205.275 33.6978 204.121 32.8654 202.827 32.3105C201.533 31.7555 200.131 31.4917 198.722 31.538H197.72C196.266 31.4501 194.831 31.902 193.695 32.8059L193.743 32.838ZM149.256 55.1791C147.607 55.0721 145.354 56.7627 142.498 60.2508C136.032 66.7884 132.799 70.3514 132.799 70.9399V71.4856C133.898 73.7325 136.032 74.9362 139.378 75.1128H139.928C140.569 75.1966 141.221 75.1362 141.836 74.9363C142.913 75.0005 145.893 71.5872 150.775 64.6966H151.147C151.643 66.3786 152.281 68.0161 153.055 69.5917C154.132 73.7646 156.6 75.9367 160.458 76.1079L161.913 76.2042C162.597 76.2869 163.291 76.1809 163.919 75.8977C164.546 75.6146 165.083 75.1653 165.47 74.5992V73.877C165.351 73.2671 162.98 68.9872 158.357 61.0373C158.005 59.3896 157.1 57.9093 155.79 56.8391C154.481 55.7689 152.843 55.1723 151.147 55.147L149.256 55.1791ZM134.949 116.714L136.404 117.516C139.233 118.923 142.294 119.815 145.441 120.148C142.585 125.765 140.305 128.574 138.603 128.574C138.064 128.563 137.545 128.371 137.131 128.028C135.417 125.191 134.59 121.912 134.755 118.607C134.755 117.644 134.852 117.002 134.852 116.714H134.949ZM138.182 96.7637C139.009 94.9766 140.017 93.2773 141.189 91.6921C143.991 88.6105 146.276 87.0698 148.043 87.0698C148.332 87.1898 148.603 87.3462 148.851 87.5352C150.551 90.1816 151.413 93.2732 151.325 96.4107V97.8552C151.085 103.638 149.85 109.338 147.671 114.707C145.4 114.855 143.147 114.225 141.288 112.923C139.428 111.62 138.075 109.723 137.455 107.549C138.027 106.48 138.763 105.505 139.637 104.66C141.254 103.681 142.11 102.814 142.11 102.028V101.852C142.11 100.519 140.704 99.3157 137.907 98.2243C137.944 97.7288 138.036 97.239 138.182 96.7637ZM139.799 82.3191C135.11 84.1362 131.225 87.5495 128.839 91.9489C127.231 94.974 126.299 98.3079 126.107 101.723C122.991 105.992 121.331 111.137 121.37 116.409V117.644C121.415 121.978 122.609 126.223 124.83 129.954C127.685 133.828 131.032 135.764 134.868 135.764H135.871C140.914 135.764 146.087 133.138 151.389 127.884C153.863 125.202 155.976 122.213 157.678 118.993C157.678 118.334 158.292 117.885 159.505 117.644C163.948 116.163 168.181 114.118 172.097 111.562C175.685 109.297 178.837 106.416 181.409 103.055V102.686C180.923 102.035 180.308 101.49 179.602 101.084C178.896 100.678 178.113 100.42 177.303 100.327L176.947 100.423C176.64 100.423 175.848 101.45 174.571 103.328C173.25 104.746 171.782 106.021 170.19 107.132C167.07 109.206 163.696 110.878 160.151 112.107H160.054C161.39 107.758 162.13 103.251 162.253 98.7058V98.3848C162.32 95.3361 161.725 92.3087 160.507 89.5093C157.705 84.1594 152.855 81.4845 145.958 81.4845H144.956C143.206 81.5326 141.47 81.8188 139.799 82.3351V82.3191ZM62.9641 13.0167C57.5101 17.4551 52.4679 22.3699 47.8979 27.7021C42.7531 33.6487 37.9961 39.9155 33.6561 46.4642C27.0623 56.8088 21.238 67.6175 16.2296 78.8042C5.39871 104.355 -0.0167211 126.252 -0.0167211 144.495V147.577C-0.173124 158.441 2.6188 169.146 8.06604 178.569C10.1222 181.839 12.6064 184.823 15.4537 187.444C22.3833 193.062 28.8925 195.87 34.9816 195.87H36.9053C46.1519 195.87 57.3762 191.098 70.578 181.554C77.6476 176.259 84.3151 170.455 90.5263 164.188C97.2875 157.331 103.687 150.131 109.699 142.618C117.073 133.3 123.885 123.557 130.099 113.439C131.549 111.276 132.829 109.007 133.931 106.65L134.383 105.286L134.755 104.291C133.042 101.081 130.649 99.7971 127.545 100.584L126.721 100.664C126.543 100.182 126.204 100.423 125.719 101.386C122.065 109.122 115.281 119.362 105.366 132.105C99.6535 139.622 93.562 146.849 87.1153 153.756C66.8653 174.952 50.2581 185.556 37.2933 185.566C35.1776 185.658 33.0654 185.319 31.0862 184.571C29.107 183.823 27.3025 182.682 25.7834 181.217C20.3949 175.182 17.7006 166.184 17.7006 154.222V151.493C17.9507 141.463 19.3611 131.495 21.9037 121.785C24.4848 111.65 27.8075 101.716 31.8454 92.0612C35.8722 82.5646 40.4439 73.3048 45.5377 64.3274C50.6782 55.4926 56.5103 47.0727 62.9802 39.1455C74.5224 25.3107 85.682 16.8847 96.4591 13.8673L96.3783 14.5896V15.039C96.3783 20.7847 94.5515 29.8154 90.8981 42.1308C87.665 52.9482 82.9501 65.7559 76.7533 80.5536C73.0352 89.1242 71.1924 93.602 71.1924 93.9551V94.6934C71.1924 95.8971 72.1623 97.5021 74.1021 99.5083C77.8687 102.718 81.312 104.211 84.4157 104.211H85.515C86.1407 104.232 86.7604 104.083 87.3072 103.78C87.8541 103.478 88.3076 103.033 88.6188 102.493C91.8519 95.1963 95.473 86.5883 99.482 76.6696C109.321 50.6371 114.247 32.2121 114.257 21.3946C114.257 14.0332 112.005 8.53887 107.5 4.91165C102.877 1.70172 98.566 0.0699783 94.5677 0.0164795H93.1936C84.1948 0.0164795 74.1291 4.33385 62.9964 12.9686" fill="white"/>
<path d="M738.392 109.138C743.565 97.0576 747.186 91.0176 749.255 91.0176H749.336C750.435 91.0176 751.114 92.9114 751.357 96.7152C751.336 98.8393 750.998 100.949 750.355 102.975C748.404 108.474 744.416 111.224 738.392 111.224H737.665L738.392 109.138ZM731.182 91.9645C725.515 99.2698 722.379 108.199 722.243 117.419V119.024C722.203 122.591 722.983 126.121 724.522 129.344C728.413 135.571 732.853 138.685 737.843 138.685H738.667C744.196 138.685 750.705 135.031 758.195 127.723C761.719 124.096 764.37 121.175 766.132 118.928C770.056 113.948 773.683 108.744 776.995 103.344C777.93 102.166 778.612 100.812 779 99.3634V99.1869C779 98.577 778.515 98.2078 777.545 98.0955H777.173C776.182 98.1835 775.218 98.469 774.341 98.9351C773.463 99.4011 772.689 100.038 772.065 100.808C769.661 104.498 767.071 108.066 764.305 111.497C753.852 124.24 746.249 130.617 741.496 130.628C740.872 130.599 740.255 130.475 739.669 130.259C737.293 128.927 736.113 125.765 736.113 120.742V117.933C737.525 117.853 738.93 117.671 740.316 117.387C742.656 116.868 744.944 116.143 747.154 115.22C749.943 113.952 752.504 112.239 754.735 110.149C757.209 107.911 759.184 105.184 760.534 102.144C761.884 99.1035 762.58 95.8167 762.576 92.4941C762.696 89.8158 761.929 87.1721 760.393 84.9669C759.147 83.5983 757.625 82.5042 755.927 81.7551C754.229 81.0059 752.391 80.6184 750.532 80.6174H749.433C742.967 80.6174 736.883 84.3944 731.182 91.9484V91.9645ZM680.988 80.5372C675.223 109.887 672.453 127.37 672.679 132.987V134.592C673.472 135.593 674.508 136.376 675.691 136.867C676.873 137.359 678.163 137.542 679.437 137.401L681.053 137.321C682.106 137.262 683.106 136.842 683.882 136.133C685.381 130.269 687.211 124.492 689.362 118.832C695.02 102.878 699.035 93.9386 701.405 92.0127H702.036C706.239 99.2671 711.385 102.771 717.474 102.525L719.091 102.429C723.52 102.252 725.686 101.289 725.557 99.5239V98.898C724.829 98.0473 724.377 97.63 724.199 97.63L723.1 97.7263C719.446 97.844 715.34 94.9444 710.781 89.0275C708.227 84.6191 705.274 82.4792 701.923 82.6076C698.69 82.7199 695.133 85.1434 691.254 89.8459L692.434 82.6076C691.923 81.4184 691.027 80.4328 689.888 79.8075C688.748 79.1823 687.431 78.9532 686.145 79.1569H684.125C682.979 79.274 681.914 79.7917 681.118 80.6174L680.988 80.5372ZM669.98 33.2228C669.673 33.2228 668.072 37.9093 665.13 47.2662C665.13 47.7477 664.192 47.9885 662.301 47.9885C646.049 50.4173 635.466 52.5573 630.552 54.4083C627.739 55.0824 626.349 55.7725 626.349 56.4948V56.6553C626.392 57.3748 626.579 58.0787 626.899 58.7257C629.873 63.027 632.492 65.1456 634.739 65.1456C643.485 62.6041 652.39 60.6364 661.396 59.2553C653.076 88.6155 648.911 110.395 648.9 124.593C648.807 129.165 649.451 133.722 650.807 138.091C652.833 143.099 656.18 145.602 660.846 145.602H661.865C664.597 145.602 666.148 144.736 666.504 142.986C666.504 141.831 665.502 140.761 663.497 139.776C662.285 138.685 661.671 136.278 661.671 132.522V131.8C661.671 115.012 666.45 90.0974 676.009 57.0565C684.584 55.8878 693.221 55.2233 701.874 55.0664H704.057C706.814 55.0583 709.566 55.3272 712.269 55.8689C713.518 56.385 714.804 56.8087 716.116 57.1368H716.569C718.617 57.0862 720.622 56.5349 722.404 55.5318C724.651 54.3281 725.783 53.2046 725.783 52.1774V51.8404C725.767 51.6219 725.707 51.4088 725.605 51.2144C720.486 47.523 710.356 45.6773 695.214 45.6773C688.522 45.8057 683.257 46.0197 679.42 46.3193H679.323C681.479 39.8032 682.556 36.4809 682.556 36.3525L682.282 35.2611C681.348 34.2137 680.193 33.3831 678.9 32.8283C677.606 32.2736 676.205 32.0083 674.797 32.0512H673.795C672.341 31.9633 670.906 32.4152 669.77 33.3191L669.98 33.2228ZM619.301 53.2528C617.673 53.1458 615.426 54.8363 612.56 58.3245C606.094 64.862 602.861 68.425 602.861 69.0135V69.495C603.944 71.742 606.094 72.9457 609.424 73.1222H609.973C610.614 73.2071 611.267 73.1467 611.881 72.9457C612.959 73.0099 615.944 69.5966 620.837 62.706H621.192C621.689 64.3902 622.332 66.0282 623.116 67.6012C624.215 71.758 626.672 73.9408 630.504 74.1173L631.958 74.2136C632.645 74.2939 633.34 74.187 633.969 73.9042C634.599 73.6213 635.139 73.1734 635.531 72.6086V71.8864C635.402 71.2765 633.025 66.9966 628.402 59.0467C628.056 57.3963 627.152 55.9127 625.841 54.8416C624.53 53.7704 622.89 53.1759 621.192 53.1565L619.301 53.2528ZM603.248 116.858C609.208 98.807 614.133 89.7764 618.024 89.7657C620.093 89.7657 621.612 92.9756 622.599 99.3955C617.975 107.955 614.203 114.375 611.283 118.655C609.679 122.102 607.158 125.048 603.992 127.177C602.763 127.177 602.165 125.99 602.165 123.646V122.363C602.284 120.49 602.62 118.637 603.168 116.841L603.248 116.858ZM625.25 84.5817C625.25 84.7743 625.25 84.8545 625.072 84.8545C622.283 82.4261 618.767 80.9766 615.065 80.7298C607.888 80.7298 601.777 84.6566 596.734 92.5102C591.076 102.589 588.247 111.62 588.247 119.602V121.416C588.262 123.559 588.695 125.679 589.524 127.659C592.013 132.731 596.578 135.266 603.216 135.266C606.805 135.266 611.73 130.799 617.991 121.865H618.169V123.309C618.196 125.05 618.413 126.783 618.816 128.477C620.82 135.058 624.016 138.348 628.402 138.348H629.404C636.819 138.348 646.249 126.3 657.694 102.204V101.386C657.694 100.776 656.772 100.182 654.946 99.572C654.151 99.6359 653.377 99.8541 652.666 100.214C652.246 100.696 649.266 106.19 643.727 116.697C641.227 121.675 637.996 126.256 634.141 130.291H633.138C632.604 128.405 632.327 126.456 632.314 124.497V123.309C632.314 113.401 635.418 100.444 641.625 84.4372V84.2607C641.625 82.0245 639.071 80.5158 633.963 79.7347H632.136C629.205 79.7347 626.985 81.3022 625.476 84.4372L625.25 84.5817ZM543.339 42.9489C540.316 49.6854 537.877 56.6655 536.048 63.8134C529.054 92.5637 525.552 114.498 525.541 129.617V133.068C525.541 135.486 527.669 136.904 531.926 137.321C532.837 137.379 533.75 137.24 534.602 136.913C535.453 136.586 536.223 136.079 536.857 135.427C537.899 127.916 540.023 120.592 543.161 113.68C550.339 97.3732 556.422 89.22 561.412 89.22L562.414 89.4929C563.78 90.244 564.9 91.3665 565.645 92.7283C566.389 94.0902 566.727 95.6349 566.617 97.1806V99.5399C566.617 106.859 563.481 115.857 557.209 126.535C551.918 134.207 546.777 138.888 541.787 140.579C538.813 141.125 537.326 142.195 537.326 143.789V143.885C537.287 144.577 537.444 145.267 537.778 145.875C538.813 147.625 539.718 148.507 540.51 148.507H543.614C554.078 148.507 565.486 143.131 577.836 132.378C582.387 127.975 586.571 123.214 590.348 118.141C595.457 110.363 598.496 104.868 599.466 101.659V100.936C599.466 99.8449 598.56 99.0584 596.734 98.577H595.457C594.499 98.6792 593.602 99.0909 592.903 99.7486C589.001 106.639 586.199 111.385 584.496 113.985C581.056 119.876 576.388 124.971 570.804 128.927H570.449C576.656 118.537 579.76 108.966 579.76 100.214C579.946 95.8029 578.625 91.4588 576.01 87.8879C572.485 83.715 568.493 81.6285 564.063 81.6285C556.886 81.6285 549.46 87.2192 541.787 98.4004C541.787 98.4004 541.916 97.7906 542.159 96.7955C544.783 83.3473 548.414 70.1123 553.022 57.201C556.126 50.1391 557.662 46.4477 557.662 46.1428V45.6934C556.916 44.3287 555.788 43.208 554.413 42.4674C553.039 41.7267 551.477 41.3978 549.918 41.5205H548.302C546.509 41.4397 544.74 41.9536 543.274 42.981L543.339 42.9489ZM521.015 35.1006C520.53 35.1006 519.452 37.6632 517.781 42.7884C507.328 78.2581 502.095 104.66 502.085 121.993V124.882C501.929 130.118 502.859 135.33 504.817 140.194C507.08 144.131 510.184 146.095 514.128 146.084H515.049C517.717 145.779 519.058 144.912 519.058 143.468C518.703 142.312 518.089 141.734 517.232 141.734C515.357 140.531 514.403 137.208 514.403 131.768C514.403 116.424 520.33 88.4603 532.185 47.8761C534.076 41.7131 535.014 38.471 535.014 38.2463V37.8772C533.807 35.6516 530.854 34.4158 526.155 34.1697H524.878C523.509 34.1581 522.161 34.501 520.966 35.1648L521.015 35.1006ZM471.726 42.2106C483.462 25.091 491.615 15.9374 496.184 14.7497C497.397 14.7497 498.043 15.3596 498.108 16.7398L498.189 19.1954C498.318 22.4053 496.982 28.959 494.18 38.8562C487.487 60.1274 482.131 78.0334 478.111 92.5744C472.623 90.8707 466.884 90.1055 461.137 90.3114C455.079 90.5947 449.06 91.4437 443.161 92.8472H442.887C451.201 75.271 460.841 58.3439 471.726 42.2106ZM464.726 22.4214C446.104 48.8926 431.441 74.5078 420.74 99.2671C410.651 103.012 400.878 107.547 391.513 112.829C379.884 119.121 374.043 123.561 373.989 126.15V126.792C374.333 128.096 375.025 129.283 375.994 130.227C380.019 133.26 383.381 134.705 386.129 134.576L388.231 133.95C395.412 127.612 403.537 122.415 412.318 118.543C399.838 150.043 393.878 172.577 394.439 186.144C394.527 188.276 394.925 190.384 395.619 192.403C398.852 197.411 402.775 199.829 407.387 199.658L409.489 199.561C410.636 198.598 411.218 197.956 411.218 197.651V196.753C410.582 194.735 410.09 192.676 409.747 190.59C409.079 175.663 417.447 148.513 434.852 109.138C449.94 103.873 461.795 101.065 470.416 100.712H471.047C472.671 100.524 474.317 100.644 475.897 101.065C468.234 129.344 464.678 149.401 465.227 161.235C465.227 161.716 465.373 163.193 465.68 165.681C465.992 172.432 470.303 176.327 478.612 177.365C479.354 177.454 480.104 177.285 480.735 176.887C481.366 176.489 481.838 175.887 482.072 175.182L480.795 166.483C480.977 166.119 481.071 165.718 481.069 165.311C480.585 154.933 483.898 136.208 491.011 109.138C505.377 60.9887 512.317 31.329 511.833 20.1584L511.735 17.1731C511.714 13.9228 510.833 10.7351 509.181 7.92858C504.871 2.97459 499.94 0.588509 494.39 0.770405L491.383 0.946977C485.477 1.18237 476.624 8.34052 464.823 22.4214H464.726ZM377.837 37.9093L377.74 38.2624C378.35 39.6955 378.447 41.2929 378.014 42.7884L377.837 44.1526C377.744 45.7463 377.198 47.2813 376.263 48.5795C375.327 49.8778 374.04 50.886 372.55 51.4873L372.356 52.4021C372.659 53.1074 373.15 53.7168 373.777 54.1639C374.404 54.6111 375.143 54.8788 375.913 54.938L377.19 55.1145C381.641 54.633 384.26 51.8565 385.046 46.7848L385.418 43.8798C386.022 39.8353 384.712 37.599 381.49 37.171L380.213 36.9945C379.771 36.8588 379.296 36.8754 378.864 37.0414C378.433 37.2075 378.071 37.5133 377.837 37.9093ZM305.205 104.884C310.065 94.4843 314.328 88.6529 317.992 87.3904C318.477 87.4546 319.937 90.2311 322.373 95.7201C321.888 100.31 319.544 106.805 315.341 115.204C308.874 126.14 304.1 131.607 301.018 131.607C299.789 131.607 299.191 130.436 299.191 128.076C299.191 122.812 301.196 115.081 305.205 104.884ZM344.002 44.5378C340.735 48.548 338.062 53.0013 336.065 57.7627C332.588 66.277 329.836 75.0655 327.837 84.036C324.574 80.8315 320.203 78.9832 315.616 78.868C307.824 78.868 301.131 83.2495 295.538 92.0127C289.643 102.766 286.69 112.931 286.679 122.507C286.728 124.676 287.038 126.831 287.601 128.927C289.907 135.817 295.107 139.257 303.2 139.247C305.27 139.247 308.373 137.043 312.512 132.634C315.615 129.007 318.994 124.727 322.647 119.795V125.059C322.647 137.192 324.894 145.586 329.389 150.241C333.22 153.146 336.55 154.59 339.346 154.59H340.43C340.92 154.534 341.376 154.313 341.723 153.964C341.599 153.059 341.217 152.207 340.624 151.509C336.119 148.491 333.866 142.152 333.866 132.49V131.399C333.958 125.291 334.537 119.2 335.596 113.182C337.751 100.674 339.611 92.5209 341.173 88.7225C341.768 85.3721 342.622 82.0721 343.727 78.8519C348.038 64.8352 351.595 55.9545 354.397 52.2096C355.594 50.899 356.61 49.4364 357.42 47.8601V47.0255C356.519 45.6567 355.262 44.5552 353.782 43.8375C352.302 43.1199 350.655 42.8128 349.013 42.9489C348.113 42.8761 347.207 42.9804 346.347 43.2558C345.487 43.5312 344.69 43.9723 344.002 44.5538" fill="white"/>
</svg>
